{
.appVersion = "1271";
copyright = "Copyright 2017 The Odibee Sans Project Authors (https://github.com/barnard555/odibeesans)";
customParameters = (
{
name = license;
value = "This Font Software is licensed under the SIL Open Font License, Version 1.1. This license is available with a FAQ at: http://scripts.sil.org/OFL";
},
{
name = licenseURL;
value = "http://scripts.sil.org/OFL";
},
{
name = fsType;
value = (
);
},
{
name = "Use Typo Metrics";
value = 1;
},
{
name = "Disable Last Change";
value = 1;
},
{
name = "Use Line Breaks";
value = 1;
}
);
date = "2019-11-07 19:03:50 +0000";
designer = "James Barnard - Barnard Co. Limited";
designerURL = "http://barnard.co";
familyName = "Odibee Sans";
featurePrefixes = (
{
automatic = 1;
code = "languagesystem DFLT dflt;
languagesystem latn dflt;
languagesystem latn CAT;
";
name = Languagesystems;
}
);
features = (
{
automatic = 1;
code = "feature locl;
";
name = aalt;
},
{
automatic = 1;
code = "script latn;
language CAT;
sub  l' periodcentered' l by ldot;
";
name = locl;
},
{
automatic = 1;
code = "sub f i by fi;
";
name = liga;
}
);
fontMaster = (
{
alignmentZones = (
"{748, 16}",
"{700, 16}",
"{500, 16}",
"{0, -15}",
"{-249, -15}"
);
ascender = 748;
capHeight = 700;
customParameters = (
{
name = hheaAscender;
value = 858;
},
{
name = hheaDescender;
value = -250;
},
{
name = hheaLineGap;
value = 0;
},
{
name = typoAscender;
value = 858;
},
{
name = typoDescender;
value = -250;
},
{
name = typoLineGap;
value = 0;
},
{
name = winAscent;
value = 858;
},
{
name = winDescent;
value = 250;
}
);
descender = -249;
id = "53C92641-43F1-46DD-9425-0FDC2985AE5D";
xHeight = 500;
}
);
glyphs = (
{
glyphname = A;
layers = (
{
layerId = "53C92641-43F1-46DD-9425-0FDC2985AE5D";
paths = (
{
closed = 1;
nodes = (
"115 -1 LINE",
"140 130 LINE",
"273 130 LINE",
"300 -1 LINE",
"393 -1 LINE",
"254 699 LINE",
"163 699 LINE",
"22 -1 LINE"
);
},
{
closed = 1;
nodes = (
"209 471 LINE",
"257 222 LINE",
"158 222 LINE"
);
}
);
width = 435;
}
);
unicode = 0041;
},
{
glyphname = Aacute;
layers = (
{
layerId = "53C92641-43F1-46DD-9425-0FDC2985AE5D";
paths = (
{
closed = 1;
nodes = (
"155 0 LINE",
"180 131 LINE",
"313 131 LINE",
"338 0 LINE",
"431 0 LINE",
"294 700 LINE",
"199 700 LINE",
"62 0 LINE"
);
},
{
closed = 1;
nodes = (
"245 472 LINE",
"296 223 LINE",
"197 223 LINE"
);
},
{
closed = 1;
nodes = (
"294 740 LINE",
"374 824 LINE",
"279 824 LINE",
"199 740 LINE"
);
}
);
width = 493;
}
);
unicode = 00C1;
},
{
glyphname = Acircumflex;
layers = (
{
layerId = "53C92641-43F1-46DD-9425-0FDC2985AE5D";
paths = (
{
closed = 1;
nodes = (
"155 0 LINE",
"180 131 LINE",
"315 131 LINE",
"340 0 LINE",
"433 0 LINE",
"296 700 LINE",
"199 700 LINE",
"62 0 LINE"
);
},
{
closed = 1;
nodes = (
"247 474 LINE",
"296 224 LINE",
"198 224 LINE"
);
},
{
closed = 1;
nodes = (
"216 741 LINE",
"247 774 LINE",
"279 741 LINE",
"376 741 LINE",
"296 825 LINE",
"199 825 LINE",
"119 741 LINE"
);
}
);
width = 495;
}
);
unicode = 00C2;
},
{
glyphname = Adieresis;
layers = (
{
layerId = "53C92641-43F1-46DD-9425-0FDC2985AE5D";
paths = (
{
closed = 1;
nodes = (
"154 0 LINE",
"180 131 LINE",
"314 131 LINE",
"340 0 LINE",
"433 0 LINE",
"296 700 LINE",
"199 700 LINE",
"62 0 LINE"
);
},
{
closed = 1;
nodes = (
"247 473 LINE",
"296 223 LINE",
"198 223 LINE"
);
},
{
closed = 1;
nodes = (
"199 762 LINE",
"199 855 LINE",
"106 834 LINE",
"106 741 LINE"
);
},
{
closed = 1;
nodes = (
"388 834 LINE",
"296 855 LINE",
"296 762 LINE",
"388 741 LINE"
);
}
);
width = 495;
}
);
unicode = 00C4;
},
{
glyphname = Agrave;
layers = (
{
layerId = "53C92641-43F1-46DD-9425-0FDC2985AE5D";
paths = (
{
closed = 1;
nodes = (
"154 0 LINE",
"180 131 LINE",
"314 131 LINE",
"340 0 LINE",
"433 0 LINE",
"296 700 LINE",
"199 700 LINE",
"62 0 LINE"
);
},
{
closed = 1;
nodes = (
"247 473 LINE",
"296 223 LINE",
"198 223 LINE"
);
},
{
closed = 1;
nodes = (
"296 741 LINE",
"216 824 LINE",
"119 824 LINE",
"199 741 LINE"
);
}
);
width = 495;
}
);
unicode = 00C0;
},
{
glyphname = Aring;
layers = (
{
layerId = "53C92641-43F1-46DD-9425-0FDC2985AE5D";
paths = (
{
closed = 1;
nodes = (
"155 0 LINE",
"181 131 LINE",
"315 131 LINE",
"341 0 LINE",
"433 0 LINE",
"296 700 LINE",
"199 700 LINE",
"62 0 LINE"
);
},
{
closed = 1;
nodes = (
"248 474 LINE",
"297 224 LINE",
"199 224 LINE"
);
},
{
closed = 1;
nodes = (
"277 726 OFFCURVE",
"302 751 OFFCURVE",
"302 782 CURVE SMOOTH",
"302 813 OFFCURVE",
"277 839 OFFCURVE",
"246 839 CURVE SMOOTH",
"215 839 OFFCURVE",
"189 813 OFFCURVE",
"189 782 CURVE SMOOTH",
"189 751 OFFCURVE",
"215 726 OFFCURVE",
"246 726 CURVE SMOOTH"
);
},
{
closed = 1;
nodes = (
"232 757 OFFCURVE",
"220 768 OFFCURVE",
"220 782 CURVE SMOOTH",
"220 796 OFFCURVE",
"232 808 OFFCURVE",
"246 808 CURVE SMOOTH",
"260 808 OFFCURVE",
"271 796 OFFCURVE",
"271 782 CURVE SMOOTH",
"271 768 OFFCURVE",
"260 757 OFFCURVE",
"246 757 CURVE SMOOTH"
);
}
);
width = 495;
}
);
unicode = 00C5;
},
{
glyphname = Atilde;
layers = (
{
layerId = "53C92641-43F1-46DD-9425-0FDC2985AE5D";
paths = (
{
closed = 1;
nodes = (
"155 0 LINE",
"181 131 LINE",
"315 131 LINE",
"341 0 LINE",
"434 0 LINE",
"296 700 LINE",
"200 700 LINE",
"62 0 LINE"
);
},
{
closed = 1;
nodes = (
"248 474 LINE",
"297 224 LINE",
"199 224 LINE"
);
},
{
closed = 1;
nodes = (
"176 742 LINE",
"208 774 LINE",
"239 742 LINE",
"337 742 LINE",
"417 825 LINE",
"320 825 LINE",
"288 791 LINE",
"256 825 LINE",
"159 825 LINE",
"79 742 LINE"
);
}
);
width = 496;
}
);
unicode = 00C3;
},
{
glyphname = AE;
layers = (
{
layerId = "53C92641-43F1-46DD-9425-0FDC2985AE5D";
paths = (
{
closed = 1;
nodes = (
"155 0 LINE",
"253 247 LINE",
"434 247 LINE",
"434 0 LINE",
"805 0 LINE",
"805 93 LINE",
"526 93 LINE",
"526 341 LINE",
"691 341 LINE",
"712 434 LINE",
"526 434 LINE",
"526 607 LINE",
"805 607 LINE",
"805 700 LINE",
"341 700 LINE",
"62 0 LINE"
);
},
{
closed = 1;
nodes = (
"397 607 LINE",
"434 607 LINE",
"434 340 LINE",
"290 340 LINE"
);
}
);
width = 867;
}
);
unicode = 00C6;
},
{
glyphname = B;
layers = (
{
layerId = "53C92641-43F1-46DD-9425-0FDC2985AE5D";
paths = (
{
closed = 1;
nodes = (
"361 0 LINE SMOOTH",
"401 0 OFFCURVE",
"433 32 OFFCURVE",
"433 73 CURVE SMOOTH",
"433 363 LINE SMOOTH",
"433 392 OFFCURVE",
"414 420 OFFCURVE",
"387 430 CURVE",
"387 629 LINE SMOOTH",
"387 668 OFFCURVE",
"355 701 OFFCURVE",
"314 701 CURVE SMOOTH",
"60 701 LINE",
"60 0 LINE"
);
},
{
closed = 1;
nodes = (
"154 342 LINE",
"305 342 LINE SMOOTH",
"323 342 OFFCURVE",
"340 325 OFFCURVE",
"340 306 CURVE SMOOTH",
"340 130 LINE SMOOTH",
"340 109 OFFCURVE",
"323 93 OFFCURVE",
"305 93 CURVE SMOOTH",
"154 93 LINE"
);
},
{
closed = 1;
nodes = (
"154 608 LINE",
"257 608 LINE SMOOTH",
"277 608 OFFCURVE",
"294 592 OFFCURVE",
"294 572 CURVE SMOOTH",
"294 470 LINE SMOOTH",
"294 451 OFFCURVE",
"277 434 OFFCURVE",
"257 434 CURVE SMOOTH",
"154 434 LINE"
);
}
);
width = 493;
}
);
unicode = 0042;
},
{
glyphname = C;
layers = (
{
layerId = "53C92641-43F1-46DD-9425-0FDC2985AE5D";
paths = (
{
closed = 1;
nodes = (
"361 0 LINE SMOOTH",
"402 0 OFFCURVE",
"433 32 OFFCURVE",
"433 72 CURVE SMOOTH",
"433 224 LINE",
"340 202 LINE",
"340 129 LINE SMOOTH",
"340 108 OFFCURVE",
"326 93 OFFCURVE",
"305 93 CURVE SMOOTH",
"191 93 LINE SMOOTH",
"172 93 OFFCURVE",
"155 108 OFFCURVE",
"155 129 CURVE SMOOTH",
"155 571 LINE SMOOTH",
"155 590 OFFCURVE",
"172 607 OFFCURVE",
"191 607 CURVE SMOOTH",
"305 607 LINE SMOOTH",
"326 607 OFFCURVE",
"340 590 OFFCURVE",
"340 571 CURVE SMOOTH",
"340 477 LINE",
"433 498 LINE",
"433 628 LINE SMOOTH",
"433 666 OFFCURVE",
"402 700 OFFCURVE",
"361 700 CURVE SMOOTH",
"134 700 LINE SMOOTH",
"96 700 OFFCURVE",
"62 666 OFFCURVE",
"62 628 CURVE SMOOTH",
"62 72 LINE SMOOTH",
"62 32 OFFCURVE",
"96 0 OFFCURVE",
"134 0 CURVE SMOOTH"
);
}
);
width = 495;
}
);
unicode = 0043;
},
{
glyphname = Ccedilla;
layers = (
{
layerId = "53C92641-43F1-46DD-9425-0FDC2985AE5D";
paths = (
{
closed = 1;
nodes = (
"306 -221 OFFCURVE",
"355 -175 OFFCURVE",
"355 -116 CURVE SMOOTH",
"355 -74 OFFCURVE",
"327 -36 OFFCURVE",
"289 -19 CURVE",
"289 0 LINE",
"361 0 LINE SMOOTH",
"401 0 OFFCURVE",
"433 32 OFFCURVE",
"433 72 CURVE SMOOTH",
"433 223 LINE",
"340 202 LINE",
"340 129 LINE SMOOTH",
"340 108 OFFCURVE",
"323 93 OFFCURVE",
"304 93 CURVE SMOOTH",
"190 93 LINE SMOOTH",
"171 93 OFFCURVE",
"154 108 OFFCURVE",
"154 129 CURVE SMOOTH",
"154 571 LINE SMOOTH",
"154 590 OFFCURVE",
"171 607 OFFCURVE",
"190 607 CURVE SMOOTH",
"304 607 LINE SMOOTH",
"323 607 OFFCURVE",
"340 590 OFFCURVE",
"340 571 CURVE SMOOTH",
"340 477 LINE",
"433 498 LINE",
"433 628 LINE SMOOTH",
"433 666 OFFCURVE",
"401 700 OFFCURVE",
"361 700 CURVE SMOOTH",
"133 700 LINE SMOOTH",
"93 700 OFFCURVE",
"62 666 OFFCURVE",
"62 628 CURVE SMOOTH",
"62 72 LINE SMOOTH",
"62 32 OFFCURVE",
"93 0 OFFCURVE",
"133 0 CURVE SMOOTH",
"207 0 LINE",
"207 -93 LINE",
"249 -93 LINE SMOOTH",
"262 -93 OFFCURVE",
"272 -103 OFFCURVE",
"272 -116 CURVE SMOOTH",
"272 -129 OFFCURVE",
"262 -139 OFFCURVE",
"249 -139 CURVE SMOOTH",
"239 -139 OFFCURVE",
"232 -133 OFFCURVE",
"228 -127 CURVE",
"154 -162 LINE",
"171 -198 OFFCURVE",
"209 -221 OFFCURVE",
"249 -221 CURVE SMOOTH"
);
}
);
width = 495;
}
);
unicode = 00C7;
},
{
glyphname = D;
layers = (
{
layerId = "53C92641-43F1-46DD-9425-0FDC2985AE5D";
paths = (
{
closed = 1;
nodes = (
"362 0 LINE SMOOTH",
"401 0 OFFCURVE",
"433 32 OFFCURVE",
"433 72 CURVE SMOOTH",
"433 628 LINE SMOOTH",
"433 668 OFFCURVE",
"401 700 OFFCURVE",
"362 700 CURVE SMOOTH",
"62 700 LINE",
"62 0 LINE"
);
},
{
closed = 1;
nodes = (
"155 607 LINE",
"305 607 LINE SMOOTH",
"324 607 OFFCURVE",
"341 591 OFFCURVE",
"341 571 CURVE SMOOTH",
"341 129 LINE SMOOTH",
"341 109 OFFCURVE",
"324 93 OFFCURVE",
"305 93 CURVE SMOOTH",
"155 93 LINE"
);
}
);
width = 495;
}
);
unicode = 0044;
},
{
glyphname = Eth;
layers = (
{
layerId = "53C92641-43F1-46DD-9425-0FDC2985AE5D";
paths = (
{
closed = 1;
nodes = (
"404 0 LINE SMOOTH",
"442 0 OFFCURVE",
"476 32 OFFCURVE",
"476 72 CURVE SMOOTH",
"476 629 LINE SMOOTH",
"476 667 OFFCURVE",
"442 700 OFFCURVE",
"404 700 CURVE SMOOTH",
"105 700 LINE",
"105 397 LINE",
"69 397 LINE",
"31 304 LINE",
"105 304 LINE",
"105 0 LINE"
);
},
{
closed = 1;
nodes = (
"198 304 LINE",
"280 304 LINE",
"318 397 LINE",
"198 397 LINE",
"198 608 LINE",
"347 608 LINE SMOOTH",
"366 608 OFFCURVE",
"383 591 OFFCURVE",
"383 572 CURVE SMOOTH",
"383 129 LINE SMOOTH",
"383 108 OFFCURVE",
"366 93 OFFCURVE",
"347 93 CURVE SMOOTH",
"198 93 LINE"
);
}
);
width = 538;
}
);
unicode = 00D0;
},
{
glyphname = E;
layers = (
{
layerId = "53C92641-43F1-46DD-9425-0FDC2985AE5D";
paths = (
{
closed = 1;
nodes = (
"434 0 LINE",
"434 93 LINE",
"155 93 LINE",
"155 341 LINE",
"320 341 LINE",
"341 434 LINE",
"155 434 LINE",
"155 608 LINE",
"434 608 LINE",
"434 700 LINE",
"62 700 LINE",
"62 0 LINE"
);
}
);
width = 496;
}
);
unicode = 0045;
},
{
glyphname = Eacute;
layers = (
{
layerId = "53C92641-43F1-46DD-9425-0FDC2985AE5D";
paths = (
{
closed = 1;
nodes = (
"433 0 LINE",
"433 93 LINE",
"154 93 LINE",
"154 341 LINE",
"319 341 LINE",
"340 434 LINE",
"154 434 LINE",
"154 607 LINE",
"433 607 LINE",
"433 700 LINE",
"62 700 LINE",
"62 0 LINE"
);
},
{
closed = 1;
nodes = (
"256 741 LINE",
"336 824 LINE",
"239 824 LINE",
"159 741 LINE"
);
}
);
width = 495;
}
);
unicode = 00C9;
},
{
glyphname = Ecircumflex;
layers = (
{
layerId = "53C92641-43F1-46DD-9425-0FDC2985AE5D";
paths = (
{
closed = 1;
nodes = (
"433 0 LINE",
"433 93 LINE",
"155 93 LINE",
"155 341 LINE",
"319 341 LINE",
"340 434 LINE",
"155 434 LINE",
"155 607 LINE",
"433 607 LINE",
"433 700 LINE",
"62 700 LINE",
"62 0 LINE"
);
},
{
closed = 1;
nodes = (
"216 741 LINE",
"248 774 LINE",
"279 741 LINE",
"376 741 LINE",
"296 824 LINE",
"199 824 LINE",
"119 741 LINE"
);
}
);
width = 495;
}
);
unicode = 00CA;
},
{
glyphname = Edieresis;
layers = (
{
layerId = "53C92641-43F1-46DD-9425-0FDC2985AE5D";
paths = (
{
closed = 1;
nodes = (
"433 0 LINE",
"433 93 LINE",
"154 93 LINE",
"154 341 LINE",
"319 341 LINE",
"340 434 LINE",
"154 434 LINE",
"154 607 LINE",
"433 607 LINE",
"433 700 LINE",
"62 700 LINE",
"62 0 LINE"
);
},
{
closed = 1;
nodes = (
"199 763 LINE",
"199 856 LINE",
"106 834 LINE",
"106 742 LINE"
);
},
{
closed = 1;
nodes = (
"389 834 LINE",
"296 856 LINE",
"296 763 LINE",
"389 742 LINE"
);
}
);
width = 495;
}
);
unicode = 00CB;
},
{
glyphname = Egrave;
layers = (
{
layerId = "53C92641-43F1-46DD-9425-0FDC2985AE5D";
paths = (
{
closed = 1;
nodes = (
"433 0 LINE",
"433 93 LINE",
"154 93 LINE",
"154 341 LINE",
"319 341 LINE",
"340 434 LINE",
"154 434 LINE",
"154 607 LINE",
"433 607 LINE",
"433 700 LINE",
"62 700 LINE",
"62 0 LINE"
);
},
{
closed = 1;
nodes = (
"336 741 LINE",
"256 824 LINE",
"159 824 LINE",
"239 741 LINE"
);
}
);
width = 495;
}
);
unicode = 00C8;
},
{
glyphname = F;
layers = (
{
layerId = "53C92641-43F1-46DD-9425-0FDC2985AE5D";
paths = (
{
closed = 1;
nodes = (
"155 0 LINE",
"155 341 LINE",
"320 341 LINE",
"341 434 LINE",
"155 434 LINE",
"155 607 LINE",
"434 607 LINE",
"434 700 LINE",
"62 700 LINE",
"62 0 LINE"
);
}
);
width = 456;
}
);
unicode = 0046;
},
{
glyphname = G;
layers = (
{
layerId = "53C92641-43F1-46DD-9425-0FDC2985AE5D";
paths = (
{
closed = 1;
nodes = (
"361 0 LINE SMOOTH",
"401 0 OFFCURVE",
"433 32 OFFCURVE",
"433 72 CURVE SMOOTH",
"433 319 LINE",
"269 319 LINE",
"248 226 LINE",
"340 226 LINE",
"340 129 LINE SMOOTH",
"340 109 OFFCURVE",
"324 93 OFFCURVE",
"304 93 CURVE SMOOTH",
"191 93 LINE SMOOTH",
"171 93 OFFCURVE",
"155 109 OFFCURVE",
"155 129 CURVE SMOOTH",
"155 572 LINE SMOOTH",
"155 592 OFFCURVE",
"171 608 OFFCURVE",
"191 608 CURVE SMOOTH",
"304 608 LINE SMOOTH",
"324 608 OFFCURVE",
"340 592 OFFCURVE",
"340 572 CURVE SMOOTH",
"340 494 LINE",
"433 473 LINE",
"433 629 LINE SMOOTH",
"433 668 OFFCURVE",
"401 700 OFFCURVE",
"361 700 CURVE SMOOTH",
"134 700 LINE SMOOTH",
"94 700 OFFCURVE",
"62 668 OFFCURVE",
"62 629 CURVE SMOOTH",
"62 72 LINE SMOOTH",
"62 32 OFFCURVE",
"94 0 OFFCURVE",
"134 0 CURVE SMOOTH"
);
}
);
width = 495;
}
);
unicode = 0047;
},
{
glyphname = H;
layers = (
{
layerId = "53C92641-43F1-46DD-9425-0FDC2985AE5D";
paths = (
{
closed = 1;
nodes = (
"155 0 LINE",
"155 341 LINE",
"341 341 LINE",
"341 0 LINE",
"433 0 LINE",
"433 700 LINE",
"341 700 LINE",
"341 434 LINE",
"155 434 LINE",
"155 700 LINE",
"62 700 LINE",
"62 0 LINE"
);
}
);
width = 495;
}
);
unicode = 0048;
},
{
glyphname = I;
layers = (
{
layerId = "53C92641-43F1-46DD-9425-0FDC2985AE5D";
paths = (
{
closed = 1;
nodes = (
"155 0 LINE",
"155 700 LINE",
"62 700 LINE",
"62 0 LINE"
);
}
);
width = 207;
}
);
unicode = 0049;
},
{
glyphname = Iacute;
layers = (
{
layerId = "53C92641-43F1-46DD-9425-0FDC2985AE5D";
paths = (
{
closed = 1;
nodes = (
"155 0 LINE",
"155 700 LINE",
"62 700 LINE",
"62 0 LINE"
);
},
{
closed = 1;
nodes = (
"155 740 LINE",
"235 824 LINE",
"142 824 LINE",
"62 740 LINE"
);
}
);
width = 266;
}
);
unicode = 00CD;
},
{
glyphname = Icircumflex;
layers = (
{
layerId = "53C92641-43F1-46DD-9425-0FDC2985AE5D";
paths = (
{
closed = 1;
nodes = (
"237 0 LINE",
"237 700 LINE",
"144 700 LINE",
"144 0 LINE"
);
},
{
closed = 1;
nodes = (
"159 742 LINE",
"191 775 LINE",
"223 742 LINE",
"320 742 LINE",
"239 825 LINE",
"142 825 LINE",
"62 742 LINE"
);
}
);
width = 382;
}
);
unicode = 00CE;
},
{
glyphname = Idieresis;
layers = (
{
layerId = "53C92641-43F1-46DD-9425-0FDC2985AE5D";
paths = (
{
closed = 1;
nodes = (
"218 0 LINE",
"218 700 LINE",
"126 700 LINE",
"126 0 LINE"
);
},
{
closed = 1;
nodes = (
"124 763 LINE",
"124 855 LINE",
"31 834 LINE",
"31 742 LINE"
);
},
{
closed = 1;
nodes = (
"313 834 LINE",
"221 855 LINE",
"221 763 LINE",
"313 742 LINE"
);
}
);
width = 344;
}
);
unicode = 00CF;
},
{
glyphname = Igrave;
layers = (
{
layerId = "53C92641-43F1-46DD-9425-0FDC2985AE5D";
paths = (
{
closed = 1;
nodes = (
"204 0 LINE",
"204 700 LINE",
"111 700 LINE",
"111 0 LINE"
);
},
{
closed = 1;
nodes = (
"204 742 LINE",
"123 825 LINE",
"31 825 LINE",
"111 742 LINE"
);
}
);
width = 266;
}
);
unicode = 00CC;
},
{
glyphname = J;
layers = (
{
layerId = "53C92641-43F1-46DD-9425-0FDC2985AE5D";
paths = (
{
closed = 1;
nodes = (
"362 0 LINE SMOOTH",
"401 0 OFFCURVE",
"433 32 OFFCURVE",
"433 72 CURVE SMOOTH",
"433 700 LINE",
"341 700 LINE",
"341 129 LINE SMOOTH",
"341 109 OFFCURVE",
"324 93 OFFCURVE",
"305 93 CURVE SMOOTH",
"191 93 LINE SMOOTH",
"171 93 OFFCURVE",
"155 109 OFFCURVE",
"155 129 CURVE SMOOTH",
"155 203 LINE",
"62 224 LINE",
"62 72 LINE SMOOTH",
"62 32 OFFCURVE",
"94 0 OFFCURVE",
"134 0 CURVE SMOOTH"
);
}
);
width = 495;
}
);
unicode = 004A;
},
{
glyphname = K;
layers = (
{
layerId = "53C92641-43F1-46DD-9425-0FDC2985AE5D";
paths = (
{
closed = 1;
nodes = (
"155 0 LINE",
"248 233 LINE",
"340 0 LINE",
"433 0 LINE",
"294 350 LINE",
"433 700 LINE",
"340 700 LINE",
"155 233 LINE",
"155 700 LINE",
"62 700 LINE",
"62 0 LINE"
);
}
);
width = 495;
}
);
unicode = 004B;
},
{
glyphname = L;
layers = (
{
layerId = "53C92641-43F1-46DD-9425-0FDC2985AE5D";
paths = (
{
closed = 1;
nodes = (
"394 0 LINE",
"394 93 LINE",
"155 93 LINE",
"155 700 LINE",
"62 700 LINE",
"62 0 LINE"
);
}
);
width = 452;
}
);
unicode = 004C;
},
{
glyphname = M;
layers = (
{
layerId = "53C92641-43F1-46DD-9425-0FDC2985AE5D";
paths = (
{
closed = 1;
nodes = (
"155 0 LINE",
"155 416 LINE",
"248 131 LINE",
"340 131 LINE",
"433 416 LINE",
"433 0 LINE",
"526 0 LINE",
"526 700 LINE",
"433 700 LINE",
"294 273 LINE",
"155 700 LINE",
"62 700 LINE",
"62 0 LINE"
);
}
);
width = 588;
}
);
unicode = 004D;
},
{
glyphname = N;
layers = (
{
layerId = "53C92641-43F1-46DD-9425-0FDC2985AE5D";
paths = (
{
closed = 1;
nodes = (
"155 0 LINE",
"155 467 LINE",
"341 0 LINE",
"434 0 LINE",
"434 700 LINE",
"341 700 LINE",
"341 233 LINE",
"155 700 LINE",
"62 700 LINE",
"62 0 LINE"
);
}
);
width = 496;
}
);
unicode = 004E;
},
{
glyphname = Ntilde;
layers = (
{
layerId = "53C92641-43F1-46DD-9425-0FDC2985AE5D";
paths = (
{
closed = 1;
nodes = (
"155 0 LINE",
"155 467 LINE",
"340 0 LINE",
"433 0 LINE",
"433 700 LINE",
"340 700 LINE",
"340 233 LINE",
"155 700 LINE",
"62 700 LINE",
"62 0 LINE"
);
},
{
closed = 1;
nodes = (
"179 742 LINE",
"211 775 LINE",
"243 742 LINE",
"341 742 LINE",
"421 825 LINE",
"324 825 LINE",
"292 792 LINE",
"260 825 LINE",
"163 825 LINE",
"83 742 LINE"
);
}
);
width = 495;
}
);
unicode = 00D1;
},
{
glyphname = O;
layers = (
{
layerId = "53C92641-43F1-46DD-9425-0FDC2985AE5D";
paths = (
{
closed = 1;
nodes = (
"359 0 LINE SMOOTH",
"401 0 OFFCURVE",
"432 32 OFFCURVE",
"432 73 CURVE SMOOTH",
"432 627 LINE SMOOTH",
"432 668 OFFCURVE",
"401 700 OFFCURVE",
"359 700 CURVE SMOOTH",
"132 700 LINE SMOOTH",
"94 700 OFFCURVE",
"62 668 OFFCURVE",
"62 627 CURVE SMOOTH",
"62 73 LINE SMOOTH",
"62 32 OFFCURVE",
"94 0 OFFCURVE",
"132 0 CURVE SMOOTH"
);
},
{
closed = 1;
nodes = (
"170 92 OFFCURVE",
"154 108 OFFCURVE",
"154 130 CURVE SMOOTH",
"154 570 LINE SMOOTH",
"154 592 OFFCURVE",
"170 608 OFFCURVE",
"189 608 CURVE SMOOTH",
"302 608 LINE SMOOTH",
"325 608 OFFCURVE",
"340 592 OFFCURVE",
"340 570 CURVE SMOOTH",
"340 130 LINE SMOOTH",
"340 108 OFFCURVE",
"325 92 OFFCURVE",
"302 92 CURVE SMOOTH",
"189 92 LINE SMOOTH"
);
}
);
width = 494;
}
);
unicode = 004F;
},
{
glyphname = Oacute;
layers = (
{
layerId = "53C92641-43F1-46DD-9425-0FDC2985AE5D";
paths = (
{
closed = 1;
nodes = (
"361 0 LINE SMOOTH",
"401 0 OFFCURVE",
"433 32 OFFCURVE",
"433 72 CURVE SMOOTH",
"433 628 LINE SMOOTH",
"433 667 OFFCURVE",
"401 700 OFFCURVE",
"361 700 CURVE SMOOTH",
"134 700 LINE SMOOTH",
"94 700 OFFCURVE",
"62 667 OFFCURVE",
"62 628 CURVE SMOOTH",
"62 72 LINE SMOOTH",
"62 32 OFFCURVE",
"94 0 OFFCURVE",
"134 0 CURVE SMOOTH"
);
},
{
closed = 1;
nodes = (
"171 93 OFFCURVE",
"155 109 OFFCURVE",
"155 129 CURVE SMOOTH",
"155 571 LINE SMOOTH",
"155 591 OFFCURVE",
"171 607 OFFCURVE",
"190 607 CURVE SMOOTH",
"304 607 LINE SMOOTH",
"324 607 OFFCURVE",
"340 591 OFFCURVE",
"340 571 CURVE SMOOTH",
"340 129 LINE SMOOTH",
"340 109 OFFCURVE",
"324 93 OFFCURVE",
"304 93 CURVE SMOOTH",
"190 93 LINE SMOOTH"
);
},
{
closed = 1;
nodes = (
"296 741 LINE",
"377 824 LINE",
"280 824 LINE",
"200 741 LINE"
);
}
);
width = 495;
}
);
unicode = 00D3;
},
{
glyphname = Ocircumflex;
layers = (
{
layerId = "53C92641-43F1-46DD-9425-0FDC2985AE5D";
paths = (
{
closed = 1;
nodes = (
"361 0 LINE SMOOTH",
"401 0 OFFCURVE",
"433 32 OFFCURVE",
"433 72 CURVE SMOOTH",
"433 628 LINE SMOOTH",
"433 668 OFFCURVE",
"401 700 OFFCURVE",
"361 700 CURVE SMOOTH",
"134 700 LINE SMOOTH",
"94 700 OFFCURVE",
"62 668 OFFCURVE",
"62 628 CURVE SMOOTH",
"62 72 LINE SMOOTH",
"62 32 OFFCURVE",
"94 0 OFFCURVE",
"134 0 CURVE SMOOTH"
);
},
{
closed = 1;
nodes = (
"171 93 OFFCURVE",
"155 109 OFFCURVE",
"155 129 CURVE SMOOTH",
"155 571 LINE SMOOTH",
"155 591 OFFCURVE",
"171 607 OFFCURVE",
"190 607 CURVE SMOOTH",
"304 607 LINE SMOOTH",
"324 607 OFFCURVE",
"340 591 OFFCURVE",
"340 571 CURVE SMOOTH",
"340 129 LINE SMOOTH",
"340 109 OFFCURVE",
"324 93 OFFCURVE",
"304 93 CURVE SMOOTH",
"190 93 LINE SMOOTH"
);
},
{
closed = 1;
nodes = (
"216 741 LINE",
"247 774 LINE",
"279 741 LINE",
"376 741 LINE",
"296 824 LINE",
"199 824 LINE",
"119 741 LINE"
);
}
);
width = 495;
}
);
unicode = 00D4;
},
{
glyphname = Odieresis;
layers = (
{
layerId = "53C92641-43F1-46DD-9425-0FDC2985AE5D";
paths = (
{
closed = 1;
nodes = (
"361 0 LINE SMOOTH",
"401 0 OFFCURVE",
"433 32 OFFCURVE",
"433 72 CURVE SMOOTH",
"433 628 LINE SMOOTH",
"433 666 OFFCURVE",
"401 700 OFFCURVE",
"361 700 CURVE SMOOTH",
"134 700 LINE SMOOTH",
"94 700 OFFCURVE",
"62 666 OFFCURVE",
"62 628 CURVE SMOOTH",
"62 72 LINE SMOOTH",
"62 32 OFFCURVE",
"94 0 OFFCURVE",
"134 0 CURVE SMOOTH"
);
},
{
closed = 1;
nodes = (
"170 93 OFFCURVE",
"155 110 OFFCURVE",
"155 129 CURVE SMOOTH",
"155 571 LINE SMOOTH",
"155 590 OFFCURVE",
"170 607 OFFCURVE",
"191 607 CURVE SMOOTH",
"304 607 LINE SMOOTH",
"323 607 OFFCURVE",
"340 590 OFFCURVE",
"340 571 CURVE SMOOTH",
"340 129 LINE SMOOTH",
"340 110 OFFCURVE",
"323 93 OFFCURVE",
"304 93 CURVE SMOOTH",
"191 93 LINE SMOOTH"
);
},
{
closed = 1;
nodes = (
"199 761 LINE",
"199 854 LINE",
"106 833 LINE",
"106 740 LINE"
);
},
{
closed = 1;
nodes = (
"389 833 LINE",
"296 854 LINE",
"296 761 LINE",
"389 740 LINE"
);
}
);
width = 495;
}
);
unicode = 00D6;
},
{
glyphname = Ograve;
layers = (
{
layerId = "53C92641-43F1-46DD-9425-0FDC2985AE5D";
paths = (
{
closed = 1;
nodes = (
"362 0 LINE SMOOTH",
"402 0 OFFCURVE",
"434 32 OFFCURVE",
"434 72 CURVE SMOOTH",
"434 628 LINE SMOOTH",
"434 668 OFFCURVE",
"402 700 OFFCURVE",
"362 700 CURVE SMOOTH",
"134 700 LINE SMOOTH",
"95 700 OFFCURVE",
"62 668 OFFCURVE",
"62 628 CURVE SMOOTH",
"62 72 LINE SMOOTH",
"62 32 OFFCURVE",
"95 0 OFFCURVE",
"134 0 CURVE SMOOTH"
);
},
{
closed = 1;
nodes = (
"171 93 OFFCURVE",
"155 109 OFFCURVE",
"155 129 CURVE SMOOTH",
"155 571 LINE SMOOTH",
"155 591 OFFCURVE",
"171 607 OFFCURVE",
"191 607 CURVE SMOOTH",
"305 607 LINE SMOOTH",
"325 607 OFFCURVE",
"341 591 OFFCURVE",
"341 571 CURVE SMOOTH",
"341 129 LINE SMOOTH",
"341 109 OFFCURVE",
"325 93 OFFCURVE",
"305 93 CURVE SMOOTH",
"191 93 LINE SMOOTH"
);
},
{
closed = 1;
nodes = (
"295 741 LINE",
"215 825 LINE",
"118 825 LINE",
"199 741 LINE"
);
}
);
width = 496;
}
);
unicode = 00D2;
},
{
glyphname = Oslash;
layers = (
{
layerId = "53C92641-43F1-46DD-9425-0FDC2985AE5D";
paths = (
{
closed = 1;
nodes = (
"154 -42 LINE",
"169 0 LINE",
"361 0 LINE SMOOTH",
"401 0 OFFCURVE",
"433 32 OFFCURVE",
"433 72 CURVE SMOOTH",
"433 628 LINE SMOOTH",
"433 647 OFFCURVE",
"424 666 OFFCURVE",
"412 679 CURVE",
"433 740 LINE",
"340 740 LINE",
"325 700 LINE",
"133 700 LINE SMOOTH",
"95 700 OFFCURVE",
"62 666 OFFCURVE",
"62 628 CURVE SMOOTH",
"62 72 LINE SMOOTH",
"62 51 OFFCURVE",
"70 34 OFFCURVE",
"85 21 CURVE",
"62 -42 LINE"
);
},
{
closed = 1;
nodes = (
"340 481 LINE",
"340 129 LINE SMOOTH",
"340 110 OFFCURVE",
"325 93 OFFCURVE",
"304 93 CURVE SMOOTH",
"203 93 LINE"
);
},
{
closed = 1;
nodes = (
"154 571 LINE SMOOTH",
"154 590 OFFCURVE",
"171 607 OFFCURVE",
"190 607 CURVE SMOOTH",
"293 607 LINE",
"154 219 LINE"
);
}
);
width = 495;
}
);
unicode = 00D8;
},
{
glyphname = Otilde;
layers = (
{
layerId = "53C92641-43F1-46DD-9425-0FDC2985AE5D";
paths = (
{
closed = 1;
nodes = (
"362 0 LINE SMOOTH",
"402 0 OFFCURVE",
"434 32 OFFCURVE",
"434 72 CURVE SMOOTH",
"434 629 LINE SMOOTH",
"434 668 OFFCURVE",
"402 700 OFFCURVE",
"362 700 CURVE SMOOTH",
"134 700 LINE SMOOTH",
"94 700 OFFCURVE",
"62 668 OFFCURVE",
"62 629 CURVE SMOOTH",
"62 72 LINE SMOOTH",
"62 32 OFFCURVE",
"94 0 OFFCURVE",
"134 0 CURVE SMOOTH"
);
},
{
closed = 1;
nodes = (
"171 93 OFFCURVE",
"155 109 OFFCURVE",
"155 129 CURVE SMOOTH",
"155 572 LINE SMOOTH",
"155 592 OFFCURVE",
"171 608 OFFCURVE",
"191 608 CURVE SMOOTH",
"305 608 LINE SMOOTH",
"325 608 OFFCURVE",
"341 592 OFFCURVE",
"341 572 CURVE SMOOTH",
"341 129 LINE SMOOTH",
"341 109 OFFCURVE",
"325 93 OFFCURVE",
"305 93 CURVE SMOOTH",
"191 93 LINE SMOOTH"
);
},
{
closed = 1;
nodes = (
"176 742 LINE",
"208 775 LINE",
"239 742 LINE",
"337 742 LINE",
"417 825 LINE",
"320 825 LINE",
"288 792 LINE",
"256 825 LINE",
"159 825 LINE",
"79 742 LINE"
);
}
);
width = 496;
}
);
unicode = 00D5;
},
{
glyphname = OE;
layers = (
{
layerId = "53C92641-43F1-46DD-9425-0FDC2985AE5D";
paths = (
{
closed = 1;
nodes = (
"711 0 LINE",
"711 93 LINE",
"433 93 LINE",
"433 341 LINE",
"597 341 LINE",
"618 434 LINE",
"433 434 LINE",
"433 607 LINE",
"711 607 LINE",
"711 700 LINE",
"133 700 LINE SMOOTH",
"94 700 OFFCURVE",
"62 668 OFFCURVE",
"62 628 CURVE SMOOTH",
"62 72 LINE SMOOTH",
"62 32 OFFCURVE",
"94 0 OFFCURVE",
"133 0 CURVE SMOOTH"
);
},
{
closed = 1;
nodes = (
"170 93 OFFCURVE",
"154 109 OFFCURVE",
"154 129 CURVE SMOOTH",
"154 571 LINE SMOOTH",
"154 591 OFFCURVE",
"170 607 OFFCURVE",
"190 607 CURVE SMOOTH",
"304 607 LINE SMOOTH",
"324 607 OFFCURVE",
"340 591 OFFCURVE",
"340 571 CURVE SMOOTH",
"340 129 LINE SMOOTH",
"340 109 OFFCURVE",
"324 93 OFFCURVE",
"304 93 CURVE SMOOTH",
"190 93 LINE SMOOTH"
);
}
);
width = 773;
}
);
unicode = 0152;
},
{
glyphname = P;
layers = (
{
layerId = "53C92641-43F1-46DD-9425-0FDC2985AE5D";
paths = (
{
closed = 1;
nodes = (
"155 0 LINE",
"155 341 LINE",
"362 341 LINE SMOOTH",
"401 341 OFFCURVE",
"434 373 OFFCURVE",
"434 413 CURVE SMOOTH",
"434 628 LINE SMOOTH",
"434 668 OFFCURVE",
"401 700 OFFCURVE",
"362 700 CURVE SMOOTH",
"62 700 LINE",
"62 0 LINE"
);
},
{
closed = 1;
nodes = (
"155 607 LINE",
"305 607 LINE SMOOTH",
"325 607 OFFCURVE",
"341 591 OFFCURVE",
"341 572 CURVE SMOOTH",
"341 470 LINE SMOOTH",
"341 450 OFFCURVE",
"325 434 OFFCURVE",
"305 434 CURVE SMOOTH",
"155 434 LINE"
);
}
);
width = 496;
}
);
unicode = 0050;
},
{
glyphname = Thorn;
layers = (
{
layerId = "53C92641-43F1-46DD-9425-0FDC2985AE5D";
paths = (
{
closed = 1;
nodes = (
"155 0 LINE",
"155 171 LINE",
"359 171 LINE SMOOTH",
"399 171 OFFCURVE",
"431 202 OFFCURVE",
"431 242 CURVE SMOOTH",
"431 457 LINE SMOOTH",
"431 497 OFFCURVE",
"399 529 OFFCURVE",
"359 529 CURVE SMOOTH",
"155 529 LINE",
"155 700 LINE",
"62 700 LINE",
"62 0 LINE"
);
},
{
closed = 1;
nodes = (
"155 436 LINE",
"302 436 LINE SMOOTH",
"321 436 OFFCURVE",
"338 419 OFFCURVE",
"338 400 CURVE SMOOTH",
"338 299 LINE SMOOTH",
"338 278 OFFCURVE",
"321 263 OFFCURVE",
"302 263 CURVE SMOOTH",
"155 263 LINE"
);
}
);
width = 493;
}
);
unicode = 00DE;
},
{
glyphname = Q;
layers = (
{
layerId = "53C92641-43F1-46DD-9425-0FDC2985AE5D";
paths = (
{
closed = 1;
nodes = (
"367 -49 LINE",
"347 0 LINE",
"362 0 LINE SMOOTH",
"402 0 OFFCURVE",
"434 32 OFFCURVE",
"434 72 CURVE SMOOTH",
"434 630 LINE SMOOTH",
"434 668 OFFCURVE",
"402 700 OFFCURVE",
"362 700 CURVE SMOOTH",
"134 700 LINE SMOOTH",
"94 700 OFFCURVE",
"62 668 OFFCURVE",
"62 630 CURVE SMOOTH",
"62 72 LINE SMOOTH",
"62 32 OFFCURVE",
"94 0 OFFCURVE",
"134 0 CURVE SMOOTH",
"254 0 LINE",
"274 -49 LINE"
);
},
{
closed = 1;
nodes = (
"171 93 OFFCURVE",
"156 109 OFFCURVE",
"156 129 CURVE SMOOTH",
"156 573 LINE SMOOTH",
"156 591 OFFCURVE",
"171 608 OFFCURVE",
"192 608 CURVE SMOOTH",
"304 608 LINE SMOOTH",
"325 608 OFFCURVE",
"340 591 OFFCURVE",
"340 573 CURVE SMOOTH",
"340 129 LINE SMOOTH",
"340 111 OFFCURVE",
"326 96 OFFCURVE",
"310 93 CURVE",
"287 153 LINE",
"193 153 LINE",
"216 93 LINE",
"192 93 LINE SMOOTH"
);
}
);
width = 496;
}
);
unicode = 0051;
},
{
glyphname = R;
layers = (
{
layerId = "53C92641-43F1-46DD-9425-0FDC2985AE5D";
paths = (
{
closed = 1;
nodes = (
"153 0 LINE",
"153 341 LINE",
"246 341 LINE",
"339 0 LINE",
"431 0 LINE",
"339 341 LINE",
"360 341 LINE SMOOTH",
"399 341 OFFCURVE",
"431 373 OFFCURVE",
"431 413 CURVE SMOOTH",
"431 628 LINE SMOOTH",
"431 668 OFFCURVE",
"399 700 OFFCURVE",
"360 700 CURVE SMOOTH",
"60 700 LINE",
"60 0 LINE"
);
},
{
closed = 1;
nodes = (
"153 607 LINE",
"303 607 LINE SMOOTH",
"322 607 OFFCURVE",
"339 591 OFFCURVE",
"339 571 CURVE SMOOTH",
"339 470 LINE SMOOTH",
"339 450 OFFCURVE",
"322 434 OFFCURVE",
"303 434 CURVE SMOOTH",
"153 434 LINE"
);
}
);
width = 491;
}
);
unicode = 0052;
},
{
glyphname = S;
layers = (
{
layerId = "53C92641-43F1-46DD-9425-0FDC2985AE5D";
paths = (
{
closed = 1;
nodes = (
"359 0 LINE SMOOTH",
"399 0 OFFCURVE",
"431 32 OFFCURVE",
"431 72 CURVE SMOOTH",
"431 362 LINE SMOOTH",
"431 402 OFFCURVE",
"399 434 OFFCURVE",
"359 434 CURVE SMOOTH",
"188 434 LINE SMOOTH",
"169 434 OFFCURVE",
"153 450 OFFCURVE",
"153 470 CURVE SMOOTH",
"153 571 LINE SMOOTH",
"153 591 OFFCURVE",
"169 607 OFFCURVE",
"188 607 CURVE SMOOTH",
"302 607 LINE SMOOTH",
"322 607 OFFCURVE",
"338 591 OFFCURVE",
"338 571 CURVE SMOOTH",
"338 542 LINE",
"431 520 LINE",
"431 628 LINE SMOOTH",
"431 668 OFFCURVE",
"399 700 OFFCURVE",
"359 700 CURVE SMOOTH",
"132 700 LINE SMOOTH",
"92 700 OFFCURVE",
"60 668 OFFCURVE",
"60 628 CURVE SMOOTH",
"60 413 LINE SMOOTH",
"60 373 OFFCURVE",
"92 341 OFFCURVE",
"132 341 CURVE SMOOTH",
"302 341 LINE SMOOTH",
"322 341 OFFCURVE",
"338 325 OFFCURVE",
"338 305 CURVE SMOOTH",
"338 129 LINE SMOOTH",
"338 109 OFFCURVE",
"322 93 OFFCURVE",
"302 93 CURVE SMOOTH",
"188 93 LINE SMOOTH",
"169 93 OFFCURVE",
"153 109 OFFCURVE",
"153 129 CURVE SMOOTH",
"153 206 LINE",
"60 227 LINE",
"60 72 LINE SMOOTH",
"60 32 OFFCURVE",
"92 0 OFFCURVE",
"132 0 CURVE SMOOTH"
);
}
);
width = 491;
}
);
unicode = 0053;
},
{
glyphname = T;
layers = (
{
layerId = "53C92641-43F1-46DD-9425-0FDC2985AE5D";
paths = (
{
closed = 1;
nodes = (
"290 0 LINE",
"290 607 LINE",
"429 607 LINE",
"429 700 LINE",
"58 700 LINE",
"58 607 LINE",
"197 607 LINE",
"197 0 LINE"
);
}
);
width = 487;
}
);
unicode = 0054;
},
{
glyphname = U;
layers = (
{
layerId = "53C92641-43F1-46DD-9425-0FDC2985AE5D";
paths = (
{
closed = 1;
nodes = (
"361 0 LINE SMOOTH",
"401 0 OFFCURVE",
"433 32 OFFCURVE",
"433 72 CURVE SMOOTH",
"433 700 LINE",
"340 700 LINE",
"340 128 LINE SMOOTH",
"340 109 OFFCURVE",
"324 93 OFFCURVE",
"304 93 CURVE SMOOTH",
"191 93 LINE SMOOTH",
"171 93 OFFCURVE",
"155 109 OFFCURVE",
"155 128 CURVE SMOOTH",
"155 700 LINE",
"62 700 LINE",
"62 72 LINE SMOOTH",
"62 32 OFFCURVE",
"94 0 OFFCURVE",
"134 0 CURVE SMOOTH"
);
}
);
width = 495;
}
);
unicode = 0055;
},
{
glyphname = Uacute;
layers = (
{
layerId = "53C92641-43F1-46DD-9425-0FDC2985AE5D";
paths = (
{
closed = 1;
nodes = (
"361 0 LINE SMOOTH",
"401 0 OFFCURVE",
"433 32 OFFCURVE",
"433 72 CURVE SMOOTH",
"433 700 LINE",
"340 700 LINE",
"340 129 LINE SMOOTH",
"340 109 OFFCURVE",
"324 93 OFFCURVE",
"304 93 CURVE SMOOTH",
"190 93 LINE SMOOTH",
"171 93 OFFCURVE",
"155 109 OFFCURVE",
"155 129 CURVE SMOOTH",
"155 700 LINE",
"62 700 LINE",
"62 72 LINE SMOOTH",
"62 32 OFFCURVE",
"94 0 OFFCURVE",
"134 0 CURVE SMOOTH"
);
},
{
closed = 1;
nodes = (
"293 741 LINE",
"374 825 LINE",
"277 825 LINE",
"196 741 LINE"
);
}
);
width = 495;
}
);
unicode = 00DA;
},
{
glyphname = Ucircumflex;
layers = (
{
layerId = "53C92641-43F1-46DD-9425-0FDC2985AE5D";
paths = (
{
closed = 1;
nodes = (
"362 0 LINE SMOOTH",
"401 0 OFFCURVE",
"434 32 OFFCURVE",
"434 72 CURVE SMOOTH",
"434 700 LINE",
"341 700 LINE",
"341 128 LINE SMOOTH",
"341 109 OFFCURVE",
"325 93 OFFCURVE",
"305 93 CURVE SMOOTH",
"191 93 LINE SMOOTH",
"171 93 OFFCURVE",
"155 109 OFFCURVE",
"155 128 CURVE SMOOTH",
"155 700 LINE",
"62 700 LINE",
"62 72 LINE SMOOTH",
"62 32 OFFCURVE",
"94 0 OFFCURVE",
"134 0 CURVE SMOOTH"
);
},
{
closed = 1;
nodes = (
"216 741 LINE",
"248 774 LINE",
"280 741 LINE",
"377 741 LINE",
"296 824 LINE",
"199 824 LINE",
"119 741 LINE"
);
}
);
width = 496;
}
);
unicode = 00DB;
},
{
glyphname = Udieresis;
layers = (
{
layerId = "53C92641-43F1-46DD-9425-0FDC2985AE5D";
paths = (
{
closed = 1;
nodes = (
"361 0 LINE SMOOTH",
"401 0 OFFCURVE",
"433 32 OFFCURVE",
"433 72 CURVE SMOOTH",
"433 700 LINE",
"340 700 LINE",
"340 128 LINE SMOOTH",
"340 109 OFFCURVE",
"324 93 OFFCURVE",
"304 93 CURVE SMOOTH",
"191 93 LINE SMOOTH",
"171 93 OFFCURVE",
"155 109 OFFCURVE",
"155 128 CURVE SMOOTH",
"155 700 LINE",
"62 700 LINE",
"62 72 LINE SMOOTH",
"62 32 OFFCURVE",
"94 0 OFFCURVE",
"134 0 CURVE SMOOTH"
);
},
{
closed = 1;
nodes = (
"199 762 LINE",
"199 855 LINE",
"106 834 LINE",
"106 741 LINE"
);
},
{
closed = 1;
nodes = (
"389 834 LINE",
"296 855 LINE",
"296 762 LINE",
"389 741 LINE"
);
}
);
width = 495;
}
);
unicode = 00DC;
},
{
glyphname = Ugrave;
layers = (
{
layerId = "53C92641-43F1-46DD-9425-0FDC2985AE5D";
paths = (
{
closed = 1;
nodes = (
"362 0 LINE SMOOTH",
"401 0 OFFCURVE",
"434 32 OFFCURVE",
"434 72 CURVE SMOOTH",
"434 700 LINE",
"341 700 LINE",
"341 128 LINE SMOOTH",
"341 109 OFFCURVE",
"325 93 OFFCURVE",
"305 93 CURVE SMOOTH",
"191 93 LINE SMOOTH",
"171 93 OFFCURVE",
"155 109 OFFCURVE",
"155 128 CURVE SMOOTH",
"155 700 LINE",
"62 700 LINE",
"62 72 LINE SMOOTH",
"62 32 OFFCURVE",
"94 0 OFFCURVE",
"134 0 CURVE SMOOTH"
);
},
{
closed = 1;
nodes = (
"296 741 LINE",
"216 824 LINE",
"119 824 LINE",
"199 741 LINE"
);
}
);
width = 496;
}
);
unicode = 00D9;
},
{
glyphname = V;
layers = (
{
layerId = "53C92641-43F1-46DD-9425-0FDC2985AE5D";
paths = (
{
closed = 1;
nodes = (
"296 0 LINE",
"434 700 LINE",
"341 700 LINE",
"248 227 LINE",
"155 700 LINE",
"62 700 LINE",
"199 0 LINE"
);
}
);
width = 486;
}
);
unicode = 0056;
},
{
glyphname = W;
layers = (
{
layerId = "53C92641-43F1-46DD-9425-0FDC2985AE5D";
paths = (
{
closed = 1;
nodes = (
"286 0 LINE",
"377 464 LINE",
"468 0 LINE",
"565 0 LINE",
"702 700 LINE",
"609 700 LINE",
"516 227 LINE",
"424 700 LINE",
"331 700 LINE",
"238 227 LINE",
"145 700 LINE",
"52 700 LINE",
"189 0 LINE"
);
}
);
width = 754;
}
);
unicode = 0057;
},
{
glyphname = Wacute;
layers = (
{
layerId = "53C92641-43F1-46DD-9425-0FDC2985AE5D";
paths = (
{
closed = 1;
nodes = (
"297 0 LINE",
"388 464 LINE",
"479 0 LINE",
"576 0 LINE",
"713 700 LINE",
"620 700 LINE",
"527 227 LINE",
"434 700 LINE",
"341 700 LINE",
"248 227 LINE",
"155 700 LINE",
"62 700 LINE",
"200 0 LINE"
);
},
{
closed = 1;
nodes = (
"436 742 LINE",
"516 825 LINE",
"419 825 LINE",
"339 742 LINE"
);
}
);
width = 775;
}
);
unicode = 1E82;
},
{
glyphname = Wcircumflex;
layers = (
{
layerId = "53C92641-43F1-46DD-9425-0FDC2985AE5D";
paths = (
{
closed = 1;
nodes = (
"296 0 LINE",
"387 463 LINE",
"478 0 LINE",
"575 0 LINE",
"712 700 LINE",
"619 700 LINE",
"527 226 LINE",
"434 700 LINE",
"341 700 LINE",
"248 226 LINE",
"155 700 LINE",
"62 700 LINE",
"200 0 LINE"
);
},
{
closed = 1;
nodes = (
"355 741 LINE",
"387 774 LINE",
"419 741 LINE",
"516 741 LINE",
"436 824 LINE",
"339 824 LINE",
"259 741 LINE"
);
}
);
width = 774;
}
);
unicode = 0174;
},
{
glyphname = Wdieresis;
layers = (
{
layerId = "53C92641-43F1-46DD-9425-0FDC2985AE5D";
paths = (
{
closed = 1;
nodes = (
"296 0 LINE",
"387 463 LINE",
"477 0 LINE",
"574 0 LINE",
"711 700 LINE",
"619 700 LINE",
"526 226 LINE",
"433 700 LINE",
"340 700 LINE",
"247 226 LINE",
"155 700 LINE",
"62 700 LINE",
"199 0 LINE"
);
},
{
closed = 1;
nodes = (
"338 762 LINE",
"338 855 LINE",
"245 834 LINE",
"245 741 LINE"
);
},
{
closed = 1;
nodes = (
"528 834 LINE",
"435 855 LINE",
"435 762 LINE",
"528 741 LINE"
);
}
);
width = 773;
}
);
unicode = 1E84;
},
{
glyphname = Wgrave;
layers = (
{
layerId = "53C92641-43F1-46DD-9425-0FDC2985AE5D";
paths = (
{
closed = 1;
nodes = (
"296 0 LINE",
"387 463 LINE",
"478 0 LINE",
"575 0 LINE",
"712 700 LINE",
"619 700 LINE",
"526 226 LINE",
"434 700 LINE",
"341 700 LINE",
"248 226 LINE",
"155 700 LINE",
"62 700 LINE",
"199 0 LINE"
);
},
{
closed = 1;
nodes = (
"435 741 LINE",
"355 825 LINE",
"258 825 LINE",
"338 741 LINE"
);
}
);
width = 774;
}
);
unicode = 1E80;
},
{
glyphname = X;
layers = (
{
layerId = "53C92641-43F1-46DD-9425-0FDC2985AE5D";
paths = (
{
closed = 1;
nodes = (
"148 0 LINE",
"241 233 LINE",
"334 0 LINE",
"426 0 LINE",
"287 350 LINE",
"426 700 LINE",
"334 700 LINE",
"241 467 LINE",
"148 700 LINE",
"55 700 LINE",
"194 350 LINE",
"55 0 LINE"
);
}
);
width = 481;
}
);
unicode = 0058;
},
{
glyphname = Y;
layers = (
{
layerId = "53C92641-43F1-46DD-9425-0FDC2985AE5D";
paths = (
{
closed = 1;
nodes = (
"292 0 LINE",
"292 340 LINE",
"429 700 LINE",
"336 700 LINE",
"246 461 LINE",
"155 700 LINE",
"62 700 LINE",
"199 340 LINE",
"199 0 LINE"
);
}
);
width = 491;
}
);
unicode = 0059;
},
{
glyphname = Yacute;
layers = (
{
layerId = "53C92641-43F1-46DD-9425-0FDC2985AE5D";
paths = (
{
closed = 1;
nodes = (
"292 0 LINE",
"292 340 LINE",
"429 700 LINE",
"336 700 LINE",
"246 462 LINE",
"155 700 LINE",
"62 700 LINE",
"199 340 LINE",
"199 0 LINE"
);
},
{
closed = 1;
nodes = (
"291 744 LINE",
"371 827 LINE",
"274 827 LINE",
"194 744 LINE"
);
}
);
width = 491;
}
);
unicode = 00DD;
},
{
glyphname = Ycircumflex;
layers = (
{
layerId = "53C92641-43F1-46DD-9425-0FDC2985AE5D";
paths = (
{
closed = 1;
nodes = (
"292 0 LINE",
"292 340 LINE",
"429 700 LINE",
"337 700 LINE",
"246 462 LINE",
"155 700 LINE",
"62 700 LINE",
"199 340 LINE",
"199 0 LINE"
);
},
{
closed = 1;
nodes = (
"214 744 LINE",
"246 777 LINE",
"277 744 LINE",
"374 744 LINE",
"294 827 LINE",
"197 827 LINE",
"117 744 LINE"
);
}
);
width = 491;
}
);
unicode = 0176;
},
{
glyphname = Ydieresis;
layers = (
{
layerId = "53C92641-43F1-46DD-9425-0FDC2985AE5D";
paths = (
{
closed = 1;
nodes = (
"292 0 LINE",
"292 340 LINE",
"429 700 LINE",
"336 700 LINE",
"245 462 LINE",
"155 700 LINE",
"62 700 LINE",
"199 340 LINE",
"199 0 LINE"
);
},
{
closed = 1;
nodes = (
"197 766 LINE",
"197 858 LINE",
"104 837 LINE",
"104 744 LINE"
);
},
{
closed = 1;
nodes = (
"387 837 LINE",
"294 858 LINE",
"294 766 LINE",
"387 744 LINE"
);
}
);
width = 491;
}
);
unicode = 0178;
},
{
glyphname = Ygrave;
layers = (
{
layerId = "53C92641-43F1-46DD-9425-0FDC2985AE5D";
paths = (
{
closed = 1;
nodes = (
"292 0 LINE",
"292 340 LINE",
"429 700 LINE",
"336 700 LINE",
"245 462 LINE",
"154 700 LINE",
"62 700 LINE",
"199 340 LINE",
"199 0 LINE"
);
},
{
closed = 1;
nodes = (
"298 744 LINE",
"218 827 LINE",
"121 827 LINE",
"201 744 LINE"
);
}
);
width = 491;
}
);
unicode = 1EF2;
},
{
glyphname = Z;
layers = (
{
layerId = "53C92641-43F1-46DD-9425-0FDC2985AE5D";
paths = (
{
closed = 1;
nodes = (
"433 0 LINE",
"433 93 LINE",
"191 93 LINE",
"290 341 LINE",
"345 341 LINE",
"381 434 LINE",
"327 434 LINE",
"433 700 LINE",
"62 700 LINE",
"62 607 LINE",
"303 607 LINE",
"234 434 LINE",
"181 434 LINE",
"144 341 LINE",
"197 341 LINE",
"62 0 LINE"
);
}
);
width = 495;
}
);
unicode = 005A;
},
{
glyphname = a;
layers = (
{
layerId = "53C92641-43F1-46DD-9425-0FDC2985AE5D";
paths = (
{
closed = 1;
nodes = (
"322 0 LINE",
"322 427 LINE SMOOTH",
"322 467 OFFCURVE",
"289 500 OFFCURVE",
"249 500 CURVE SMOOTH",
"104 500 LINE",
"83 406 LINE",
"191 406 LINE SMOOTH",
"212 406 OFFCURVE",
"228 390 OFFCURVE",
"228 370 CURVE SMOOTH",
"228 333 LINE SMOOTH",
"228 313 OFFCURVE",
"212 297 OFFCURVE",
"191 297 CURVE SMOOTH",
"113 297 LINE SMOOTH",
"73 297 OFFCURVE",
"40 264 OFFCURVE",
"40 224 CURVE SMOOTH",
"40 73 LINE SMOOTH",
"40 32 OFFCURVE",
"73 0 OFFCURVE",
"113 0 CURVE SMOOTH"
);
},
{
closed = 1;
nodes = (
"150 94 OFFCURVE",
"134 110 OFFCURVE",
"134 130 CURVE SMOOTH",
"134 167 LINE SMOOTH",
"134 187 OFFCURVE",
"150 203 OFFCURVE",
"170 203 CURVE SMOOTH",
"228 203 LINE",
"228 94 LINE",
"170 94 LINE SMOOTH"
);
}
);
width = 362;
}
);
unicode = 0061;
},
{
glyphname = aacute;
layers = (
{
layerId = "53C92641-43F1-46DD-9425-0FDC2985AE5D";
paths = (
{
closed = 1;
nodes = (
"321 0 LINE",
"321 428 LINE SMOOTH",
"321 468 OFFCURVE",
"289 500 OFFCURVE",
"249 500 CURVE SMOOTH",
"104 500 LINE",
"82 406 LINE",
"191 406 LINE SMOOTH",
"211 406 OFFCURVE",
"228 390 OFFCURVE",
"228 370 CURVE SMOOTH",
"228 333 LINE SMOOTH",
"228 313 OFFCURVE",
"211 297 OFFCURVE",
"191 297 CURVE SMOOTH",
"112 297 LINE SMOOTH",
"72 297 OFFCURVE",
"40 265 OFFCURVE",
"40 224 CURVE SMOOTH",
"40 73 LINE SMOOTH",
"40 33 OFFCURVE",
"72 0 OFFCURVE",
"112 0 CURVE SMOOTH"
);
},
{
closed = 1;
nodes = (
"150 94 OFFCURVE",
"134 110 OFFCURVE",
"134 130 CURVE SMOOTH",
"134 167 LINE SMOOTH",
"134 187 OFFCURVE",
"150 203 OFFCURVE",
"170 203 CURVE SMOOTH",
"228 203 LINE",
"228 94 LINE",
"170 94 LINE SMOOTH"
);
},
{
closed = 1;
nodes = (
"227 542 LINE",
"308 626 LINE",
"210 626 LINE",
"129 542 LINE"
);
}
);
width = 370;
}
);
unicode = 00E1;
},
{
glyphname = acircumflex;
layers = (
{
layerId = "53C92641-43F1-46DD-9425-0FDC2985AE5D";
paths = (
{
closed = 1;
nodes = (
"322 0 LINE",
"322 427 LINE SMOOTH",
"322 468 OFFCURVE",
"289 500 OFFCURVE",
"249 500 CURVE SMOOTH",
"104 500 LINE",
"83 406 LINE",
"192 406 LINE SMOOTH",
"212 406 OFFCURVE",
"228 390 OFFCURVE",
"228 370 CURVE SMOOTH",
"228 333 LINE SMOOTH",
"228 313 OFFCURVE",
"212 297 OFFCURVE",
"192 297 CURVE SMOOTH",
"113 297 LINE SMOOTH",
"73 297 OFFCURVE",
"40 264 OFFCURVE",
"40 224 CURVE SMOOTH",
"40 73 LINE SMOOTH",
"40 33 OFFCURVE",
"73 0 OFFCURVE",
"113 0 CURVE SMOOTH"
);
},
{
closed = 1;
nodes = (
"150 94 OFFCURVE",
"134 110 OFFCURVE",
"134 130 CURVE SMOOTH",
"134 167 LINE SMOOTH",
"134 187 OFFCURVE",
"150 203 OFFCURVE",
"171 203 CURVE SMOOTH",
"228 203 LINE",
"228 94 LINE",
"171 94 LINE SMOOTH"
);
},
{
closed = 1;
nodes = (
"149 542 LINE",
"181 575 LINE",
"213 542 LINE",
"311 542 LINE",
"230 626 LINE",
"132 626 LINE",
"51 542 LINE"
);
}
);
width = 362;
}
);
unicode = 00E2;
},
{
glyphname = adieresis;
layers = (
{
layerId = "53C92641-43F1-46DD-9425-0FDC2985AE5D";
paths = (
{
closed = 1;
nodes = (
"323 0 LINE",
"323 427 LINE SMOOTH",
"323 468 OFFCURVE",
"291 500 OFFCURVE",
"251 500 CURVE SMOOTH",
"106 500 LINE",
"84 406 LINE",
"193 406 LINE SMOOTH",
"213 406 OFFCURVE",
"229 390 OFFCURVE",
"229 370 CURVE SMOOTH",
"229 333 LINE SMOOTH",
"229 313 OFFCURVE",
"213 297 OFFCURVE",
"193 297 CURVE SMOOTH",
"114 297 LINE SMOOTH",
"74 297 OFFCURVE",
"42 264 OFFCURVE",
"42 224 CURVE SMOOTH",
"42 73 LINE SMOOTH",
"42 33 OFFCURVE",
"74 0 OFFCURVE",
"114 0 CURVE SMOOTH"
);
},
{
closed = 1;
nodes = (
"152 94 OFFCURVE",
"136 110 OFFCURVE",
"136 130 CURVE SMOOTH",
"136 167 LINE SMOOTH",
"136 187 OFFCURVE",
"152 203 OFFCURVE",
"172 203 CURVE SMOOTH",
"229 203 LINE",
"229 94 LINE",
"172 94 LINE SMOOTH"
);
},
{
closed = 1;
nodes = (
"133 563 LINE",
"133 657 LINE",
"40 636 LINE",
"40 542 LINE"
);
},
{
closed = 1;
nodes = (
"325 636 LINE",
"232 657 LINE",
"232 563 LINE",
"325 542 LINE"
);
}
);
width = 365;
}
);
unicode = 00E4;
},
{
glyphname = agrave;
layers = (
{
layerId = "53C92641-43F1-46DD-9425-0FDC2985AE5D";
paths = (
{
closed = 1;
nodes = (
"322 0 LINE",
"322 427 LINE SMOOTH",
"322 467 OFFCURVE",
"289 500 OFFCURVE",
"249 500 CURVE SMOOTH",
"104 500 LINE",
"83 406 LINE",
"192 406 LINE SMOOTH",
"212 406 OFFCURVE",
"228 390 OFFCURVE",
"228 370 CURVE SMOOTH",
"228 333 LINE SMOOTH",
"228 313 OFFCURVE",
"212 297 OFFCURVE",
"192 297 CURVE SMOOTH",
"113 297 LINE SMOOTH",
"73 297 OFFCURVE",
"40 264 OFFCURVE",
"40 224 CURVE SMOOTH",
"40 73 LINE SMOOTH",
"40 32 OFFCURVE",
"73 0 OFFCURVE",
"113 0 CURVE SMOOTH"
);
},
{
closed = 1;
nodes = (
"150 94 OFFCURVE",
"134 110 OFFCURVE",
"134 130 CURVE SMOOTH",
"134 167 LINE SMOOTH",
"134 187 OFFCURVE",
"150 203 OFFCURVE",
"170 203 CURVE SMOOTH",
"228 203 LINE",
"228 94 LINE",
"170 94 LINE SMOOTH"
);
},
{
closed = 1;
nodes = (
"270 542 LINE",
"189 626 LINE",
"91 626 LINE",
"173 542 LINE"
);
}
);
width = 362;
}
);
unicode = 00E0;
},
{
glyphname = aring;
layers = (
{
layerId = "53C92641-43F1-46DD-9425-0FDC2985AE5D";
paths = (
{
closed = 1;
nodes = (
"322 0 LINE",
"322 428 LINE SMOOTH",
"322 468 OFFCURVE",
"289 500 OFFCURVE",
"249 500 CURVE SMOOTH",
"104 500 LINE",
"83 406 LINE",
"192 406 LINE SMOOTH",
"212 406 OFFCURVE",
"228 390 OFFCURVE",
"228 370 CURVE SMOOTH",
"228 333 LINE SMOOTH",
"228 313 OFFCURVE",
"212 297 OFFCURVE",
"192 297 CURVE SMOOTH",
"113 297 LINE SMOOTH",
"73 297 OFFCURVE",
"40 265 OFFCURVE",
"40 224 CURVE SMOOTH",
"40 73 LINE SMOOTH",
"40 33 OFFCURVE",
"73 0 OFFCURVE",
"113 0 CURVE SMOOTH"
);
},
{
closed = 1;
nodes = (
"150 94 OFFCURVE",
"134 110 OFFCURVE",
"134 130 CURVE SMOOTH",
"134 167 LINE SMOOTH",
"134 187 OFFCURVE",
"150 203 OFFCURVE",
"170 203 CURVE SMOOTH",
"228 203 LINE",
"228 94 LINE",
"170 94 LINE SMOOTH"
);
},
{
closed = 1;
nodes = (
"212 542 OFFCURVE",
"238 568 OFFCURVE",
"238 599 CURVE SMOOTH",
"238 630 OFFCURVE",
"212 656 OFFCURVE",
"181 656 CURVE SMOOTH",
"150 656 OFFCURVE",
"124 630 OFFCURVE",
"124 599 CURVE SMOOTH",
"124 568 OFFCURVE",
"150 542 OFFCURVE",
"181 542 CURVE SMOOTH"
);
},
{
closed = 1;
nodes = (
"167 573 OFFCURVE",
"155 585 OFFCURVE",
"155 599 CURVE SMOOTH",
"155 613 OFFCURVE",
"167 625 OFFCURVE",
"181 625 CURVE SMOOTH",
"195 625 OFFCURVE",
"207 613 OFFCURVE",
"207 599 CURVE SMOOTH",
"207 585 OFFCURVE",
"195 573 OFFCURVE",
"181 573 CURVE SMOOTH"
);
}
);
width = 362;
}
);
unicode = 00E5;
},
{
glyphname = atilde;
layers = (
{
layerId = "53C92641-43F1-46DD-9425-0FDC2985AE5D";
paths = (
{
closed = 1;
nodes = (
"339 0 LINE",
"339 428 LINE SMOOTH",
"339 468 OFFCURVE",
"307 500 OFFCURVE",
"266 500 CURVE SMOOTH",
"121 500 LINE",
"100 406 LINE",
"209 406 LINE SMOOTH",
"229 406 OFFCURVE",
"245 390 OFFCURVE",
"245 370 CURVE SMOOTH",
"245 333 LINE SMOOTH",
"245 313 OFFCURVE",
"229 297 OFFCURVE",
"209 297 CURVE SMOOTH",
"130 297 LINE SMOOTH",
"90 297 OFFCURVE",
"57 265 OFFCURVE",
"57 224 CURVE SMOOTH",
"57 73 LINE SMOOTH",
"57 33 OFFCURVE",
"90 0 OFFCURVE",
"130 0 CURVE SMOOTH"
);
},
{
closed = 1;
nodes = (
"167 94 OFFCURVE",
"151 110 OFFCURVE",
"151 130 CURVE SMOOTH",
"151 167 LINE SMOOTH",
"151 187 OFFCURVE",
"167 203 OFFCURVE",
"188 203 CURVE SMOOTH",
"245 203 LINE",
"245 94 LINE",
"188 94 LINE SMOOTH"
);
},
{
closed = 1;
nodes = (
"138 544 LINE",
"170 578 LINE",
"202 544 LINE",
"301 544 LINE",
"382 628 LINE",
"284 628 LINE",
"252 595 LINE",
"219 628 LINE",
"121 628 LINE",
"40 544 LINE"
);
}
);
width = 422;
}
);
unicode = 00E3;
},
{
glyphname = ae;
layers = (
{
layerId = "53C92641-43F1-46DD-9425-0FDC2985AE5D";
paths = (
{
closed = 1;
nodes = (
"467 0 LINE",
"488 94 LINE",
"358 94 LINE SMOOTH",
"338 94 OFFCURVE",
"322 110 OFFCURVE",
"322 130 CURVE SMOOTH",
"322 203 LINE",
"437 203 LINE SMOOTH",
"477 203 OFFCURVE",
"509 236 OFFCURVE",
"509 276 CURVE SMOOTH",
"509 427 LINE SMOOTH",
"509 467 OFFCURVE",
"477 500 OFFCURVE",
"437 500 CURVE SMOOTH",
"104 500 LINE",
"83 406 LINE",
"191 406 LINE SMOOTH",
"211 406 OFFCURVE",
"228 390 OFFCURVE",
"228 370 CURVE SMOOTH",
"228 333 LINE SMOOTH",
"228 313 OFFCURVE",
"211 297 OFFCURVE",
"191 297 CURVE SMOOTH",
"113 297 LINE SMOOTH",
"72 297 OFFCURVE",
"40 264 OFFCURVE",
"40 224 CURVE SMOOTH",
"40 73 LINE SMOOTH",
"40 33 OFFCURVE",
"72 0 OFFCURVE",
"113 0 CURVE SMOOTH"
);
},
{
closed = 1;
nodes = (
"150 94 OFFCURVE",
"134 110 OFFCURVE",
"134 130 CURVE SMOOTH",
"134 167 LINE SMOOTH",
"134 187 OFFCURVE",
"150 203 OFFCURVE",
"170 203 CURVE SMOOTH",
"228 203 LINE",
"228 94 LINE",
"170 94 LINE SMOOTH"
);
},
{
closed = 1;
nodes = (
"322 370 LINE SMOOTH",
"322 390 OFFCURVE",
"338 406 OFFCURVE",
"358 406 CURVE SMOOTH",
"379 406 LINE SMOOTH",
"399 406 OFFCURVE",
"416 390 OFFCURVE",
"416 370 CURVE SMOOTH",
"416 333 LINE SMOOTH",
"416 313 OFFCURVE",
"399 297 OFFCURVE",
"379 297 CURVE SMOOTH",
"322 297 LINE"
);
}
);
width = 549;
}
);
unicode = 00E6;
},
{
glyphname = b;
layers = (
{
layerId = "53C92641-43F1-46DD-9425-0FDC2985AE5D";
paths = (
{
closed = 1;
nodes = (
"249 0 LINE SMOOTH",
"289 0 OFFCURVE",
"322 33 OFFCURVE",
"322 73 CURVE SMOOTH",
"322 427 LINE SMOOTH",
"322 468 OFFCURVE",
"289 500 OFFCURVE",
"249 500 CURVE SMOOTH",
"134 500 LINE",
"134 750 LINE",
"40 729 LINE",
"40 0 LINE"
);
},
{
closed = 1;
nodes = (
"134 406 LINE",
"191 406 LINE SMOOTH",
"211 406 OFFCURVE",
"228 390 OFFCURVE",
"228 370 CURVE SMOOTH",
"228 130 LINE SMOOTH",
"228 110 OFFCURVE",
"211 94 OFFCURVE",
"191 94 CURVE SMOOTH",
"134 94 LINE"
);
}
);
width = 362;
}
);
unicode = 0062;
},
{
glyphname = c;
layers = (
{
layerId = "53C92641-43F1-46DD-9425-0FDC2985AE5D";
paths = (
{
closed = 1;
nodes = (
"249 0 LINE SMOOTH",
"289 0 OFFCURVE",
"322 33 OFFCURVE",
"322 73 CURVE SMOOTH",
"322 182 LINE",
"228 182 LINE",
"228 130 LINE SMOOTH",
"228 110 OFFCURVE",
"211 94 OFFCURVE",
"191 94 CURVE SMOOTH",
"170 94 LINE SMOOTH",
"150 94 OFFCURVE",
"134 110 OFFCURVE",
"134 130 CURVE SMOOTH",
"134 370 LINE SMOOTH",
"134 390 OFFCURVE",
"150 406 OFFCURVE",
"170 406 CURVE SMOOTH",
"191 406 LINE SMOOTH",
"211 406 OFFCURVE",
"228 390 OFFCURVE",
"228 370 CURVE SMOOTH",
"228 318 LINE",
"322 318 LINE",
"322 427 LINE SMOOTH",
"322 467 OFFCURVE",
"289 500 OFFCURVE",
"249 500 CURVE SMOOTH",
"113 500 LINE SMOOTH",
"72 500 OFFCURVE",
"40 467 OFFCURVE",
"40 427 CURVE SMOOTH",
"40 73 LINE SMOOTH",
"40 33 OFFCURVE",
"72 0 OFFCURVE",
"113 0 CURVE SMOOTH"
);
}
);
width = 362;
}
);
unicode = 0063;
},
{
glyphname = ccedilla;
layers = (
{
layerId = "53C92641-43F1-46DD-9425-0FDC2985AE5D";
paths = (
{
closed = 1;
nodes = (
"235 -224 OFFCURVE",
"284 -175 OFFCURVE",
"284 -118 CURVE SMOOTH",
"284 -73 OFFCURVE",
"256 -36 OFFCURVE",
"218 -19 CURVE",
"218 0 LINE",
"250 0 LINE SMOOTH",
"290 0 OFFCURVE",
"323 32 OFFCURVE",
"323 73 CURVE SMOOTH",
"323 182 LINE",
"229 182 LINE",
"229 130 LINE SMOOTH",
"229 111 OFFCURVE",
"214 94 OFFCURVE",
"192 94 CURVE SMOOTH",
"171 94 LINE SMOOTH",
"152 94 OFFCURVE",
"134 111 OFFCURVE",
"134 130 CURVE SMOOTH",
"134 370 LINE SMOOTH",
"134 391 OFFCURVE",
"152 406 OFFCURVE",
"171 406 CURVE SMOOTH",
"192 406 LINE SMOOTH",
"214 406 OFFCURVE",
"229 391 OFFCURVE",
"229 370 CURVE SMOOTH",
"229 318 LINE",
"323 318 LINE",
"323 427 LINE SMOOTH",
"323 468 OFFCURVE",
"290 500 OFFCURVE",
"250 500 CURVE SMOOTH",
"113 500 LINE SMOOTH",
"75 500 OFFCURVE",
"40 468 OFFCURVE",
"40 427 CURVE SMOOTH",
"40 73 LINE SMOOTH",
"40 32 OFFCURVE",
"75 0 OFFCURVE",
"113 0 CURVE SMOOTH",
"134 0 LINE",
"134 -94 LINE",
"177 -94 LINE SMOOTH",
"190 -94 OFFCURVE",
"201 -105 OFFCURVE",
"201 -118 CURVE SMOOTH",
"201 -130 OFFCURVE",
"190 -141 OFFCURVE",
"177 -141 CURVE SMOOTH",
"167 -141 OFFCURVE",
"160 -135 OFFCURVE",
"156 -128 CURVE",
"81 -165 LINE",
"98 -201 OFFCURVE",
"137 -224 OFFCURVE",
"177 -224 CURVE SMOOTH"
);
}
);
width = 363;
}
);
unicode = 00E7;
},
{
glyphname = d;
layers = (
{
layerId = "53C92641-43F1-46DD-9425-0FDC2985AE5D";
paths = (
{
closed = 1;
nodes = (
"322 0 LINE",
"322 750 LINE",
"228 728 LINE",
"228 500 LINE",
"113 500 LINE SMOOTH",
"72 500 OFFCURVE",
"40 468 OFFCURVE",
"40 427 CURVE SMOOTH",
"40 73 LINE SMOOTH",
"40 32 OFFCURVE",
"72 0 OFFCURVE",
"113 0 CURVE SMOOTH"
);
},
{
closed = 1;
nodes = (
"151 94 OFFCURVE",
"134 111 OFFCURVE",
"134 130 CURVE SMOOTH",
"134 370 LINE SMOOTH",
"134 391 OFFCURVE",
"151 406 OFFCURVE",
"170 406 CURVE SMOOTH",
"228 406 LINE",
"228 94 LINE",
"170 94 LINE SMOOTH"
);
}
);
width = 362;
}
);
unicode = 0064;
},
{
glyphname = eth;
layers = (
{
layerId = "53C92641-43F1-46DD-9425-0FDC2985AE5D";
paths = (
{
closed = 1;
nodes = (
"322 0 LINE",
"322 750 LINE",
"228 729 LINE",
"228 657 LINE",
"64 657 LINE",
"43 563 LINE",
"228 563 LINE",
"228 500 LINE",
"113 500 LINE SMOOTH",
"73 500 OFFCURVE",
"40 468 OFFCURVE",
"40 427 CURVE SMOOTH",
"40 73 LINE SMOOTH",
"40 33 OFFCURVE",
"73 0 OFFCURVE",
"113 0 CURVE SMOOTH"
);
},
{
closed = 1;
nodes = (
"150 94 OFFCURVE",
"134 110 OFFCURVE",
"134 130 CURVE SMOOTH",
"134 370 LINE SMOOTH",
"134 390 OFFCURVE",
"150 406 OFFCURVE",
"170 406 CURVE SMOOTH",
"228 406 LINE",
"228 94 LINE",
"170 94 LINE SMOOTH"
);
}
);
width = 362;
}
);
unicode = 00F0;
},
{
glyphname = e;
layers = (
{
layerId = "53C92641-43F1-46DD-9425-0FDC2985AE5D";
paths = (
{
closed = 1;
nodes = (
"322 0 LINE",
"301 94 LINE",
"171 94 LINE SMOOTH",
"150 94 OFFCURVE",
"134 110 OFFCURVE",
"134 130 CURVE SMOOTH",
"134 203 LINE",
"249 203 LINE SMOOTH",
"290 203 OFFCURVE",
"322 236 OFFCURVE",
"322 276 CURVE SMOOTH",
"322 428 LINE SMOOTH",
"322 468 OFFCURVE",
"290 500 OFFCURVE",
"249 500 CURVE SMOOTH",
"113 500 LINE SMOOTH",
"73 500 OFFCURVE",
"40 468 OFFCURVE",
"40 428 CURVE SMOOTH",
"40 73 LINE SMOOTH",
"40 33 OFFCURVE",
"73 0 OFFCURVE",
"113 0 CURVE SMOOTH"
);
},
{
closed = 1;
nodes = (
"134 370 LINE SMOOTH",
"134 390 OFFCURVE",
"150 406 OFFCURVE",
"171 406 CURVE SMOOTH",
"192 406 LINE SMOOTH",
"212 406 OFFCURVE",
"228 390 OFFCURVE",
"228 370 CURVE SMOOTH",
"228 333 LINE SMOOTH",
"228 313 OFFCURVE",
"212 297 OFFCURVE",
"192 297 CURVE SMOOTH",
"134 297 LINE"
);
}
);
width = 362;
}
);
unicode = 0065;
},
{
glyphname = eacute;
layers = (
{
layerId = "53C92641-43F1-46DD-9425-0FDC2985AE5D";
paths = (
{
closed = 1;
nodes = (
"321 0 LINE",
"300 94 LINE",
"170 94 LINE SMOOTH",
"150 94 OFFCURVE",
"134 110 OFFCURVE",
"134 130 CURVE SMOOTH",
"134 203 LINE",
"249 203 LINE SMOOTH",
"289 203 OFFCURVE",
"321 236 OFFCURVE",
"321 276 CURVE SMOOTH",
"321 427 LINE SMOOTH",
"321 467 OFFCURVE",
"289 500 OFFCURVE",
"249 500 CURVE SMOOTH",
"112 500 LINE SMOOTH",
"72 500 OFFCURVE",
"40 467 OFFCURVE",
"40 427 CURVE SMOOTH",
"40 73 LINE SMOOTH",
"40 33 OFFCURVE",
"72 0 OFFCURVE",
"112 0 CURVE SMOOTH"
);
},
{
closed = 1;
nodes = (
"134 370 LINE SMOOTH",
"134 390 OFFCURVE",
"150 406 OFFCURVE",
"170 406 CURVE SMOOTH",
"191 406 LINE SMOOTH",
"211 406 OFFCURVE",
"227 390 OFFCURVE",
"227 370 CURVE SMOOTH",
"227 333 LINE SMOOTH",
"227 313 OFFCURVE",
"211 297 OFFCURVE",
"191 297 CURVE SMOOTH",
"134 297 LINE"
);
},
{
closed = 1;
nodes = (
"227 542 LINE",
"309 626 LINE",
"211 626 LINE",
"129 542 LINE"
);
}
);
width = 361;
}
);
unicode = 00E9;
},
{
glyphname = ecircumflex;
layers = (
{
layerId = "53C92641-43F1-46DD-9425-0FDC2985AE5D";
paths = (
{
closed = 1;
nodes = (
"322 0 LINE",
"301 94 LINE",
"170 94 LINE SMOOTH",
"150 94 OFFCURVE",
"134 110 OFFCURVE",
"134 130 CURVE SMOOTH",
"134 203 LINE",
"249 203 LINE SMOOTH",
"289 203 OFFCURVE",
"322 236 OFFCURVE",
"322 276 CURVE SMOOTH",
"322 428 LINE SMOOTH",
"322 468 OFFCURVE",
"289 500 OFFCURVE",
"249 500 CURVE SMOOTH",
"113 500 LINE SMOOTH",
"73 500 OFFCURVE",
"40 468 OFFCURVE",
"40 428 CURVE SMOOTH",
"40 73 LINE SMOOTH",
"40 33 OFFCURVE",
"73 0 OFFCURVE",
"113 0 CURVE SMOOTH"
);
},
{
closed = 1;
nodes = (
"134 370 LINE SMOOTH",
"134 390 OFFCURVE",
"150 406 OFFCURVE",
"170 406 CURVE SMOOTH",
"192 406 LINE SMOOTH",
"212 406 OFFCURVE",
"228 390 OFFCURVE",
"228 370 CURVE SMOOTH",
"228 333 LINE SMOOTH",
"228 313 OFFCURVE",
"212 297 OFFCURVE",
"192 297 CURVE SMOOTH",
"134 297 LINE"
);
},
{
closed = 1;
nodes = (
"149 542 LINE",
"181 576 LINE",
"213 542 LINE",
"311 542 LINE",
"230 626 LINE",
"132 626 LINE",
"51 542 LINE"
);
}
);
width = 362;
}
);
unicode = 00EA;
},
{
glyphname = edieresis;
layers = (
{
layerId = "53C92641-43F1-46DD-9425-0FDC2985AE5D";
paths = (
{
closed = 1;
nodes = (
"324 0 LINE",
"303 94 LINE",
"173 94 LINE SMOOTH",
"153 94 OFFCURVE",
"136 110 OFFCURVE",
"136 130 CURVE SMOOTH",
"136 203 LINE",
"252 203 LINE SMOOTH",
"292 203 OFFCURVE",
"324 236 OFFCURVE",
"324 276 CURVE SMOOTH",
"324 427 LINE SMOOTH",
"324 468 OFFCURVE",
"292 500 OFFCURVE",
"252 500 CURVE SMOOTH",
"115 500 LINE SMOOTH",
"75 500 OFFCURVE",
"42 468 OFFCURVE",
"42 427 CURVE SMOOTH",
"42 73 LINE SMOOTH",
"42 33 OFFCURVE",
"75 0 OFFCURVE",
"115 0 CURVE SMOOTH"
);
},
{
closed = 1;
nodes = (
"136 370 LINE SMOOTH",
"136 390 OFFCURVE",
"153 406 OFFCURVE",
"173 406 CURVE SMOOTH",
"194 406 LINE SMOOTH",
"214 406 OFFCURVE",
"230 390 OFFCURVE",
"230 370 CURVE SMOOTH",
"230 333 LINE SMOOTH",
"230 313 OFFCURVE",
"214 297 OFFCURVE",
"194 297 CURVE SMOOTH",
"136 297 LINE"
);
},
{
closed = 1;
nodes = (
"134 563 LINE",
"134 657 LINE",
"40 636 LINE",
"40 542 LINE"
);
},
{
closed = 1;
nodes = (
"326 636 LINE",
"232 657 LINE",
"232 563 LINE",
"326 542 LINE"
);
}
);
width = 366;
}
);
unicode = 00EB;
},
{
glyphname = egrave;
layers = (
{
layerId = "53C92641-43F1-46DD-9425-0FDC2985AE5D";
paths = (
{
closed = 1;
nodes = (
"322 0 LINE",
"301 94 LINE",
"170 94 LINE SMOOTH",
"150 94 OFFCURVE",
"134 110 OFFCURVE",
"134 130 CURVE SMOOTH",
"134 203 LINE",
"249 203 LINE SMOOTH",
"290 203 OFFCURVE",
"322 236 OFFCURVE",
"322 276 CURVE SMOOTH",
"322 428 LINE SMOOTH",
"322 468 OFFCURVE",
"290 500 OFFCURVE",
"249 500 CURVE SMOOTH",
"113 500 LINE SMOOTH",
"73 500 OFFCURVE",
"40 468 OFFCURVE",
"40 428 CURVE SMOOTH",
"40 73 LINE SMOOTH",
"40 33 OFFCURVE",
"73 0 OFFCURVE",
"113 0 CURVE SMOOTH"
);
},
{
closed = 1;
nodes = (
"134 370 LINE SMOOTH",
"134 390 OFFCURVE",
"150 406 OFFCURVE",
"170 406 CURVE SMOOTH",
"192 406 LINE SMOOTH",
"212 406 OFFCURVE",
"228 390 OFFCURVE",
"228 370 CURVE SMOOTH",
"228 333 LINE SMOOTH",
"228 313 OFFCURVE",
"212 297 OFFCURVE",
"192 297 CURVE SMOOTH",
"134 297 LINE"
);
},
{
closed = 1;
nodes = (
"235 542 LINE",
"153 626 LINE",
"55 626 LINE",
"137 542 LINE"
);
}
);
width = 362;
}
);
unicode = 00E8;
},
{
glyphname = f;
layers = (
{
layerId = "53C92641-43F1-46DD-9425-0FDC2985AE5D";
paths = (
{
closed = 1;
nodes = (
"133 0 LINE",
"133 405 LINE",
"230 405 LINE",
"251 499 LINE",
"133 499 LINE",
"133 619 LINE SMOOTH",
"133 638 OFFCURVE",
"149 654 OFFCURVE",
"169 654 CURVE SMOOTH",
"191 654 LINE SMOOTH",
"211 654 OFFCURVE",
"227 638 OFFCURVE",
"227 619 CURVE SMOOTH",
"227 588 LINE",
"320 568 LINE",
"320 676 LINE SMOOTH",
"320 716 OFFCURVE",
"288 748 OFFCURVE",
"248 748 CURVE SMOOTH",
"111 748 LINE SMOOTH",
"72 748 OFFCURVE",
"40 716 OFFCURVE",
"40 676 CURVE SMOOTH",
"40 0 LINE"
);
}
);
width = 360;
}
);
unicode = 0066;
},
{
glyphname = g;
layers = (
{
layerId = "53C92641-43F1-46DD-9425-0FDC2985AE5D";
paths = (
{
closed = 1;
nodes = (
"249 -250 LINE SMOOTH",
"290 -250 OFFCURVE",
"322 -218 OFFCURVE",
"322 -177 CURVE SMOOTH",
"322 500 LINE",
"113 500 LINE SMOOTH",
"74 500 OFFCURVE",
"40 468 OFFCURVE",
"40 427 CURVE SMOOTH",
"40 73 LINE SMOOTH",
"40 32 OFFCURVE",
"74 0 OFFCURVE",
"113 0 CURVE SMOOTH",
"228 0 LINE",
"228 -120 LINE SMOOTH",
"228 -139 OFFCURVE",
"213 -156 OFFCURVE",
"192 -156 CURVE SMOOTH",
"170 -156 LINE SMOOTH",
"151 -156 OFFCURVE",
"134 -139 OFFCURVE",
"134 -120 CURVE SMOOTH",
"134 -90 LINE",
"40 -68 LINE",
"40 -177 LINE SMOOTH",
"40 -218 OFFCURVE",
"74 -250 OFFCURVE",
"113 -250 CURVE SMOOTH"
);
},
{
closed = 1;
nodes = (
"151 94 OFFCURVE",
"134 111 OFFCURVE",
"134 130 CURVE SMOOTH",
"134 370 LINE SMOOTH",
"134 391 OFFCURVE",
"151 406 OFFCURVE",
"170 406 CURVE SMOOTH",
"228 406 LINE",
"228 130 LINE SMOOTH",
"228 111 OFFCURVE",
"213 94 OFFCURVE",
"192 94 CURVE SMOOTH",
"170 94 LINE SMOOTH"
);
}
);
width = 362;
}
);
unicode = 0067;
},
{
glyphname = h;
layers = (
{
layerId = "53C92641-43F1-46DD-9425-0FDC2985AE5D";
paths = (
{
closed = 1;
nodes = (
"134 0 LINE",
"134 406 LINE",
"191 406 LINE SMOOTH",
"211 406 OFFCURVE",
"227 390 OFFCURVE",
"227 370 CURVE SMOOTH",
"227 0 LINE",
"321 0 LINE",
"321 427 LINE SMOOTH",
"321 467 OFFCURVE",
"289 500 OFFCURVE",
"249 500 CURVE SMOOTH",
"134 500 LINE",
"134 750 LINE",
"40 729 LINE",
"40 0 LINE"
);
}
);
width = 361;
}
);
unicode = 0068;
},
{
glyphname = i;
layers = (
{
layerId = "53C92641-43F1-46DD-9425-0FDC2985AE5D";
paths = (
{
closed = 1;
nodes = (
"136 0 LINE",
"136 500 LINE",
"42 478 LINE",
"42 0 LINE"
);
},
{
closed = 1;
nodes = (
"134 656 LINE",
"134 750 LINE",
"40 728 LINE",
"40 634 LINE"
);
}
);
width = 176;
}
);
unicode = 0069;
},
{
glyphname = idotless;
layers = (
{
layerId = "53C92641-43F1-46DD-9425-0FDC2985AE5D";
paths = (
{
closed = 1;
nodes = (
"134 0 LINE",
"134 500 LINE",
"40 478 LINE",
"40 0 LINE"
);
}
);
width = 174;
}
);
leftMetricsKey = i;
rightMetricsKey = i;
unicode = 0131;
},
{
glyphname = iacute;
layers = (
{
layerId = "53C92641-43F1-46DD-9425-0FDC2985AE5D";
paths = (
{
closed = 1;
nodes = (
"138 0 LINE",
"138 500 LINE",
"40 500 LINE",
"40 0 LINE"
);
},
{
closed = 1;
nodes = (
"138 566 LINE",
"222 654 LINE",
"124 654 LINE",
"40 566 LINE"
);
}
);
width = 252;
}
);
unicode = 00ED;
},
{
glyphname = icircumflex;
layers = (
{
layerId = "53C92641-43F1-46DD-9425-0FDC2985AE5D";
paths = (
{
closed = 1;
nodes = (
"215 0 LINE",
"215 500 LINE",
"117 500 LINE",
"117 0 LINE"
);
},
{
closed = 1;
nodes = (
"133 566 LINE",
"166 601 LINE",
"200 566 LINE",
"302 566 LINE",
"217 654 LINE",
"115 654 LINE",
"30 566 LINE"
);
}
);
width = 332;
}
);
unicode = 00EE;
},
{
glyphname = idieresis;
layers = (
{
layerId = "53C92641-43F1-46DD-9425-0FDC2985AE5D";
paths = (
{
closed = 1;
nodes = (
"229 0 LINE",
"229 500 LINE",
"130 500 LINE",
"130 0 LINE"
);
},
{
closed = 1;
nodes = (
"128 589 LINE",
"128 687 LINE",
"30 664 LINE",
"30 566 LINE"
);
},
{
closed = 1;
nodes = (
"329 664 LINE",
"231 687 LINE",
"231 589 LINE",
"329 566 LINE"
);
}
);
width = 359;
}
);
unicode = 00EF;
},
{
glyphname = igrave;
layers = (
{
layerId = "53C92641-43F1-46DD-9425-0FDC2985AE5D";
paths = (
{
closed = 1;
nodes = (
"213 0 LINE",
"213 500 LINE",
"115 500 LINE",
"115 0 LINE"
);
},
{
closed = 1;
nodes = (
"213 566 LINE",
"128 654 LINE",
"30 654 LINE",
"115 566 LINE"
);
}
);
width = 253;
}
);
unicode = 00EC;
},
{
glyphname = j;
layers = (
{
layerId = "53C92641-43F1-46DD-9425-0FDC2985AE5D";
paths = (
{
closed = 1;
nodes = (
"247 -249 LINE SMOOTH",
"288 -249 OFFCURVE",
"320 -217 OFFCURVE",
"320 -176 CURVE",
"320 -176 LINE",
"320 500 LINE",
"226 479 LINE",
"226 -119 LINE SMOOTH",
"226 -138 OFFCURVE",
"211 -155 OFFCURVE",
"190 -155 CURVE SMOOTH",
"171 -155 LINE SMOOTH",
"149 -155 OFFCURVE",
"134 -138 OFFCURVE",
"134 -119 CURVE SMOOTH",
"134 -89 LINE",
"40 -68 LINE",
"40 -176 LINE SMOOTH",
"40 -217 OFFCURVE",
"72 -249 OFFCURVE",
"113 -249 CURVE SMOOTH"
);
},
{
closed = 1;
nodes = (
"320 663 LINE",
"320 757 LINE",
"226 735 LINE",
"226 641 LINE"
);
}
);
width = 360;
}
);
unicode = 006A;
},
{
glyphname = k;
layers = (
{
layerId = "53C92641-43F1-46DD-9425-0FDC2985AE5D";
paths = (
{
closed = 1;
nodes = (
"134 0 LINE",
"181 126 LINE",
"228 0 LINE",
"322 0 LINE",
"228 250 LINE",
"322 500 LINE",
"228 500 LINE",
"134 250 LINE",
"134 751 LINE",
"40 729 LINE",
"40 0 LINE"
);
}
);
width = 362;
}
);
unicode = 006B;
},
{
glyphname = l;
layers = (
{
layerId = "53C92641-43F1-46DD-9425-0FDC2985AE5D";
paths = (
{
closed = 1;
nodes = (
"134 0 LINE",
"134 748 LINE",
"40 727 LINE",
"40 0 LINE"
);
}
);
width = 174;
}
);
unicode = 006C;
},
{
glyphname = m;
layers = (
{
layerId = "53C92641-43F1-46DD-9425-0FDC2985AE5D";
paths = (
{
closed = 1;
nodes = (
"161 0 LINE",
"161 406 LINE",
"218 406 LINE SMOOTH",
"238 406 OFFCURVE",
"255 390 OFFCURVE",
"255 370 CURVE SMOOTH",
"255 0 LINE",
"349 0 LINE",
"349 406 LINE",
"406 406 LINE SMOOTH",
"426 406 OFFCURVE",
"443 390 OFFCURVE",
"443 370 CURVE SMOOTH",
"443 0 LINE",
"536 0 LINE",
"536 427 LINE SMOOTH",
"536 467 OFFCURVE",
"504 500 OFFCURVE",
"464 500 CURVE SMOOTH",
"67 500 LINE",
"67 0 LINE"
);
}
);
width = 600;
}
);
unicode = 006D;
},
{
glyphname = n;
layers = (
{
layerId = "53C92641-43F1-46DD-9425-0FDC2985AE5D";
paths = (
{
closed = 1;
nodes = (
"148 0 LINE",
"148 406 LINE",
"206 406 LINE SMOOTH",
"225 406 OFFCURVE",
"242 391 OFFCURVE",
"242 370 CURVE SMOOTH",
"242 0 LINE",
"336 0 LINE",
"336 428 LINE SMOOTH",
"336 468 OFFCURVE",
"302 500 OFFCURVE",
"263 500 CURVE SMOOTH",
"54 500 LINE",
"54 0 LINE"
);
}
);
width = 390;
}
);
unicode = 006E;
},
{
glyphname = ntilde;
layers = (
{
layerId = "53C92641-43F1-46DD-9425-0FDC2985AE5D";
paths = (
{
closed = 1;
nodes = (
"164 0 LINE",
"164 406 LINE",
"222 406 LINE SMOOTH",
"242 406 OFFCURVE",
"258 390 OFFCURVE",
"258 370 CURVE SMOOTH",
"258 0 LINE",
"352 0 LINE",
"352 428 LINE SMOOTH",
"352 468 OFFCURVE",
"320 500 OFFCURVE",
"280 500 CURVE SMOOTH",
"70 500 LINE",
"70 0 LINE"
);
},
{
closed = 1;
nodes = (
"138 545 LINE",
"170 578 LINE",
"203 545 LINE",
"301 545 LINE",
"382 629 LINE",
"284 629 LINE",
"252 595 LINE",
"219 629 LINE",
"121 629 LINE",
"40 545 LINE"
);
}
);
width = 422;
}
);
unicode = 00F1;
},
{
glyphname = o;
layers = (
{
layerId = "53C92641-43F1-46DD-9425-0FDC2985AE5D";
paths = (
{
closed = 1;
nodes = (
"257 0 LINE SMOOTH",
"297 0 OFFCURVE",
"329 33 OFFCURVE",
"329 73 CURVE SMOOTH",
"329 427 LINE SMOOTH",
"329 467 OFFCURVE",
"297 500 OFFCURVE",
"257 500 CURVE SMOOTH",
"121 500 LINE SMOOTH",
"80 500 OFFCURVE",
"48 467 OFFCURVE",
"48 427 CURVE SMOOTH",
"48 73 LINE SMOOTH",
"48 33 OFFCURVE",
"80 0 OFFCURVE",
"121 0 CURVE SMOOTH"
);
},
{
closed = 1;
nodes = (
"158 94 OFFCURVE",
"142 110 OFFCURVE",
"142 130 CURVE SMOOTH",
"142 370 LINE SMOOTH",
"142 390 OFFCURVE",
"158 406 OFFCURVE",
"178 406 CURVE SMOOTH",
"199 406 LINE SMOOTH",
"219 406 OFFCURVE",
"236 390 OFFCURVE",
"236 370 CURVE SMOOTH",
"236 130 LINE SMOOTH",
"236 110 OFFCURVE",
"219 94 OFFCURVE",
"199 94 CURVE SMOOTH",
"178 94 LINE SMOOTH"
);
}
);
width = 370;
}
);
unicode = 006F;
},
{
glyphname = oacute;
layers = (
{
layerId = "53C92641-43F1-46DD-9425-0FDC2985AE5D";
paths = (
{
closed = 1;
nodes = (
"249 0 LINE SMOOTH",
"289 0 OFFCURVE",
"321 33 OFFCURVE",
"321 73 CURVE SMOOTH",
"321 427 LINE SMOOTH",
"321 467 OFFCURVE",
"289 500 OFFCURVE",
"249 500 CURVE SMOOTH",
"112 500 LINE SMOOTH",
"72 500 OFFCURVE",
"40 467 OFFCURVE",
"40 427 CURVE SMOOTH",
"40 73 LINE SMOOTH",
"40 33 OFFCURVE",
"72 0 OFFCURVE",
"112 0 CURVE SMOOTH"
);
},
{
closed = 1;
nodes = (
"150 94 OFFCURVE",
"134 110 OFFCURVE",
"134 130 CURVE SMOOTH",
"134 370 LINE SMOOTH",
"134 390 OFFCURVE",
"150 406 OFFCURVE",
"170 406 CURVE SMOOTH",
"191 406 LINE SMOOTH",
"211 406 OFFCURVE",
"227 390 OFFCURVE",
"227 370 CURVE SMOOTH",
"227 130 LINE SMOOTH",
"227 110 OFFCURVE",
"211 94 OFFCURVE",
"191 94 CURVE SMOOTH",
"170 94 LINE SMOOTH"
);
},
{
closed = 1;
nodes = (
"225 542 LINE",
"306 626 LINE",
"209 626 LINE",
"127 542 LINE"
);
}
);
width = 361;
}
);
unicode = 00F3;
},
{
glyphname = ocircumflex;
layers = (
{
layerId = "53C92641-43F1-46DD-9425-0FDC2985AE5D";
paths = (
{
closed = 1;
nodes = (
"249 0 LINE SMOOTH",
"289 0 OFFCURVE",
"322 33 OFFCURVE",
"322 73 CURVE SMOOTH",
"322 427 LINE SMOOTH",
"322 468 OFFCURVE",
"289 500 OFFCURVE",
"249 500 CURVE SMOOTH",
"113 500 LINE SMOOTH",
"73 500 OFFCURVE",
"40 468 OFFCURVE",
"40 427 CURVE SMOOTH",
"40 73 LINE SMOOTH",
"40 33 OFFCURVE",
"73 0 OFFCURVE",
"113 0 CURVE SMOOTH"
);
},
{
closed = 1;
nodes = (
"150 94 OFFCURVE",
"134 110 OFFCURVE",
"134 130 CURVE SMOOTH",
"134 370 LINE SMOOTH",
"134 390 OFFCURVE",
"150 406 OFFCURVE",
"171 406 CURVE SMOOTH",
"192 406 LINE SMOOTH",
"212 406 OFFCURVE",
"228 390 OFFCURVE",
"228 370 CURVE SMOOTH",
"228 130 LINE SMOOTH",
"228 110 OFFCURVE",
"212 94 OFFCURVE",
"192 94 CURVE SMOOTH",
"171 94 LINE SMOOTH"
);
},
{
closed = 1;
nodes = (
"149 542 LINE",
"181 575 LINE",
"213 542 LINE",
"311 542 LINE",
"230 626 LINE",
"132 626 LINE",
"51 542 LINE"
);
}
);
width = 362;
}
);
unicode = 00F4;
},
{
glyphname = odieresis;
layers = (
{
layerId = "53C92641-43F1-46DD-9425-0FDC2985AE5D";
paths = (
{
closed = 1;
nodes = (
"252 0 LINE SMOOTH",
"292 0 OFFCURVE",
"324 33 OFFCURVE",
"324 73 CURVE SMOOTH",
"324 427 LINE SMOOTH",
"324 467 OFFCURVE",
"292 500 OFFCURVE",
"252 500 CURVE SMOOTH",
"115 500 LINE SMOOTH",
"75 500 OFFCURVE",
"43 467 OFFCURVE",
"43 427 CURVE SMOOTH",
"43 73 LINE SMOOTH",
"43 33 OFFCURVE",
"75 0 OFFCURVE",
"115 0 CURVE SMOOTH"
);
},
{
closed = 1;
nodes = (
"153 94 OFFCURVE",
"136 110 OFFCURVE",
"136 130 CURVE SMOOTH",
"136 370 LINE SMOOTH",
"136 390 OFFCURVE",
"153 406 OFFCURVE",
"173 406 CURVE SMOOTH",
"194 406 LINE SMOOTH",
"214 406 OFFCURVE",
"230 390 OFFCURVE",
"230 370 CURVE SMOOTH",
"230 130 LINE SMOOTH",
"230 110 OFFCURVE",
"214 94 OFFCURVE",
"194 94 CURVE SMOOTH",
"173 94 LINE SMOOTH"
);
},
{
closed = 1;
nodes = (
"134 563 LINE",
"134 657 LINE",
"40 636 LINE",
"40 542 LINE"
);
},
{
closed = 1;
nodes = (
"326 636 LINE",
"232 657 LINE",
"232 563 LINE",
"326 542 LINE"
);
}
);
width = 366;
}
);
unicode = 00F6;
},
{
glyphname = ograve;
layers = (
{
layerId = "53C92641-43F1-46DD-9425-0FDC2985AE5D";
paths = (
{
closed = 1;
nodes = (
"249 0 LINE SMOOTH",
"290 0 OFFCURVE",
"322 33 OFFCURVE",
"322 73 CURVE SMOOTH",
"322 427 LINE SMOOTH",
"322 467 OFFCURVE",
"290 500 OFFCURVE",
"249 500 CURVE SMOOTH",
"113 500 LINE SMOOTH",
"73 500 OFFCURVE",
"40 467 OFFCURVE",
"40 427 CURVE SMOOTH",
"40 73 LINE SMOOTH",
"40 33 OFFCURVE",
"73 0 OFFCURVE",
"113 0 CURVE SMOOTH"
);
},
{
closed = 1;
nodes = (
"151 94 OFFCURVE",
"134 110 OFFCURVE",
"134 130 CURVE SMOOTH",
"134 370 LINE SMOOTH",
"134 390 OFFCURVE",
"151 406 OFFCURVE",
"171 406 CURVE SMOOTH",
"192 406 LINE SMOOTH",
"212 406 OFFCURVE",
"228 390 OFFCURVE",
"228 370 CURVE SMOOTH",
"228 130 LINE SMOOTH",
"228 110 OFFCURVE",
"212 94 OFFCURVE",
"192 94 CURVE SMOOTH",
"171 94 LINE SMOOTH"
);
},
{
closed = 1;
nodes = (
"235 542 LINE",
"154 626 LINE",
"56 626 LINE",
"137 542 LINE"
);
}
);
width = 362;
}
);
unicode = 00F2;
},
{
glyphname = oslash;
layers = (
{
layerId = "53C92641-43F1-46DD-9425-0FDC2985AE5D";
paths = (
{
closed = 1;
nodes = (
"109 -43 LINE",
"131 0 LINE",
"135 0 LINE",
"272 0 LINE SMOOTH",
"312 0 OFFCURVE",
"344 32 OFFCURVE",
"344 73 CURVE SMOOTH",
"344 427 LINE",
"344 442 LINE",
"391 542 LINE",
"297 542 LINE",
"278 500 LINE",
"272 500 LINE",
"135 500 LINE SMOOTH",
"97 500 OFFCURVE",
"62 468 OFFCURVE",
"62 427 CURVE SMOOTH",
"62 73 LINE SMOOTH",
"62 68 OFFCURVE",
"65 64 OFFCURVE",
"65 58 CURVE",
"15 -43 LINE"
);
},
{
closed = 1;
nodes = (
"188 94 OFFCURVE",
"182 96 OFFCURVE",
"178 98 CURVE",
"250 250 LINE",
"250 130 LINE SMOOTH",
"250 111 OFFCURVE",
"235 94 OFFCURVE",
"214 94 CURVE SMOOTH",
"193 94 LINE SMOOTH"
);
},
{
closed = 1;
nodes = (
"156 369 LINE SMOOTH",
"156 391 OFFCURVE",
"173 406 OFFCURVE",
"193 406 CURVE SMOOTH",
"214 406 LINE SMOOTH",
"220 406 OFFCURVE",
"227 406 OFFCURVE",
"231 402 CURVE",
"156 250 LINE"
);
}
);
width = 406;
}
);
unicode = 00F8;
},
{
glyphname = otilde;
layers = (
{
layerId = "53C92641-43F1-46DD-9425-0FDC2985AE5D";
paths = (
{
closed = 1;
nodes = (
"279 0 LINE SMOOTH",
"319 0 OFFCURVE",
"351 32 OFFCURVE",
"351 73 CURVE SMOOTH",
"351 427 LINE SMOOTH",
"351 467 OFFCURVE",
"319 500 OFFCURVE",
"279 500 CURVE SMOOTH",
"142 500 LINE SMOOTH",
"102 500 OFFCURVE",
"70 467 OFFCURVE",
"70 427 CURVE SMOOTH",
"70 73 LINE SMOOTH",
"70 32 OFFCURVE",
"102 0 OFFCURVE",
"142 0 CURVE SMOOTH"
);
},
{
closed = 1;
nodes = (
"180 94 OFFCURVE",
"164 110 OFFCURVE",
"164 130 CURVE SMOOTH",
"164 369 LINE SMOOTH",
"164 389 OFFCURVE",
"180 406 OFFCURVE",
"200 406 CURVE SMOOTH",
"221 406 LINE SMOOTH",
"241 406 OFFCURVE",
"258 389 OFFCURVE",
"258 369 CURVE SMOOTH",
"258 130 LINE SMOOTH",
"258 110 OFFCURVE",
"241 94 OFFCURVE",
"221 94 CURVE SMOOTH",
"200 94 LINE SMOOTH"
);
},
{
closed = 1;
nodes = (
"138 544 LINE",
"170 577 LINE",
"202 544 LINE",
"300 544 LINE",
"381 628 LINE",
"284 628 LINE",
"251 594 LINE",
"219 628 LINE",
"121 628 LINE",
"40 544 LINE"
);
}
);
width = 421;
}
);
unicode = 00F5;
},
{
glyphname = oe;
layers = (
{
layerId = "53C92641-43F1-46DD-9425-0FDC2985AE5D";
paths = (
{
closed = 1;
nodes = (
"509 0 LINE",
"488 94 LINE",
"358 94 LINE SMOOTH",
"338 94 OFFCURVE",
"322 110 OFFCURVE",
"321 130 CURVE SMOOTH",
"321 203 LINE",
"436 203 LINE SMOOTH",
"476 203 OFFCURVE",
"509 235 OFFCURVE",
"509 276 CURVE SMOOTH",
"509 427 LINE SMOOTH",
"509 467 OFFCURVE",
"476 500 OFFCURVE",
"436 500 CURVE SMOOTH",
"112 500 LINE SMOOTH",
"72 500 OFFCURVE",
"40 467 OFFCURVE",
"40 427 CURVE SMOOTH",
"40 73 LINE SMOOTH",
"40 32 OFFCURVE",
"72 0 OFFCURVE",
"112 0 CURVE SMOOTH"
);
},
{
closed = 1;
nodes = (
"150 94 OFFCURVE",
"134 110 OFFCURVE",
"134 130 CURVE SMOOTH",
"134 369 LINE SMOOTH",
"134 390 OFFCURVE",
"150 406 OFFCURVE",
"170 406 CURVE SMOOTH",
"191 406 LINE SMOOTH",
"211 406 OFFCURVE",
"227 390 OFFCURVE",
"227 370 CURVE SMOOTH",
"227 130 LINE SMOOTH",
"227 110 OFFCURVE",
"211 94 OFFCURVE",
"191 94 CURVE SMOOTH",
"170 94 LINE SMOOTH"
);
},
{
closed = 1;
nodes = (
"321 370 LINE SMOOTH",
"322 390 OFFCURVE",
"338 406 OFFCURVE",
"358 406 CURVE SMOOTH",
"379 406 LINE SMOOTH",
"399 406 OFFCURVE",
"415 390 OFFCURVE",
"415 370 CURVE SMOOTH",
"415 333 LINE SMOOTH",
"415 313 OFFCURVE",
"399 297 OFFCURVE",
"379 297 CURVE SMOOTH",
"321 297 LINE"
);
}
);
width = 549;
}
);
unicode = 0153;
},
{
glyphname = p;
layers = (
{
layerId = "53C92641-43F1-46DD-9425-0FDC2985AE5D";
paths = (
{
closed = 1;
nodes = (
"134 -250 LINE",
"134 0 LINE",
"249 0 LINE SMOOTH",
"290 0 OFFCURVE",
"322 32 OFFCURVE",
"322 73 CURVE SMOOTH",
"322 427 LINE SMOOTH",
"322 468 OFFCURVE",
"290 500 OFFCURVE",
"249 500 CURVE SMOOTH",
"40 500 LINE",
"40 -250 LINE"
);
},
{
closed = 1;
nodes = (
"134 406 LINE",
"192 406 LINE SMOOTH",
"211 406 OFFCURVE",
"228 391 OFFCURVE",
"228 369 CURVE SMOOTH",
"228 130 LINE SMOOTH",
"228 111 OFFCURVE",
"211 94 OFFCURVE",
"192 94 CURVE SMOOTH",
"134 94 LINE"
);
}
);
width = 362;
}
);
unicode = 0070;
},
{
glyphname = thorn;
layers = (
{
layerId = "53C92641-43F1-46DD-9425-0FDC2985AE5D";
paths = (
{
closed = 1;
nodes = (
"135 0 LINE",
"135 133 LINE",
"252 133 LINE SMOOTH",
"292 133 OFFCURVE",
"325 166 OFFCURVE",
"325 206 CURVE SMOOTH",
"325 426 LINE SMOOTH",
"325 467 OFFCURVE",
"292 500 OFFCURVE",
"252 500 CURVE SMOOTH",
"135 500 LINE",
"135 633 LINE",
"40 633 LINE",
"40 0 LINE"
);
},
{
closed = 1;
nodes = (
"135 405 LINE",
"193 405 LINE SMOOTH",
"214 405 OFFCURVE",
"230 388 OFFCURVE",
"230 368 CURVE SMOOTH",
"230 264 LINE SMOOTH",
"230 244 OFFCURVE",
"214 228 OFFCURVE",
"193 228 CURVE SMOOTH",
"135 228 LINE"
);
}
);
width = 365;
}
);
unicode = 00FE;
},
{
glyphname = q;
layers = (
{
layerId = "53C92641-43F1-46DD-9425-0FDC2985AE5D";
paths = (
{
closed = 1;
nodes = (
"322 -250 LINE",
"322 500 LINE",
"112 500 LINE SMOOTH",
"74 500 OFFCURVE",
"40 468 OFFCURVE",
"40 427 CURVE SMOOTH",
"40 73 LINE SMOOTH",
"40 32 OFFCURVE",
"74 0 OFFCURVE",
"112 0 CURVE SMOOTH",
"228 0 LINE",
"228 -250 LINE"
);
},
{
closed = 1;
nodes = (
"151 94 OFFCURVE",
"134 111 OFFCURVE",
"134 130 CURVE SMOOTH",
"134 369 LINE SMOOTH",
"134 391 OFFCURVE",
"151 406 OFFCURVE",
"170 406 CURVE SMOOTH",
"228 406 LINE",
"228 94 LINE",
"170 94 LINE SMOOTH"
);
}
);
width = 362;
}
);
unicode = 0071;
},
{
glyphname = r;
layers = (
{
layerId = "53C92641-43F1-46DD-9425-0FDC2985AE5D";
paths = (
{
closed = 1;
nodes = (
"134 0 LINE",
"134 406 LINE",
"192 406 LINE SMOOTH",
"212 406 OFFCURVE",
"228 389 OFFCURVE",
"228 369 CURVE SMOOTH",
"228 339 LINE",
"322 318 LINE",
"322 427 LINE SMOOTH",
"322 467 OFFCURVE",
"289 500 OFFCURVE",
"249 500 CURVE SMOOTH",
"40 500 LINE",
"40 0 LINE"
);
}
);
width = 362;
}
);
unicode = 0072;
},
{
glyphname = s;
layers = (
{
layerId = "53C92641-43F1-46DD-9425-0FDC2985AE5D";
paths = (
{
closed = 1;
nodes = (
"249 0 LINE SMOOTH",
"287 0 OFFCURVE",
"319 31 OFFCURVE",
"321 69 CURVE",
"321 224 LINE SMOOTH",
"321 264 OFFCURVE",
"289 297 OFFCURVE",
"249 297 CURVE SMOOTH",
"170 297 LINE SMOOTH",
"150 297 OFFCURVE",
"133 313 OFFCURVE",
"133 333 CURVE SMOOTH",
"133 370 LINE SMOOTH",
"133 390 OFFCURVE",
"150 406 OFFCURVE",
"170 406 CURVE SMOOTH",
"191 406 LINE SMOOTH",
"211 406 OFFCURVE",
"227 390 OFFCURVE",
"227 370 CURVE SMOOTH",
"227 344 LINE",
"321 344 LINE",
"321 427 LINE SMOOTH",
"321 467 OFFCURVE",
"289 500 OFFCURVE",
"249 500 CURVE SMOOTH",
"112 500 LINE SMOOTH",
"72 500 OFFCURVE",
"40 467 OFFCURVE",
"40 427 CURVE SMOOTH",
"40 276 LINE SMOOTH",
"40 236 OFFCURVE",
"72 203 OFFCURVE",
"112 203 CURVE SMOOTH",
"191 203 LINE SMOOTH",
"211 203 OFFCURVE",
"227 187 OFFCURVE",
"227 167 CURVE SMOOTH",
"227 130 LINE SMOOTH",
"227 110 OFFCURVE",
"211 94 OFFCURVE",
"191 94 CURVE SMOOTH",
"170 94 LINE SMOOTH",
"150 94 OFFCURVE",
"133 110 OFFCURVE",
"133 130 CURVE SMOOTH",
"133 156 LINE",
"40 156 LINE",
"40 73 LINE SMOOTH",
"40 33 OFFCURVE",
"72 0 OFFCURVE",
"112 0 CURVE SMOOTH"
);
}
);
width = 361;
}
);
unicode = 0073;
},
{
glyphname = germandbls;
layers = (
{
layerId = "53C92641-43F1-46DD-9425-0FDC2985AE5D";
paths = (
{
closed = 1;
nodes = (
"153 0 LINE",
"153 341 LINE",
"303 341 LINE SMOOTH",
"322 341 OFFCURVE",
"338 325 OFFCURVE",
"338 305 CURVE SMOOTH",
"338 129 LINE SMOOTH",
"338 109 OFFCURVE",
"322 93 OFFCURVE",
"303 93 CURVE SMOOTH",
"246 93 LINE",
"246 0 LINE",
"360 0 LINE SMOOTH",
"399 0 OFFCURVE",
"431 32 OFFCURVE",
"431 72 CURVE SMOOTH",
"431 362 LINE SMOOTH",
"431 393 OFFCURVE",
"412 419 OFFCURVE",
"385 429 CURVE",
"385 628 LINE SMOOTH",
"385 668 OFFCURVE",
"353 700 OFFCURVE",
"313 700 CURVE SMOOTH",
"60 700 LINE",
"60 0 LINE"
);
},
{
closed = 1;
nodes = (
"153 607 LINE",
"256 607 LINE SMOOTH",
"276 607 OFFCURVE",
"292 591 OFFCURVE",
"292 571 CURVE SMOOTH",
"292 470 LINE SMOOTH",
"292 450 OFFCURVE",
"276 434 OFFCURVE",
"256 434 CURVE SMOOTH",
"153 434 LINE"
);
}
);
width = 491;
}
);
unicode = 00DF;
},
{
glyphname = t;
layers = (
{
layerId = "53C92641-43F1-46DD-9425-0FDC2985AE5D";
paths = (
{
closed = 1;
nodes = (
"134 0 LINE",
"134 406 LINE",
"231 406 LINE",
"253 500 LINE",
"134 500 LINE",
"134 749 LINE",
"40 728 LINE",
"40 0 LINE"
);
}
);
width = 263;
}
);
unicode = 0074;
},
{
glyphname = u;
layers = (
{
layerId = "53C92641-43F1-46DD-9425-0FDC2985AE5D";
paths = (
{
closed = 1;
nodes = (
"322 0 LINE",
"322 500 LINE",
"228 500 LINE",
"228 94 LINE",
"170 94 LINE SMOOTH",
"151 94 OFFCURVE",
"134 111 OFFCURVE",
"134 130 CURVE SMOOTH",
"134 500 LINE",
"40 500 LINE",
"40 73 LINE SMOOTH",
"40 32 OFFCURVE",
"72 0 OFFCURVE",
"113 0 CURVE SMOOTH"
);
}
);
width = 362;
}
);
unicode = 0075;
},
{
glyphname = uacute;
layers = (
{
layerId = "53C92641-43F1-46DD-9425-0FDC2985AE5D";
paths = (
{
closed = 1;
nodes = (
"321 0 LINE",
"321 500 LINE",
"228 500 LINE",
"228 94 LINE",
"170 94 LINE SMOOTH",
"150 94 OFFCURVE",
"134 110 OFFCURVE",
"134 130 CURVE SMOOTH",
"134 500 LINE",
"40 500 LINE",
"40 73 LINE SMOOTH",
"40 33 OFFCURVE",
"72 0 OFFCURVE",
"112 0 CURVE SMOOTH"
);
},
{
closed = 1;
nodes = (
"225 542 LINE",
"307 626 LINE",
"209 626 LINE",
"127 542 LINE"
);
}
);
width = 361;
}
);
unicode = 00FA;
},
{
glyphname = ucircumflex;
layers = (
{
layerId = "53C92641-43F1-46DD-9425-0FDC2985AE5D";
paths = (
{
closed = 1;
nodes = (
"322 0 LINE",
"322 500 LINE",
"228 500 LINE",
"228 94 LINE",
"171 94 LINE SMOOTH",
"151 94 OFFCURVE",
"134 110 OFFCURVE",
"134 130 CURVE SMOOTH",
"134 500 LINE",
"40 500 LINE",
"40 73 LINE SMOOTH",
"40 33 OFFCURVE",
"73 0 OFFCURVE",
"113 0 CURVE SMOOTH"
);
},
{
closed = 1;
nodes = (
"149 542 LINE",
"181 576 LINE",
"213 542 LINE",
"311 542 LINE",
"230 626 LINE",
"132 626 LINE",
"51 542 LINE"
);
}
);
width = 362;
}
);
unicode = 00FB;
},
{
glyphname = udieresis;
layers = (
{
layerId = "53C92641-43F1-46DD-9425-0FDC2985AE5D";
paths = (
{
closed = 1;
nodes = (
"324 0 LINE",
"324 500 LINE",
"231 500 LINE",
"231 94 LINE",
"173 94 LINE SMOOTH",
"153 94 OFFCURVE",
"137 110 OFFCURVE",
"137 130 CURVE SMOOTH",
"137 500 LINE",
"43 500 LINE",
"43 73 LINE SMOOTH",
"43 33 OFFCURVE",
"75 0 OFFCURVE",
"115 0 CURVE SMOOTH"
);
},
{
closed = 1;
nodes = (
"134 564 LINE",
"134 658 LINE",
"40 636 LINE",
"40 542 LINE"
);
},
{
closed = 1;
nodes = (
"327 636 LINE",
"233 658 LINE",
"233 564 LINE",
"327 542 LINE"
);
}
);
width = 367;
}
);
unicode = 00FC;
},
{
glyphname = ugrave;
layers = (
{
layerId = "53C92641-43F1-46DD-9425-0FDC2985AE5D";
paths = (
{
closed = 1;
nodes = (
"322 0 LINE",
"322 500 LINE",
"228 500 LINE",
"228 94 LINE",
"171 94 LINE SMOOTH",
"151 94 OFFCURVE",
"134 110 OFFCURVE",
"134 130 CURVE SMOOTH",
"134 500 LINE",
"40 500 LINE",
"40 73 LINE SMOOTH",
"40 33 OFFCURVE",
"73 0 OFFCURVE",
"113 0 CURVE SMOOTH"
);
},
{
closed = 1;
nodes = (
"232 542 LINE",
"150 627 LINE",
"52 627 LINE",
"133 542 LINE"
);
}
);
width = 362;
}
);
unicode = 00F9;
},
{
glyphname = v;
layers = (
{
layerId = "53C92641-43F1-46DD-9425-0FDC2985AE5D";
paths = (
{
closed = 1;
nodes = (
"198 0 LINE",
"292 500 LINE",
"198 500 LINE",
"151 250 LINE",
"104 500 LINE",
"10 500 LINE",
"104 0 LINE"
);
}
);
width = 302;
}
);
unicode = 0076;
},
{
glyphname = w;
layers = (
{
layerId = "53C92641-43F1-46DD-9425-0FDC2985AE5D";
paths = (
{
closed = 1;
nodes = (
"509 0 LINE",
"509 500 LINE",
"415 500 LINE",
"415 94 LINE",
"358 94 LINE SMOOTH",
"338 94 OFFCURVE",
"322 110 OFFCURVE",
"322 130 CURVE SMOOTH",
"322 500 LINE",
"228 500 LINE",
"228 94 LINE",
"170 94 LINE SMOOTH",
"150 94 OFFCURVE",
"134 110 OFFCURVE",
"134 130 CURVE SMOOTH",
"134 500 LINE",
"40 500 LINE",
"40 73 LINE SMOOTH",
"40 33 OFFCURVE",
"73 0 OFFCURVE",
"113 0 CURVE SMOOTH"
);
}
);
width = 549;
}
);
unicode = 0077;
},
{
glyphname = wacute;
layers = (
{
layerId = "53C92641-43F1-46DD-9425-0FDC2985AE5D";
paths = (
{
closed = 1;
nodes = (
"509 0 LINE",
"509 500 LINE",
"415 500 LINE",
"415 94 LINE",
"358 94 LINE SMOOTH",
"338 94 OFFCURVE",
"322 110 OFFCURVE",
"322 130 CURVE SMOOTH",
"322 500 LINE",
"228 500 LINE",
"228 94 LINE",
"170 94 LINE SMOOTH",
"150 94 OFFCURVE",
"134 110 OFFCURVE",
"134 130 CURVE SMOOTH",
"134 500 LINE",
"40 500 LINE",
"40 73 LINE SMOOTH",
"40 32 OFFCURVE",
"73 0 OFFCURVE",
"113 0 CURVE SMOOTH"
);
},
{
closed = 1;
nodes = (
"324 542 LINE",
"405 626 LINE",
"307 626 LINE",
"226 542 LINE"
);
}
);
width = 549;
}
);
unicode = 1E83;
},
{
glyphname = wcircumflex;
layers = (
{
layerId = "53C92641-43F1-46DD-9425-0FDC2985AE5D";
paths = (
{
closed = 1;
nodes = (
"509 0 LINE",
"509 500 LINE",
"415 500 LINE",
"415 94 LINE",
"358 94 LINE SMOOTH",
"338 94 OFFCURVE",
"322 110 OFFCURVE",
"322 130 CURVE SMOOTH",
"322 500 LINE",
"228 500 LINE",
"228 94 LINE",
"170 94 LINE SMOOTH",
"150 94 OFFCURVE",
"134 110 OFFCURVE",
"134 130 CURVE SMOOTH",
"134 500 LINE",
"40 500 LINE",
"40 73 LINE SMOOTH",
"40 32 OFFCURVE",
"73 0 OFFCURVE",
"113 0 CURVE SMOOTH"
);
},
{
closed = 1;
nodes = (
"243 542 LINE",
"275 575 LINE",
"307 542 LINE",
"405 542 LINE",
"324 626 LINE",
"226 626 LINE",
"145 542 LINE"
);
}
);
width = 549;
}
);
unicode = 0175;
},
{
glyphname = wdieresis;
layers = (
{
layerId = "53C92641-43F1-46DD-9425-0FDC2985AE5D";
paths = (
{
closed = 1;
nodes = (
"509 0 LINE",
"509 500 LINE",
"416 500 LINE",
"416 94 LINE",
"358 94 LINE SMOOTH",
"338 94 OFFCURVE",
"322 110 OFFCURVE",
"322 130 CURVE SMOOTH",
"322 500 LINE",
"228 500 LINE",
"228 94 LINE",
"170 94 LINE SMOOTH",
"150 94 OFFCURVE",
"134 110 OFFCURVE",
"134 130 CURVE SMOOTH",
"134 500 LINE",
"40 500 LINE",
"40 73 LINE SMOOTH",
"40 33 OFFCURVE",
"73 0 OFFCURVE",
"113 0 CURVE SMOOTH"
);
},
{
closed = 1;
nodes = (
"226 563 LINE",
"226 657 LINE",
"132 636 LINE",
"132 542 LINE"
);
},
{
closed = 1;
nodes = (
"418 636 LINE",
"324 657 LINE",
"324 563 LINE",
"418 542 LINE"
);
}
);
width = 549;
}
);
unicode = 1E85;
},
{
glyphname = wgrave;
layers = (
{
layerId = "53C92641-43F1-46DD-9425-0FDC2985AE5D";
paths = (
{
closed = 1;
nodes = (
"509 0 LINE",
"509 500 LINE",
"415 500 LINE",
"415 94 LINE",
"358 94 LINE SMOOTH",
"338 94 OFFCURVE",
"321 110 OFFCURVE",
"321 130 CURVE SMOOTH",
"321 500 LINE",
"227 500 LINE",
"227 94 LINE",
"170 94 LINE SMOOTH",
"150 94 OFFCURVE",
"134 110 OFFCURVE",
"134 130 CURVE SMOOTH",
"134 500 LINE",
"40 500 LINE",
"40 73 LINE SMOOTH",
"40 33 OFFCURVE",
"72 0 OFFCURVE",
"112 0 CURVE SMOOTH"
);
},
{
closed = 1;
nodes = (
"321 542 LINE",
"240 626 LINE",
"142 626 LINE",
"223 542 LINE"
);
}
);
width = 549;
}
);
unicode = 1E81;
},
{
glyphname = x;
layers = (
{
layerId = "53C92641-43F1-46DD-9425-0FDC2985AE5D";
paths = (
{
closed = 1;
nodes = (
"134 0 LINE",
"181 125 LINE",
"228 0 LINE",
"321 0 LINE",
"228 250 LINE",
"321 500 LINE",
"228 500 LINE",
"181 375 LINE",
"134 500 LINE",
"40 500 LINE",
"134 250 LINE",
"40 0 LINE"
);
}
);
width = 361;
}
);
unicode = 0078;
},
{
glyphname = y;
layers = (
{
layerId = "53C92641-43F1-46DD-9425-0FDC2985AE5D";
paths = (
{
closed = 1;
nodes = (
"250 -250 LINE SMOOTH",
"290 -250 OFFCURVE",
"322 -218 OFFCURVE",
"322 -177 CURVE SMOOTH",
"322 500 LINE",
"228 500 LINE",
"228 94 LINE",
"170 94 LINE SMOOTH",
"151 94 OFFCURVE",
"134 111 OFFCURVE",
"134 130 CURVE SMOOTH",
"134 500 LINE",
"40 500 LINE",
"40 73 LINE SMOOTH",
"40 32 OFFCURVE",
"72 0 OFFCURVE",
"113 0 CURVE SMOOTH",
"228 0 LINE",
"228 -120 LINE SMOOTH",
"228 -139 OFFCURVE",
"211 -156 OFFCURVE",
"192 -156 CURVE SMOOTH",
"170 -156 LINE SMOOTH",
"151 -156 OFFCURVE",
"134 -139 OFFCURVE",
"134 -120 CURVE SMOOTH",
"134 -90 LINE",
"40 -68 LINE",
"40 -177 LINE SMOOTH",
"40 -218 OFFCURVE",
"72 -250 OFFCURVE",
"113 -250 CURVE SMOOTH"
);
}
);
width = 362;
}
);
unicode = 0079;
},
{
glyphname = yacute;
layers = (
{
layerId = "53C92641-43F1-46DD-9425-0FDC2985AE5D";
paths = (
{
closed = 1;
nodes = (
"249 -250 LINE SMOOTH",
"290 -250 OFFCURVE",
"322 -218 OFFCURVE",
"322 -177 CURVE SMOOTH",
"322 500 LINE",
"228 500 LINE",
"228 94 LINE",
"170 94 LINE SMOOTH",
"151 94 OFFCURVE",
"134 111 OFFCURVE",
"134 130 CURVE SMOOTH",
"134 500 LINE",
"40 500 LINE",
"40 73 LINE SMOOTH",
"40 32 OFFCURVE",
"72 0 OFFCURVE",
"112 0 CURVE SMOOTH",
"228 0 LINE",
"228 -120 LINE SMOOTH",
"228 -139 OFFCURVE",
"211 -156 OFFCURVE",
"191 -156 CURVE SMOOTH",
"170 -156 LINE SMOOTH",
"151 -156 OFFCURVE",
"134 -139 OFFCURVE",
"134 -120 CURVE SMOOTH",
"134 -90 LINE",
"40 -68 LINE",
"40 -177 LINE SMOOTH",
"40 -218 OFFCURVE",
"72 -250 OFFCURVE",
"112 -250 CURVE SMOOTH"
);
},
{
closed = 1;
nodes = (
"228 543 LINE",
"309 626 LINE",
"211 626 LINE",
"129 543 LINE"
);
}
);
width = 362;
}
);
unicode = 00FD;
},
{
glyphname = ycircumflex;
layers = (
{
layerId = "53C92641-43F1-46DD-9425-0FDC2985AE5D";
paths = (
{
closed = 1;
nodes = (
"247 -250 LINE SMOOTH",
"287 -250 OFFCURVE",
"319 -218 OFFCURVE",
"319 -177 CURVE SMOOTH",
"319 500 LINE",
"228 500 LINE",
"228 94 LINE",
"170 94 LINE SMOOTH",
"149 94 OFFCURVE",
"134 111 OFFCURVE",
"134 130 CURVE SMOOTH",
"134 500 LINE",
"40 500 LINE",
"40 73 LINE SMOOTH",
"40 32 OFFCURVE",
"72 0 OFFCURVE",
"112 0 CURVE SMOOTH",
"228 0 LINE",
"228 -120 LINE SMOOTH",
"228 -139 OFFCURVE",
"211 -156 OFFCURVE",
"191 -156 CURVE SMOOTH",
"170 -156 LINE SMOOTH",
"149 -156 OFFCURVE",
"134 -139 OFFCURVE",
"134 -120 CURVE SMOOTH",
"134 -90 LINE",
"40 -68 LINE",
"40 -177 LINE SMOOTH",
"40 -218 OFFCURVE",
"72 -250 OFFCURVE",
"112 -250 CURVE SMOOTH"
);
},
{
closed = 1;
nodes = (
"147 542 LINE",
"181 574 LINE",
"213 542 LINE",
"309 542 LINE",
"228 625 LINE",
"132 625 LINE",
"50 542 LINE"
);
}
);
width = 359;
}
);
unicode = 0177;
},
{
glyphname = ydieresis;
layers = (
{
layerId = "53C92641-43F1-46DD-9425-0FDC2985AE5D";
paths = (
{
closed = 1;
nodes = (
"252 -250 LINE SMOOTH",
"290 -250 OFFCURVE",
"324 -218 OFFCURVE",
"324 -177 CURVE SMOOTH",
"324 478 LINE",
"231 500 LINE",
"231 94 LINE",
"173 94 LINE SMOOTH",
"152 94 OFFCURVE",
"137 111 OFFCURVE",
"137 130 CURVE SMOOTH",
"137 500 LINE",
"43 478 LINE",
"43 73 LINE SMOOTH",
"43 32 OFFCURVE",
"75 0 OFFCURVE",
"115 0 CURVE SMOOTH",
"231 0 LINE",
"231 -120 LINE SMOOTH",
"231 -139 OFFCURVE",
"213 -156 OFFCURVE",
"194 -156 CURVE SMOOTH",
"173 -156 LINE SMOOTH",
"152 -156 OFFCURVE",
"137 -139 OFFCURVE",
"137 -120 CURVE SMOOTH",
"137 -90 LINE",
"43 -68 LINE",
"43 -177 LINE SMOOTH",
"43 -218 OFFCURVE",
"75 -250 OFFCURVE",
"115 -250 CURVE SMOOTH"
);
},
{
closed = 1;
nodes = (
"134 564 LINE",
"134 658 LINE",
"40 636 LINE",
"40 542 LINE"
);
},
{
closed = 1;
nodes = (
"327 636 LINE",
"233 658 LINE",
"233 564 LINE",
"327 542 LINE"
);
}
);
width = 367;
}
);
unicode = 00FF;
},
{
glyphname = ygrave;
layers = (
{
layerId = "53C92641-43F1-46DD-9425-0FDC2985AE5D";
paths = (
{
closed = 1;
nodes = (
"250 -250 LINE SMOOTH",
"290 -250 OFFCURVE",
"322 -218 OFFCURVE",
"322 -178 CURVE SMOOTH",
"322 500 LINE",
"228 500 LINE",
"228 94 LINE",
"170 94 LINE SMOOTH",
"151 94 OFFCURVE",
"134 111 OFFCURVE",
"134 130 CURVE SMOOTH",
"134 500 LINE",
"40 500 LINE",
"40 73 LINE SMOOTH",
"40 32 OFFCURVE",
"74 0 OFFCURVE",
"113 0 CURVE SMOOTH",
"228 0 LINE",
"228 -120 LINE SMOOTH",
"228 -139 OFFCURVE",
"213 -156 OFFCURVE",
"192 -156 CURVE SMOOTH",
"170 -156 LINE SMOOTH",
"151 -156 OFFCURVE",
"134 -139 OFFCURVE",
"134 -120 CURVE SMOOTH",
"134 -90 LINE",
"40 -68 LINE",
"40 -178 LINE SMOOTH",
"40 -218 OFFCURVE",
"74 -250 OFFCURVE",
"113 -250 CURVE SMOOTH"
);
},
{
closed = 1;
nodes = (
"228 543 LINE",
"147 627 LINE",
"48 627 LINE",
"130 543 LINE"
);
}
);
width = 362;
}
);
unicode = 1EF3;
},
{
glyphname = z;
layers = (
{
layerId = "53C92641-43F1-46DD-9425-0FDC2985AE5D";
paths = (
{
closed = 1;
nodes = (
"322 0 LINE",
"322 94 LINE",
"168 94 LINE",
"322 500 LINE",
"40 500 LINE",
"40 406 LINE",
"192 406 LINE",
"40 0 LINE"
);
}
);
width = 362;
}
);
unicode = 007A;
},
{
glyphname = fi;
layers = (
{
layerId = "53C92641-43F1-46DD-9425-0FDC2985AE5D";
paths = (
{
closed = 1;
nodes = (
"123 0 LINE",
"123 405 LINE",
"220 405 LINE",
"241 499 LINE",
"123 499 LINE",
"123 619 LINE SMOOTH",
"123 638 OFFCURVE",
"139 654 OFFCURVE",
"159 654 CURVE SMOOTH",
"181 654 LINE SMOOTH",
"201 654 OFFCURVE",
"217 638 OFFCURVE",
"217 619 CURVE SMOOTH",
"217 588 LINE",
"310 568 LINE",
"310 676 LINE SMOOTH",
"310 716 OFFCURVE",
"278 748 OFFCURVE",
"238 748 CURVE SMOOTH",
"101 748 LINE SMOOTH",
"62 748 OFFCURVE",
"30 716 OFFCURVE",
"30 676 CURVE SMOOTH",
"30 0 LINE"
);
},
{
closed = 1;
nodes = (
"379 0 LINE",
"379 500 LINE",
"285 478 LINE",
"285 0 LINE"
);
}
);
width = 409;
}
);
unicode = FB01;
},
{
glyphname = zero;
layers = (
{
layerId = "53C92641-43F1-46DD-9425-0FDC2985AE5D";
paths = (
{
closed = 1;
nodes = (
"361 0 LINE SMOOTH",
"401 0 OFFCURVE",
"433 32 OFFCURVE",
"433 72 CURVE SMOOTH",
"433 628 LINE SMOOTH",
"433 668 OFFCURVE",
"401 700 OFFCURVE",
"361 700 CURVE SMOOTH",
"134 700 LINE SMOOTH",
"94 700 OFFCURVE",
"62 668 OFFCURVE",
"62 628 CURVE SMOOTH",
"62 72 LINE SMOOTH",
"62 32 OFFCURVE",
"94 0 OFFCURVE",
"134 0 CURVE SMOOTH"
);
},
{
closed = 1;
nodes = (
"171 93 OFFCURVE",
"155 109 OFFCURVE",
"155 129 CURVE SMOOTH",
"155 571 LINE SMOOTH",
"155 591 OFFCURVE",
"171 607 OFFCURVE",
"191 607 CURVE SMOOTH",
"304 607 LINE SMOOTH",
"324 607 OFFCURVE",
"340 591 OFFCURVE",
"340 571 CURVE SMOOTH",
"340 129 LINE SMOOTH",
"340 109 OFFCURVE",
"324 93 OFFCURVE",
"304 93 CURVE SMOOTH",
"191 93 LINE SMOOTH"
);
}
);
width = 495;
}
);
unicode = 0030;
},
{
glyphname = one;
layers = (
{
layerId = "53C92641-43F1-46DD-9425-0FDC2985AE5D";
paths = (
{
closed = 1;
nodes = (
"248 0 LINE",
"248 700 LINE",
"83 700 LINE",
"62 607 LINE",
"155 607 LINE",
"155 0 LINE"
);
}
);
width = 330;
}
);
unicode = 0031;
},
{
glyphname = two;
layers = (
{
layerId = "53C92641-43F1-46DD-9425-0FDC2985AE5D";
paths = (
{
closed = 1;
nodes = (
"433 0 LINE",
"433 93 LINE",
"176 93 LINE",
"433 498 LINE",
"433 629 LINE SMOOTH",
"433 668 OFFCURVE",
"401 700 OFFCURVE",
"362 700 CURVE SMOOTH",
"134 700 LINE SMOOTH",
"94 700 OFFCURVE",
"62 668 OFFCURVE",
"62 629 CURVE SMOOTH",
"62 519 LINE",
"155 498 LINE",
"155 572 LINE SMOOTH",
"155 592 OFFCURVE",
"171 608 OFFCURVE",
"191 608 CURVE SMOOTH",
"305 608 LINE SMOOTH",
"324 608 OFFCURVE",
"340 592 OFFCURVE",
"340 572 CURVE SMOOTH",
"340 519 LINE",
"62 93 LINE",
"62 0 LINE"
);
}
);
width = 495;
}
);
unicode = 0032;
},
{
glyphname = three;
layers = (
{
layerId = "53C92641-43F1-46DD-9425-0FDC2985AE5D";
paths = (
{
closed = 1;
nodes = (
"362 0 LINE SMOOTH",
"401 0 OFFCURVE",
"433 32 OFFCURVE",
"433 72 CURVE SMOOTH",
"433 362 LINE SMOOTH",
"433 371 OFFCURVE",
"432 379 OFFCURVE",
"429 387 CURVE",
"432 395 OFFCURVE",
"433 404 OFFCURVE",
"433 413 CURVE SMOOTH",
"433 629 LINE SMOOTH",
"433 668 OFFCURVE",
"401 700 OFFCURVE",
"362 700 CURVE SMOOTH",
"134 700 LINE SMOOTH",
"94 700 OFFCURVE",
"62 668 OFFCURVE",
"62 629 CURVE SMOOTH",
"62 498 LINE",
"155 477 LINE",
"155 572 LINE SMOOTH",
"155 591 OFFCURVE",
"169 606 OFFCURVE",
"188 608 CURVE",
"188 607 LINE",
"305 607 LINE SMOOTH",
"324 607 OFFCURVE",
"341 591 OFFCURVE",
"341 572 CURVE SMOOTH",
"341 470 LINE SMOOTH",
"341 450 OFFCURVE",
"324 434 OFFCURVE",
"305 434 CURVE SMOOTH",
"234 434 LINE",
"213 341 LINE",
"305 341 LINE SMOOTH",
"324 341 OFFCURVE",
"341 325 OFFCURVE",
"341 305 CURVE SMOOTH",
"341 129 LINE SMOOTH",
"341 109 OFFCURVE",
"324 93 OFFCURVE",
"305 93 CURVE SMOOTH",
"191 93 LINE SMOOTH",
"171 93 OFFCURVE",
"155 109 OFFCURVE",
"155 129 CURVE SMOOTH",
"155 181 LINE",
"62 203 LINE",
"62 72 LINE SMOOTH",
"62 32 OFFCURVE",
"94 0 OFFCURVE",
"134 0 CURVE SMOOTH"
);
}
);
width = 495;
}
);
unicode = 0033;
},
{
glyphname = four;
layers = (
{
layerId = "53C92641-43F1-46DD-9425-0FDC2985AE5D";
paths = (
{
closed = 1;
nodes = (
"403 0 LINE",
"403 248 LINE",
"454 248 LINE",
"432 341 LINE",
"403 341 LINE",
"403 700 LINE",
"310 700 LINE",
"32 341 LINE",
"32 248 LINE",
"310 248 LINE",
"310 0 LINE"
);
},
{
closed = 1;
nodes = (
"310 548 LINE",
"310 341 LINE",
"149 341 LINE"
);
}
);
width = 496;
}
);
unicode = 0034;
},
{
glyphname = five;
layers = (
{
layerId = "53C92641-43F1-46DD-9425-0FDC2985AE5D";
paths = (
{
closed = 1;
nodes = (
"362 0 LINE SMOOTH",
"401 0 OFFCURVE",
"433 32 OFFCURVE",
"433 71 CURVE SMOOTH",
"433 362 LINE SMOOTH",
"433 401 OFFCURVE",
"401 433 OFFCURVE",
"362 433 CURVE SMOOTH",
"191 433 LINE SMOOTH",
"171 433 OFFCURVE",
"155 449 OFFCURVE",
"155 469 CURVE SMOOTH",
"155 607 LINE",
"433 607 LINE",
"433 700 LINE",
"62 700 LINE",
"62 412 LINE SMOOTH",
"62 372 OFFCURVE",
"94 340 OFFCURVE",
"133 340 CURVE SMOOTH",
"304 340 LINE SMOOTH",
"324 340 OFFCURVE",
"340 324 OFFCURVE",
"340 304 CURVE SMOOTH",
"340 129 LINE SMOOTH",
"340 109 OFFCURVE",
"324 93 OFFCURVE",
"304 93 CURVE SMOOTH",
"191 93 LINE SMOOTH",
"171 93 OFFCURVE",
"155 109 OFFCURVE",
"155 129 CURVE SMOOTH",
"155 180 LINE",
"62 203 LINE",
"62 71 LINE SMOOTH",
"62 32 OFFCURVE",
"94 0 OFFCURVE",
"133 0 CURVE SMOOTH"
);
}
);
width = 495;
}
);
unicode = 0035;
},
{
glyphname = six;
layers = (
{
layerId = "53C92641-43F1-46DD-9425-0FDC2985AE5D";
paths = (
{
closed = 1;
nodes = (
"362 0 LINE SMOOTH",
"401 0 OFFCURVE",
"434 32 OFFCURVE",
"434 72 CURVE SMOOTH",
"434 362 LINE SMOOTH",
"434 402 OFFCURVE",
"401 434 OFFCURVE",
"362 434 CURVE SMOOTH",
"155 434 LINE",
"155 571 LINE SMOOTH",
"155 591 OFFCURVE",
"171 607 OFFCURVE",
"191 607 CURVE SMOOTH",
"305 607 LINE SMOOTH",
"325 607 OFFCURVE",
"341 591 OFFCURVE",
"341 571 CURVE SMOOTH",
"341 497 LINE",
"434 519 LINE",
"434 628 LINE SMOOTH",
"434 668 OFFCURVE",
"401 700 OFFCURVE",
"362 700 CURVE SMOOTH",
"134 700 LINE SMOOTH",
"94 700 OFFCURVE",
"62 668 OFFCURVE",
"62 628 CURVE SMOOTH",
"62 72 LINE SMOOTH",
"62 32 OFFCURVE",
"94 0 OFFCURVE",
"134 0 CURVE SMOOTH"
);
},
{
closed = 1;
nodes = (
"171 93 OFFCURVE",
"155 109 OFFCURVE",
"155 129 CURVE SMOOTH",
"155 305 LINE SMOOTH",
"155 325 OFFCURVE",
"171 341 OFFCURVE",
"191 341 CURVE SMOOTH",
"305 341 LINE SMOOTH",
"325 341 OFFCURVE",
"341 325 OFFCURVE",
"341 305 CURVE SMOOTH",
"341 129 LINE SMOOTH",
"341 109 OFFCURVE",
"325 93 OFFCURVE",
"305 93 CURVE SMOOTH",
"191 93 LINE SMOOTH"
);
}
);
width = 496;
}
);
unicode = 0036;
},
{
glyphname = seven;
layers = (
{
layerId = "53C92641-43F1-46DD-9425-0FDC2985AE5D";
paths = (
{
closed = 1;
nodes = (
"155 0 LINE",
"434 700 LINE",
"62 700 LINE",
"62 607 LINE",
"304 607 LINE",
"62 0 LINE"
);
}
);
width = 466;
}
);
unicode = 0037;
},
{
glyphname = eight;
layers = (
{
layerId = "53C92641-43F1-46DD-9425-0FDC2985AE5D";
paths = (
{
closed = 1;
nodes = (
"359 0 LINE SMOOTH",
"399 0 OFFCURVE",
"431 32 OFFCURVE",
"431 72 CURVE SMOOTH",
"431 362 LINE SMOOTH",
"431 393 OFFCURVE",
"412 419 OFFCURVE",
"384 429 CURVE",
"384 628 LINE SMOOTH",
"384 668 OFFCURVE",
"352 700 OFFCURVE",
"313 700 CURVE SMOOTH",
"178 700 LINE SMOOTH",
"138 700 OFFCURVE",
"106 668 OFFCURVE",
"106 628 CURVE SMOOTH",
"106 429 LINE",
"79 419 OFFCURVE",
"60 393 OFFCURVE",
"60 362 CURVE SMOOTH",
"60 72 LINE SMOOTH",
"60 32 OFFCURVE",
"92 0 OFFCURVE",
"131 0 CURVE SMOOTH"
);
},
{
closed = 1;
nodes = (
"169 93 OFFCURVE",
"152 109 OFFCURVE",
"152 129 CURVE SMOOTH",
"152 305 LINE SMOOTH",
"152 325 OFFCURVE",
"169 341 OFFCURVE",
"188 341 CURVE SMOOTH",
"302 341 LINE SMOOTH",
"322 341 OFFCURVE",
"338 325 OFFCURVE",
"338 305 CURVE SMOOTH",
"338 129 LINE SMOOTH",
"338 109 OFFCURVE",
"322 93 OFFCURVE",
"302 93 CURVE SMOOTH",
"188 93 LINE SMOOTH"
);
},
{
closed = 1;
nodes = (
"215 434 OFFCURVE",
"199 450 OFFCURVE",
"199 470 CURVE SMOOTH",
"199 571 LINE SMOOTH",
"199 591 OFFCURVE",
"215 607 OFFCURVE",
"235 607 CURVE SMOOTH",
"256 607 LINE SMOOTH",
"276 607 OFFCURVE",
"292 591 OFFCURVE",
"292 571 CURVE SMOOTH",
"292 470 LINE SMOOTH",
"292 450 OFFCURVE",
"276 434 OFFCURVE",
"256 434 CURVE SMOOTH",
"235 434 LINE SMOOTH"
);
}
);
width = 491;
}
);
unicode = 0038;
},
{
glyphname = nine;
layers = (
{
layerId = "53C92641-43F1-46DD-9425-0FDC2985AE5D";
paths = (
{
closed = 1;
nodes = (
"361 0 LINE SMOOTH",
"401 0 OFFCURVE",
"433 32 OFFCURVE",
"433 72 CURVE SMOOTH",
"433 628 LINE SMOOTH",
"433 668 OFFCURVE",
"401 700 OFFCURVE",
"361 700 CURVE SMOOTH",
"134 700 LINE SMOOTH",
"94 700 OFFCURVE",
"62 668 OFFCURVE",
"62 628 CURVE SMOOTH",
"62 338 LINE SMOOTH",
"62 298 OFFCURVE",
"94 266 OFFCURVE",
"134 266 CURVE SMOOTH",
"340 266 LINE",
"340 129 LINE SMOOTH",
"340 109 OFFCURVE",
"324 93 OFFCURVE",
"304 93 CURVE SMOOTH",
"191 93 LINE SMOOTH",
"171 93 OFFCURVE",
"155 109 OFFCURVE",
"155 128 CURVE SMOOTH",
"155 181 LINE",
"62 202 LINE",
"62 72 LINE SMOOTH",
"62 32 OFFCURVE",
"94 0 OFFCURVE",
"134 0 CURVE SMOOTH"
);
},
{
closed = 1;
nodes = (
"171 359 OFFCURVE",
"155 375 OFFCURVE",
"155 395 CURVE SMOOTH",
"155 571 LINE SMOOTH",
"155 591 OFFCURVE",
"171 607 OFFCURVE",
"191 607 CURVE SMOOTH",
"304 607 LINE SMOOTH",
"324 607 OFFCURVE",
"340 591 OFFCURVE",
"340 571 CURVE SMOOTH",
"340 395 LINE SMOOTH",
"340 375 OFFCURVE",
"324 359 OFFCURVE",
"304 359 CURVE SMOOTH",
"191 359 LINE SMOOTH"
);
}
);
width = 495;
}
);
unicode = 0039;
},
{
glyphname = one.dnom;
layers = (
{
layerId = "53C92641-43F1-46DD-9425-0FDC2985AE5D";
paths = (
{
closed = 1;
nodes = (
"194 0 LINE",
"194 420 LINE",
"75 420 LINE",
"62 344 LINE",
"118 344 LINE",
"118 0 LINE"
);
}
);
width = 276;
}
);
leftMetricsKey = one;
rightMetricsKey = one;
},
{
glyphname = two.dnom;
layers = (
{
layerId = "53C92641-43F1-46DD-9425-0FDC2985AE5D";
paths = (
{
closed = 1;
nodes = (
"305 0 LINE",
"305 76 LINE",
"160 76 LINE",
"305 279 LINE",
"305 377 LINE SMOOTH",
"305 401 OFFCURVE",
"286 420 OFFCURVE",
"262 420 CURVE SMOOTH",
"105 420 LINE SMOOTH",
"81 420 OFFCURVE",
"62 401 OFFCURVE",
"62 377 CURVE SMOOTH",
"62 291 LINE",
"138 279 LINE",
"138 323 LINE SMOOTH",
"138 335 OFFCURVE",
"148 345 OFFCURVE",
"160 345 CURVE SMOOTH",
"208 345 LINE SMOOTH",
"219 345 OFFCURVE",
"229 335 OFFCURVE",
"229 323 CURVE SMOOTH",
"229 291 LINE",
"62 56 LINE",
"62 0 LINE"
);
}
);
width = 367;
}
);
leftMetricsKey = two;
rightMetricsKey = two;
},
{
glyphname = three.dnom;
layers = (
{
layerId = "53C92641-43F1-46DD-9425-0FDC2985AE5D";
paths = (
{
closed = 1;
nodes = (
"262 0 LINE SMOOTH",
"286 0 OFFCURVE",
"305 19 OFFCURVE",
"305 43 CURVE SMOOTH",
"305 217 LINE SMOOTH",
"305 223 OFFCURVE",
"304 227 OFFCURVE",
"302 232 CURVE",
"304 237 OFFCURVE",
"305 242 OFFCURVE",
"305 248 CURVE SMOOTH",
"305 377 LINE SMOOTH",
"305 401 OFFCURVE",
"286 420 OFFCURVE",
"262 420 CURVE SMOOTH",
"105 420 LINE SMOOTH",
"81 420 OFFCURVE",
"62 401 OFFCURVE",
"62 377 CURVE SMOOTH",
"62 299 LINE",
"138 286 LINE",
"138 323 LINE SMOOTH",
"138 335 OFFCURVE",
"146 344 OFFCURVE",
"158 344 CURVE SMOOTH",
"208 344 LINE SMOOTH",
"219 344 OFFCURVE",
"230 335 OFFCURVE",
"230 323 CURVE SMOOTH",
"230 272 LINE SMOOTH",
"230 260 OFFCURVE",
"219 250 OFFCURVE",
"208 250 CURVE SMOOTH",
"165 250 LINE",
"153 175 LINE",
"208 175 LINE SMOOTH",
"219 175 OFFCURVE",
"230 165 OFFCURVE",
"230 153 CURVE SMOOTH",
"230 97 LINE SMOOTH",
"230 85 OFFCURVE",
"219 76 OFFCURVE",
"208 76 CURVE SMOOTH",
"160 76 LINE SMOOTH",
"148 76 OFFCURVE",
"138 85 OFFCURVE",
"138 97 CURVE SMOOTH",
"138 129 LINE",
"62 142 LINE",
"62 43 LINE SMOOTH",
"62 19 OFFCURVE",
"81 0 OFFCURVE",
"105 0 CURVE SMOOTH"
);
}
);
width = 367;
}
);
leftMetricsKey = three;
rightMetricsKey = three;
},
{
glyphname = four.dnom;
layers = (
{
layerId = "53C92641-43F1-46DD-9425-0FDC2985AE5D";
paths = (
{
closed = 1;
nodes = (
"275 0 LINE",
"275 129 LINE",
"305 129 LINE",
"302 205 LINE",
"275 205 LINE",
"275 420 LINE",
"199 420 LINE",
"32 205 LINE",
"32 129 LINE",
"199 129 LINE",
"199 0 LINE"
);
},
{
closed = 1;
nodes = (
"199 306 LINE",
"199 205 LINE",
"120 205 LINE"
);
}
);
width = 347;
}
);
leftMetricsKey = four;
rightMetricsKey = four;
},
{
glyphname = onesuperior;
layers = (
{
layerId = "53C92641-43F1-46DD-9425-0FDC2985AE5D";
paths = (
{
closed = 1;
nodes = (
"194 280 LINE",
"194 700 LINE",
"74.8 700 LINE",
"62 624 LINE",
"118 624 LINE",
"118 280 LINE"
);
}
);
width = 276;
}
);
leftMetricsKey = one;
rightMetricsKey = one;
unicode = 00B9;
},
{
glyphname = twosuperior;
layers = (
{
layerId = "53C92641-43F1-46DD-9425-0FDC2985AE5D";
paths = (
{
closed = 1;
nodes = (
"305 280 LINE",
"305 356 LINE",
"160 356 LINE",
"305 559 LINE",
"305 657 LINE SMOOTH",
"305 681 OFFCURVE",
"286 700 OFFCURVE",
"262 700 CURVE SMOOTH",
"105.4 700 LINE SMOOTH",
"81.4 700 OFFCURVE",
"62.2 680.8 OFFCURVE",
"62.2 657.4 CURVE SMOOTH",
"62 571 LINE",
"138 559 LINE",
"138 603 LINE SMOOTH",
"138 615 OFFCURVE",
"148 625 OFFCURVE",
"160 625 CURVE SMOOTH",
"208 625 LINE SMOOTH",
"219 625 OFFCURVE",
"229 615 OFFCURVE",
"229 603 CURVE SMOOTH",
"229 571 LINE",
"62.2 335.8 LINE",
"62.2 280 LINE"
);
}
);
width = 367;
}
);
leftMetricsKey = two;
rightMetricsKey = two;
unicode = 00B2;
},
{
glyphname = threesuperior;
layers = (
{
layerId = "53C92641-43F1-46DD-9425-0FDC2985AE5D";
paths = (
{
closed = 1;
nodes = (
"262 280 LINE SMOOTH",
"286 280 OFFCURVE",
"305 299 OFFCURVE",
"305 323 CURVE SMOOTH",
"305 497 LINE SMOOTH",
"305 503 OFFCURVE",
"304 507 OFFCURVE",
"302 512 CURVE",
"304 517 OFFCURVE",
"305 522 OFFCURVE",
"305 528 CURVE SMOOTH",
"305 657 LINE SMOOTH",
"305 681 OFFCURVE",
"286 700 OFFCURVE",
"262 700 CURVE SMOOTH",
"105 700 LINE SMOOTH",
"81 700 OFFCURVE",
"62 681 OFFCURVE",
"62 657 CURVE SMOOTH",
"62 579 LINE",
"138 566 LINE",
"138 603 LINE SMOOTH",
"138 615 OFFCURVE",
"146 624 OFFCURVE",
"158 624 CURVE SMOOTH",
"208 624 LINE SMOOTH",
"219 624 OFFCURVE",
"230 615 OFFCURVE",
"230 603 CURVE SMOOTH",
"230 552 LINE SMOOTH",
"230 540 OFFCURVE",
"219 530 OFFCURVE",
"208 530 CURVE SMOOTH",
"165 530 LINE",
"153 455 LINE",
"208 455 LINE SMOOTH",
"219 455 OFFCURVE",
"230 445 OFFCURVE",
"230 433 CURVE SMOOTH",
"230 377 LINE SMOOTH",
"230 365 OFFCURVE",
"219 356 OFFCURVE",
"208 356 CURVE SMOOTH",
"160 356 LINE SMOOTH",
"148 356 OFFCURVE",
"138 365 OFFCURVE",
"138 377 CURVE SMOOTH",
"138 409 LINE",
"62 422 LINE",
"62 323 LINE SMOOTH",
"62 299 OFFCURVE",
"81 280 OFFCURVE",
"105 280 CURVE SMOOTH"
);
}
);
width = 367;
}
);
leftMetricsKey = three;
rightMetricsKey = three;
unicode = 00B3;
},
{
glyphname = foursuperior;
layers = (
{
layerId = "53C92641-43F1-46DD-9425-0FDC2985AE5D";
paths = (
{
closed = 1;
nodes = (
"275 280 LINE",
"275 409 LINE",
"305 409 LINE",
"302 485 LINE",
"275 485 LINE",
"275 700 LINE",
"199 700 LINE",
"32 485 LINE",
"32 409 LINE",
"199 409 LINE",
"199 280 LINE"
);
},
{
closed = 1;
nodes = (
"199 586 LINE",
"199 485 LINE",
"120 485 LINE"
);
}
);
width = 347;
}
);
leftMetricsKey = four;
rightMetricsKey = four;
unicode = 2074;
},
{
glyphname = fraction;
layers = (
{
layerId = "53C92641-43F1-46DD-9425-0FDC2985AE5D";
paths = (
{
closed = 1;
nodes = (
"-87 0 LINE",
"380 700 LINE",
"287 700 LINE",
"-180 0 LINE"
);
}
);
width = 170;
}
);
unicode = 2044;
},
{
glyphname = period;
layers = (
{
layerId = "53C92641-43F1-46DD-9425-0FDC2985AE5D";
paths = (
{
closed = 1;
nodes = (
"134 0 LINE",
"134 94 LINE",
"40 94 LINE",
"40 0 LINE"
);
}
);
width = 174;
}
);
unicode = 002E;
},
{
glyphname = comma;
layers = (
{
layerId = "53C92641-43F1-46DD-9425-0FDC2985AE5D";
paths = (
{
closed = 1;
nodes = (
"134 94 LINE",
"40 94 LINE",
"40 0 LINE",
"134 -85 LINE"
);
}
);
width = 174;
}
);
unicode = 002C;
},
{
glyphname = colon;
layers = (
{
layerId = "53C92641-43F1-46DD-9425-0FDC2985AE5D";
paths = (
{
closed = 1;
nodes = (
"134 406 LINE",
"134 500 LINE",
"40 500 LINE",
"40 406 LINE"
);
},
{
closed = 1;
nodes = (
"134 0 LINE",
"134 94 LINE",
"40 94 LINE",
"40 0 LINE"
);
}
);
width = 174;
}
);
unicode = 003A;
},
{
glyphname = semicolon;
layers = (
{
layerId = "53C92641-43F1-46DD-9425-0FDC2985AE5D";
paths = (
{
closed = 1;
nodes = (
"134 94 LINE",
"40 94 LINE",
"40 0 LINE",
"134 -85 LINE"
);
},
{
closed = 1;
nodes = (
"134 406 LINE",
"134 500 LINE",
"40 500 LINE",
"40 406 LINE"
);
}
);
width = 174;
}
);
unicode = 003B;
},
{
glyphname = ellipsis;
layers = (
{
layerId = "53C92641-43F1-46DD-9425-0FDC2985AE5D";
paths = (
{
closed = 1;
nodes = (
"511 0 LINE",
"511 94 LINE",
"416 94 LINE",
"416 0 LINE"
);
},
{
closed = 1;
nodes = (
"134 0 LINE",
"134 94 LINE",
"40 94 LINE",
"40 0 LINE"
);
},
{
closed = 1;
nodes = (
"322 0 LINE",
"322 94 LINE",
"228 94 LINE",
"228 0 LINE"
);
}
);
width = 551;
}
);
unicode = 2026;
},
{
glyphname = exclam;
layers = (
{
layerId = "53C92641-43F1-46DD-9425-0FDC2985AE5D";
paths = (
{
closed = 1;
nodes = (
"134 187 LINE",
"134 748 LINE",
"40 726 LINE",
"40 187 LINE"
);
},
{
closed = 1;
nodes = (
"134 0 LINE",
"134 94 LINE",
"40 94 LINE",
"40 0 LINE"
);
}
);
width = 174;
}
);
unicode = 0021;
},
{
glyphname = exclamdown;
layers = (
{
layerId = "53C92641-43F1-46DD-9425-0FDC2985AE5D";
paths = (
{
closed = 1;
nodes = (
"134 -226 LINE",
"134 313 LINE",
"40 313 LINE",
"40 -248 LINE"
);
},
{
closed = 1;
nodes = (
"134 406 LINE",
"134 500 LINE",
"40 500 LINE",
"40 406 LINE"
);
}
);
width = 174;
}
);
unicode = 00A1;
},
{
glyphname = question;
layers = (
{
layerId = "53C92641-43F1-46DD-9425-0FDC2985AE5D";
paths = (
{
closed = 1;
nodes = (
"272 185 LINE",
"272 278 LINE",
"411 497 LINE",
"411 628 LINE SMOOTH",
"411 666 OFFCURVE",
"379 700 OFFCURVE",
"339 700 CURVE SMOOTH",
"112 700 LINE SMOOTH",
"72 700 OFFCURVE",
"40 666 OFFCURVE",
"40 628 CURVE SMOOTH",
"40 518 LINE",
"133 497 LINE",
"133 571 LINE SMOOTH",
"133 590 OFFCURVE",
"147 607 OFFCURVE",
"168 607 CURVE SMOOTH",
"282 607 LINE SMOOTH",
"301 607 OFFCURVE",
"318 590 OFFCURVE",
"318 571 CURVE SMOOTH",
"318 518 LINE",
"179 306 LINE",
"179 185 LINE"
);
},
{
closed = 1;
nodes = (
"272 0 LINE",
"272 93 LINE",
"179 93 LINE",
"179 0 LINE"
);
}
);
width = 451;
}
);
unicode = 003F;
},
{
glyphname = questiondown;
layers = (
{
layerId = "53C92641-43F1-46DD-9425-0FDC2985AE5D";
paths = (
{
closed = 1;
nodes = (
"339 -200 LINE SMOOTH",
"379 -200 OFFCURVE",
"411 -166 OFFCURVE",
"411 -128 CURVE SMOOTH",
"411 -18 LINE",
"318 3 LINE",
"318 -71 LINE SMOOTH",
"318 -90 OFFCURVE",
"304 -107 OFFCURVE",
"283 -107 CURVE SMOOTH",
"169 -107 LINE SMOOTH",
"150 -107 OFFCURVE",
"133 -90 OFFCURVE",
"133 -71 CURVE SMOOTH",
"133 -18 LINE",
"272 194 LINE",
"272 315 LINE",
"179 315 LINE",
"179 222 LINE",
"40 3 LINE",
"40 -128 LINE SMOOTH",
"40 -166 OFFCURVE",
"72 -200 OFFCURVE",
"112 -200 CURVE SMOOTH"
);
},
{
closed = 1;
nodes = (
"272 407 LINE",
"272 500 LINE",
"179 500 LINE",
"179 407 LINE"
);
}
);
width = 451;
}
);
unicode = 00BF;
},
{
glyphname = periodcentered;
layers = (
{
layerId = "53C92641-43F1-46DD-9425-0FDC2985AE5D";
paths = (
{
closed = 1;
nodes = (
"134 201 LINE",
"134 295 LINE",
"40 295 LINE",
"40 201 LINE"
);
}
);
width = 174;
}
);
unicode = 00B7;
},
{
glyphname = bullet;
layers = (
{
layerId = "53C92641-43F1-46DD-9425-0FDC2985AE5D";
paths = (
{
closed = 1;
nodes = (
"467 0 LINE SMOOTH",
"507 0 OFFCURVE",
"540 32 OFFCURVE",
"540 73 CURVE SMOOTH",
"540 427 LINE SMOOTH",
"540 467 OFFCURVE",
"507 500 OFFCURVE",
"467 500 CURVE SMOOTH",
"113 500 LINE SMOOTH",
"73 500 OFFCURVE",
"40 467 OFFCURVE",
"40 427 CURVE SMOOTH",
"40 73 LINE SMOOTH",
"40 32 OFFCURVE",
"73 0 OFFCURVE",
"113 0 CURVE SMOOTH"
);
}
);
width = 580;
}
);
unicode = 2022;
},
{
glyphname = asterisk;
layers = (
{
layerId = "53C92641-43F1-46DD-9425-0FDC2985AE5D";
paths = (
{
closed = 1;
nodes = (
"231 500 LINE",
"231 540 LINE",
"259 513 LINE",
"294 548 LINE",
"266 575 LINE",
"306 575 LINE",
"306 625 LINE",
"266 625 LINE",
"294 654 LINE",
"259 689 LINE",
"231 660 LINE",
"231 700 LINE",
"181 700 LINE",
"181 660 LINE",
"153 689 LINE",
"118 654 LINE",
"146 625 LINE",
"106 625 LINE",
"106 575 LINE",
"146 575 LINE",
"118 548 LINE",
"153 513 LINE",
"181 540 LINE",
"181 500 LINE"
);
}
);
width = 455;
}
);
unicode = 002A;
},
{
glyphname = numbersign;
layers = (
{
layerId = "53C92641-43F1-46DD-9425-0FDC2985AE5D";
paths = (
{
closed = 1;
nodes = (
"194 0 LINE",
"237 216 LINE",
"341 216 LINE",
"299 0 LINE",
"392 0 LINE",
"434 216 LINE",
"524 216 LINE",
"545 309 LINE",
"452 309 LINE",
"470 402 LINE",
"567 402 LINE",
"588 494 LINE",
"488 494 LINE",
"529 700 LINE",
"436 700 LINE",
"396 494 LINE",
"291 494 LINE",
"332 700 LINE",
"239 700 LINE",
"198 494 LINE",
"105 494 LINE",
"84 402 LINE",
"180 402 LINE",
"162 309 LINE",
"61 309 LINE",
"40 216 LINE",
"144 216 LINE",
"101 0 LINE"
);
},
{
closed = 1;
nodes = (
"273 402 LINE",
"377 402 LINE",
"359 309 LINE",
"255 309 LINE"
);
}
);
width = 628;
}
);
unicode = 0023;
},
{
glyphname = slash;
layers = (
{
layerId = "53C92641-43F1-46DD-9425-0FDC2985AE5D";
paths = (
{
closed = 1;
nodes = (
"113 0 LINE",
"392 700 LINE",
"299 700 LINE",
"20 0 LINE"
);
}
);
width = 412;
}
);
unicode = 002F;
},
{
glyphname = backslash;
layers = (
{
layerId = "53C92641-43F1-46DD-9425-0FDC2985AE5D";
paths = (
{
closed = 1;
nodes = (
"392 0 LINE",
"113 700 LINE",
"20 700 LINE",
"299 0 LINE"
);
}
);
width = 412;
}
);
unicode = 005C;
},
{
glyphname = parenleft;
layers = (
{
layerId = "53C92641-43F1-46DD-9425-0FDC2985AE5D";
paths = (
{
closed = 1;
nodes = (
"247 -148 LINE",
"226 -55 LINE",
"169 -55 LINE SMOOTH",
"148 -55 OFFCURVE",
"133 -38 OFFCURVE",
"133 -19 CURVE SMOOTH",
"133 719 LINE SMOOTH",
"133 738 OFFCURVE",
"148 755 OFFCURVE",
"169 755 CURVE SMOOTH",
"226 755 LINE",
"247 848 LINE",
"112 848 LINE SMOOTH",
"72 848 OFFCURVE",
"40 814 OFFCURVE",
"40 776 CURVE SMOOTH",
"40 -76 LINE SMOOTH",
"40 -116 OFFCURVE",
"72 -148 OFFCURVE",
"112 -148 CURVE SMOOTH"
);
}
);
width = 287;
}
);
unicode = 0028;
},
{
glyphname = parenright;
layers = (
{
layerId = "53C92641-43F1-46DD-9425-0FDC2985AE5D";
paths = (
{
closed = 1;
nodes = (
"175 -148 LINE SMOOTH",
"215 -148 OFFCURVE",
"247 -116 OFFCURVE",
"247 -76 CURVE SMOOTH",
"247 776 LINE SMOOTH",
"247 814 OFFCURVE",
"215 848 OFFCURVE",
"175 848 CURVE SMOOTH",
"40 848 LINE",
"61 755 LINE",
"118 755 LINE SMOOTH",
"139 755 OFFCURVE",
"154 738 OFFCURVE",
"154 719 CURVE SMOOTH",
"154 -19 LINE SMOOTH",
"154 -38 OFFCURVE",
"139 -55 OFFCURVE",
"118 -55 CURVE SMOOTH",
"61 -55 LINE",
"40 -148 LINE"
);
}
);
width = 287;
}
);
unicode = 0029;
},
{
glyphname = braceleft;
layers = (
{
layerId = "53C92641-43F1-46DD-9425-0FDC2985AE5D";
paths = (
{
closed = 1;
nodes = (
"339 -148 LINE",
"318 -55 LINE",
"261 -55 LINE SMOOTH",
"242 -55 OFFCURVE",
"225 -38 OFFCURVE",
"225 -19 CURVE SMOOTH",
"225 719 LINE SMOOTH",
"225 738 OFFCURVE",
"242 754 OFFCURVE",
"261 754 CURVE SMOOTH",
"318 754 LINE",
"339 847 LINE",
"204 847 LINE SMOOTH",
"164 847 OFFCURVE",
"133 813 OFFCURVE",
"133 776 CURVE SMOOTH",
"133 432 LINE",
"61 432 LINE",
"40 339 LINE",
"133 339 LINE",
"133 -76 LINE SMOOTH",
"133 -116 OFFCURVE",
"164 -148 OFFCURVE",
"204 -148 CURVE SMOOTH"
);
}
);
width = 379;
}
);
unicode = 007B;
},
{
glyphname = braceright;
layers = (
{
layerId = "53C92641-43F1-46DD-9425-0FDC2985AE5D";
paths = (
{
closed = 1;
nodes = (
"175 -148 LINE SMOOTH",
"215 -148 OFFCURVE",
"246 -116 OFFCURVE",
"246 -76 CURVE SMOOTH",
"246 339 LINE",
"339 339 LINE",
"318 432 LINE",
"246 432 LINE",
"246 776 LINE SMOOTH",
"246 813 OFFCURVE",
"215 847 OFFCURVE",
"175 847 CURVE SMOOTH",
"40 847 LINE",
"61 754 LINE",
"118 754 LINE SMOOTH",
"137 754 OFFCURVE",
"154 738 OFFCURVE",
"154 719 CURVE SMOOTH",
"154 -19 LINE SMOOTH",
"154 -38 OFFCURVE",
"137 -55 OFFCURVE",
"118 -55 CURVE SMOOTH",
"61 -55 LINE",
"40 -148 LINE"
);
}
);
width = 379;
}
);
unicode = 007D;
},
{
glyphname = bracketleft;
layers = (
{
layerId = "53C92641-43F1-46DD-9425-0FDC2985AE5D";
paths = (
{
closed = 1;
nodes = (
"246 -148 LINE",
"225 -55 LINE",
"132 -55 LINE",
"132 755 LINE",
"225 755 LINE",
"246 847 LINE",
"40 847 LINE",
"40 -148 LINE"
);
}
);
width = 286;
}
);
unicode = 005B;
},
{
glyphname = bracketright;
layers = (
{
layerId = "53C92641-43F1-46DD-9425-0FDC2985AE5D";
paths = (
{
closed = 1;
nodes = (
"247 -148 LINE",
"247 847 LINE",
"40 847 LINE",
"62 755 LINE",
"154 755 LINE",
"154 -55 LINE",
"62 -55 LINE",
"40 -148 LINE"
);
}
);
width = 287;
}
);
unicode = 005D;
},
{
glyphname = hyphen;
layers = (
{
layerId = "53C92641-43F1-46DD-9425-0FDC2985AE5D";
paths = (
{
closed = 1;
nodes = (
"321 208 LINE",
"321 302 LINE",
"40 302 LINE",
"40 208 LINE"
);
}
);
width = 361;
}
);
unicode = 002D;
},
{
glyphname = endash;
layers = (
{
layerId = "53C92641-43F1-46DD-9425-0FDC2985AE5D";
paths = (
{
closed = 1;
nodes = (
"415 345 LINE",
"415 439 LINE",
"40 439 LINE",
"40 345 LINE"
);
}
);
width = 455;
}
);
unicode = 2013;
},
{
glyphname = emdash;
layers = (
{
layerId = "53C92641-43F1-46DD-9425-0FDC2985AE5D";
paths = (
{
closed = 1;
nodes = (
"740 208 LINE",
"740 302 LINE",
"40 302 LINE",
"40 208 LINE"
);
}
);
width = 780;
}
);
unicode = 2014;
},
{
glyphname = underscore;
layers = (
{
layerId = "53C92641-43F1-46DD-9425-0FDC2985AE5D";
paths = (
{
closed = 1;
nodes = (
"415 0 LINE",
"415 47 LINE",
"40 47 LINE",
"40 0 LINE"
);
}
);
width = 455;
}
);
unicode = 005F;
},
{
glyphname = quotedblleft;
layers = (
{
layerId = "53C92641-43F1-46DD-9425-0FDC2985AE5D";
paths = (
{
closed = 1;
nodes = (
"322 606 LINE",
"322 700 LINE",
"228 785 LINE",
"228 606 LINE"
);
},
{
closed = 1;
nodes = (
"134 606 LINE",
"134 700 LINE",
"40 785 LINE",
"40 606 LINE"
);
}
);
width = 362;
}
);
unicode = 201C;
},
{
glyphname = quotedblright;
layers = (
{
layerId = "53C92641-43F1-46DD-9425-0FDC2985AE5D";
paths = (
{
closed = 1;
nodes = (
"322 700 LINE",
"228 700 LINE",
"228 606 LINE",
"322 521 LINE"
);
},
{
closed = 1;
nodes = (
"134 700 LINE",
"40 700 LINE",
"40 606 LINE",
"134 521 LINE"
);
}
);
width = 362;
}
);
unicode = 201D;
},
{
glyphname = quoteleft;
layers = (
{
layerId = "53C92641-43F1-46DD-9425-0FDC2985AE5D";
paths = (
{
closed = 1;
nodes = (
"134 606 LINE",
"134 700 LINE",
"40 785 LINE",
"40 606 LINE"
);
}
);
width = 174;
}
);
unicode = 2018;
},
{
glyphname = quoteright;
layers = (
{
layerId = "53C92641-43F1-46DD-9425-0FDC2985AE5D";
paths = (
{
closed = 1;
nodes = (
"134 700 LINE",
"40 700 LINE",
"40 606 LINE",
"134 521 LINE"
);
}
);
width = 174;
}
);
unicode = 2019;
},
{
glyphname = guillemetleft;
layers = (
{
layerId = "53C92641-43F1-46DD-9425-0FDC2985AE5D";
paths = (
{
closed = 1;
nodes = (
"645 100 LINE",
"414 250 LINE",
"645 401 LINE",
"522 401 LINE",
"291 250 LINE",
"523 100 LINE"
);
},
{
closed = 1;
nodes = (
"394 100 LINE",
"163 250 LINE",
"394 401 LINE",
"271 401 LINE",
"40 250 LINE",
"271 100 LINE"
);
}
);
width = 685;
}
);
unicode = 00AB;
},
{
glyphname = guillemetright;
layers = (
{
layerId = "53C92641-43F1-46DD-9425-0FDC2985AE5D";
paths = (
{
closed = 1;
nodes = (
"414 100 LINE",
"645 251 LINE",
"414 401 LINE",
"291 401 LINE",
"522 251 LINE",
"291 100 LINE"
);
},
{
closed = 1;
nodes = (
"163 100 LINE",
"394 251 LINE",
"162 401 LINE",
"40 401 LINE",
"271 251 LINE",
"40 100 LINE"
);
}
);
width = 685;
}
);
unicode = 00BB;
},
{
glyphname = guilsinglleft;
layers = (
{
layerId = "53C92641-43F1-46DD-9425-0FDC2985AE5D";
paths = (
{
closed = 1;
nodes = (
"394 100 LINE",
"163 250 LINE",
"394 401 LINE",
"271 401 LINE",
"40 250 LINE",
"271 100 LINE"
);
}
);
width = 434;
}
);
unicode = 2039;
},
{
glyphname = guilsinglright;
layers = (
{
layerId = "53C92641-43F1-46DD-9425-0FDC2985AE5D";
paths = (
{
closed = 1;
nodes = (
"163 101 LINE",
"394 252 LINE",
"163 402 LINE",
"40 402 LINE",
"271 252 LINE",
"40 101 LINE"
);
}
);
width = 434;
}
);
unicode = 203A;
},
{
glyphname = quotedbl;
layers = (
{
layerId = "53C92641-43F1-46DD-9425-0FDC2985AE5D";
paths = (
{
closed = 1;
nodes = (
"322 700 LINE",
"228 700 LINE",
"228 606 LINE",
"322 521 LINE"
);
},
{
closed = 1;
nodes = (
"134 700 LINE",
"40 700 LINE",
"40 606 LINE",
"134 521 LINE"
);
}
);
width = 362;
}
);
unicode = 0022;
},
{
glyphname = quotesingle;
layers = (
{
layerId = "53C92641-43F1-46DD-9425-0FDC2985AE5D";
paths = (
{
closed = 1;
nodes = (
"134 700 LINE",
"40 700 LINE",
"40 606 LINE",
"134 521 LINE"
);
}
);
width = 174;
}
);
unicode = 0027;
},
{
glyphname = cent;
layers = (
{
layerId = "53C92641-43F1-46DD-9425-0FDC2985AE5D";
paths = (
{
closed = 1;
nodes = (
"226 0 LINE",
"226 104 LINE",
"247 104 LINE SMOOTH",
"285 104 OFFCURVE",
"319 135 OFFCURVE",
"319 176 CURVE SMOOTH",
"319 283 LINE",
"226 283 LINE",
"226 232 LINE SMOOTH",
"226 213 OFFCURVE",
"209 196 OFFCURVE",
"190 196 CURVE SMOOTH",
"169 196 LINE SMOOTH",
"148 196 OFFCURVE",
"133 213 OFFCURVE",
"133 232 CURVE SMOOTH",
"133 468 LINE SMOOTH",
"133 489 OFFCURVE",
"148 504 OFFCURVE",
"169 504 CURVE SMOOTH",
"190 504 LINE SMOOTH",
"209 504 OFFCURVE",
"226 489 OFFCURVE",
"226 468 CURVE SMOOTH",
"226 417 LINE",
"319 417 LINE",
"319 525 LINE SMOOTH",
"319 565 OFFCURVE",
"285 597 OFFCURVE",
"247 597 CURVE SMOOTH",
"226 597 LINE",
"226 700 LINE",
"133 700 LINE",
"133 597 LINE",
"112 597 LINE SMOOTH",
"72 597 OFFCURVE",
"40 565 OFFCURVE",
"40 525 CURVE SMOOTH",
"40 176 LINE SMOOTH",
"40 135 OFFCURVE",
"72 104 OFFCURVE",
"112 104 CURVE SMOOTH",
"133 104 LINE",
"133 0 LINE"
);
}
);
width = 359;
}
);
unicode = 00A2;
},
{
glyphname = currency;
layers = (
{
layerId = "53C92641-43F1-46DD-9425-0FDC2985AE5D";
paths = (
{
closed = 1;
nodes = (
"134 -43 LINE",
"156 0 LINE",
"160 0 LINE",
"297 0 LINE",
"303 0 LINE",
"322 -43 LINE",
"416 -43 LINE",
"369 58 LINE",
"369 73 LINE",
"369 427 LINE",
"369 442 LINE",
"416 543 LINE",
"322 543 LINE",
"303 500 LINE",
"297 500 LINE",
"160 500 LINE",
"156 500 LINE",
"134 543 LINE",
"40 543 LINE",
"89 442 LINE",
"89 438 OFFCURVE",
"87 432 OFFCURVE",
"87 427 CURVE SMOOTH",
"87 73 LINE SMOOTH",
"87 68 OFFCURVE",
"89 62 OFFCURVE",
"89 58 CURVE",
"40 -43 LINE"
);
},
{
closed = 1;
nodes = (
"198 94 OFFCURVE",
"181 111 OFFCURVE",
"181 130 CURVE SMOOTH",
"181 370 LINE SMOOTH",
"181 391 OFFCURVE",
"198 406 OFFCURVE",
"217 406 CURVE SMOOTH",
"239 406 LINE SMOOTH",
"260 406 OFFCURVE",
"275 391 OFFCURVE",
"275 370 CURVE SMOOTH",
"275 130 LINE SMOOTH",
"275 111 OFFCURVE",
"260 94 OFFCURVE",
"239 94 CURVE SMOOTH",
"217 94 LINE SMOOTH"
);
}
);
width = 456;
}
);
unicode = 00A4;
},
{
glyphname = dollar;
layers = (
{
layerId = "53C92641-43F1-46DD-9425-0FDC2985AE5D";
paths = (
{
closed = 1;
nodes = (
"225 0 LINE",
"225 103 LINE",
"246 103 LINE SMOOTH",
"285 103 OFFCURVE",
"316 133 OFFCURVE",
"318 171 CURVE",
"318 325 LINE SMOOTH",
"318 364 OFFCURVE",
"286 397 OFFCURVE",
"246 397 CURVE SMOOTH",
"169 397 LINE SMOOTH",
"149 397 OFFCURVE",
"133 413 OFFCURVE",
"133 433 CURVE SMOOTH",
"133 469 LINE SMOOTH",
"133 488 OFFCURVE",
"149 504 OFFCURVE",
"169 504 CURVE SMOOTH",
"190 504 LINE SMOOTH",
"209 504 OFFCURVE",
"225 488 OFFCURVE",
"225 469 CURVE SMOOTH",
"225 443 LINE",
"318 443 LINE",
"318 526 LINE SMOOTH",
"318 565 OFFCURVE",
"286 597 OFFCURVE",
"246 597 CURVE SMOOTH",
"225 597 LINE",
"225 700 LINE",
"133 700 LINE",
"133 597 LINE",
"112 597 LINE SMOOTH",
"72 597 OFFCURVE",
"40 565 OFFCURVE",
"40 526 CURVE SMOOTH",
"40 376 LINE SMOOTH",
"40 336 OFFCURVE",
"72 304 OFFCURVE",
"112 304 CURVE SMOOTH",
"190 304 LINE SMOOTH",
"209 304 OFFCURVE",
"225 288 OFFCURVE",
"225 268 CURVE SMOOTH",
"225 232 LINE SMOOTH",
"225 212 OFFCURVE",
"209 196 OFFCURVE",
"190 196 CURVE SMOOTH",
"169 196 LINE SMOOTH",
"149 196 OFFCURVE",
"133 212 OFFCURVE",
"133 232 CURVE SMOOTH",
"133 257 LINE",
"40 257 LINE",
"40 175 LINE SMOOTH",
"40 135 OFFCURVE",
"72 103 OFFCURVE",
"112 103 CURVE SMOOTH",
"133 103 LINE",
"133 0 LINE"
);
}
);
width = 358;
}
);
unicode = 0024;
},
{
glyphname = euro;
layers = (
{
layerId = "53C92641-43F1-46DD-9425-0FDC2985AE5D";
paths = (
{
closed = 1;
nodes = (
"405 0 LINE SMOOTH",
"445 0 OFFCURVE",
"477 32 OFFCURVE",
"477 72 CURVE SMOOTH",
"477 181 LINE",
"384 160 LINE",
"384 129 LINE SMOOTH",
"384 109 OFFCURVE",
"368 93 OFFCURVE",
"348 93 CURVE SMOOTH",
"235 93 LINE SMOOTH",
"215 93 OFFCURVE",
"199 109 OFFCURVE",
"199 129 CURVE SMOOTH",
"199 231 LINE",
"342 231 LINE",
"363 324 LINE",
"199 324 LINE",
"199 363 LINE",
"342 363 LINE",
"363 456 LINE",
"199 456 LINE",
"199 572 LINE SMOOTH",
"199 592 OFFCURVE",
"215 608 OFFCURVE",
"235 608 CURVE SMOOTH",
"348 608 LINE SMOOTH",
"368 608 OFFCURVE",
"384 592 OFFCURVE",
"384 572 CURVE SMOOTH",
"384 519 LINE",
"477 540 LINE",
"477 628 LINE SMOOTH",
"477 668 OFFCURVE",
"445 700 OFFCURVE",
"405 700 CURVE SMOOTH",
"178 700 LINE SMOOTH",
"138 700 OFFCURVE",
"106 668 OFFCURVE",
"106 628 CURVE SMOOTH",
"106 456 LINE",
"51 456 LINE",
"30 363 LINE",
"106 363 LINE",
"106 324 LINE",
"51 324 LINE",
"30 231 LINE",
"106 231 LINE",
"106 72 LINE SMOOTH",
"106 32 OFFCURVE",
"138 0 OFFCURVE",
"178 0 CURVE SMOOTH"
);
}
);
width = 517;
}
);
unicode = 20AC;
},
{
glyphname = sterling;
layers = (
{
layerId = "53C92641-43F1-46DD-9425-0FDC2985AE5D";
paths = (
{
closed = 1;
nodes = (
"458 0 LINE",
"458 93 LINE",
"179 93 LINE",
"179 341 LINE",
"344 341 LINE",
"365 434 LINE",
"179 434 LINE",
"179 571 LINE SMOOTH",
"179 591 OFFCURVE",
"195 607 OFFCURVE",
"215 607 CURVE SMOOTH",
"329 607 LINE SMOOTH",
"349 607 OFFCURVE",
"365 591 OFFCURVE",
"365 571 CURVE SMOOTH",
"365 497 LINE",
"458 518 LINE",
"458 628 LINE SMOOTH",
"458 667 OFFCURVE",
"426 700 OFFCURVE",
"386 700 CURVE SMOOTH",
"158 700 LINE SMOOTH",
"119 700 OFFCURVE",
"87 667 OFFCURVE",
"87 628 CURVE SMOOTH",
"87 93 LINE",
"61 93 LINE",
"40 0 LINE"
);
}
);
width = 498;
}
);
unicode = 00A3;
},
{
glyphname = yen;
layers = (
{
layerId = "53C92641-43F1-46DD-9425-0FDC2985AE5D";
paths = (
{
closed = 1;
nodes = (
"272 0 LINE",
"272 139 LINE",
"411 139 LINE",
"411 232 LINE",
"272 232 LINE",
"272 340 LINE",
"411 340 LINE",
"411 433 LINE",
"307 433 LINE",
"409 700 LINE",
"316 700 LINE",
"225 462 LINE",
"135 700 LINE",
"42 700 LINE",
"144 433 LINE",
"40 433 LINE",
"40 340 LINE",
"179 340 LINE",
"179 232 LINE",
"40 232 LINE",
"40 139 LINE",
"179 139 LINE",
"179 0 LINE"
);
}
);
width = 451;
}
);
unicode = 00A5;
},
{
glyphname = plus;
layers = (
{
layerId = "53C92641-43F1-46DD-9425-0FDC2985AE5D";
paths = (
{
closed = 1;
nodes = (
"275 62 LINE",
"275 203 LINE",
"415 203 LINE",
"415 297 LINE",
"275 297 LINE",
"275 438 LINE",
"181 438 LINE",
"181 297 LINE",
"40 297 LINE",
"40 203 LINE",
"181 203 LINE",
"181 62 LINE"
);
}
);
width = 455;
}
);
unicode = 002B;
},
{
glyphname = minus;
layers = (
{
layerId = "53C92641-43F1-46DD-9425-0FDC2985AE5D";
paths = (
{
closed = 1;
nodes = (
"415 203 LINE",
"415 297 LINE",
"40 297 LINE",
"40 203 LINE"
);
}
);
width = 455;
}
);
unicode = 2212;
},
{
glyphname = multiply;
layers = (
{
layerId = "53C92641-43F1-46DD-9425-0FDC2985AE5D";
paths = (
{
closed = 1;
nodes = (
"206 183 LINE",
"305 84 LINE",
"372 150 LINE",
"272 250 LINE",
"372 349 LINE",
"305 416 LINE",
"206 316 LINE",
"106 416 LINE",
"40 349 LINE",
"140 250 LINE",
"40 150 LINE",
"106 84 LINE"
);
}
);
width = 412;
}
);
unicode = 00D7;
},
{
glyphname = divide;
layers = (
{
layerId = "53C92641-43F1-46DD-9425-0FDC2985AE5D";
paths = (
{
closed = 1;
nodes = (
"400 205 LINE",
"400 295 LINE",
"40 295 LINE",
"40 205 LINE"
);
},
{
closed = 1;
nodes = (
"265 20 LINE",
"265 111 LINE",
"175 90 LINE",
"175 0 LINE"
);
},
{
closed = 1;
nodes = (
"265 410 LINE",
"265 500 LINE",
"175 479 LINE",
"175 389 LINE"
);
}
);
width = 440;
}
);
unicode = 00F7;
},
{
glyphname = equal;
layers = (
{
layerId = "53C92641-43F1-46DD-9425-0FDC2985AE5D";
paths = (
{
closed = 1;
nodes = (
"415 305 LINE",
"415 399 LINE",
"40 399 LINE",
"40 305 LINE"
);
},
{
closed = 1;
nodes = (
"415 101 LINE",
"415 195 LINE",
"40 195 LINE",
"40 101 LINE"
);
}
);
width = 455;
}
);
unicode = 003D;
},
{
glyphname = notequal;
layers = (
{
layerId = "53C92641-43F1-46DD-9425-0FDC2985AE5D";
paths = (
{
closed = 1;
nodes = (
"120 0 LINE",
"180 123 LINE",
"362 123 LINE",
"362 203 LINE",
"219 203 LINE",
"264 297 LINE",
"362 297 LINE",
"362 377 LINE",
"303 377 LINE",
"362 500 LINE",
"281 500 LINE",
"222 377 LINE",
"40 377 LINE",
"40 297 LINE",
"183 297 LINE",
"138 203 LINE",
"40 203 LINE",
"40 123 LINE",
"99 123 LINE",
"40 0 LINE"
);
}
);
width = 402;
}
);
unicode = 2260;
},
{
glyphname = greater;
layers = (
{
layerId = "53C92641-43F1-46DD-9425-0FDC2985AE5D";
paths = (
{
closed = 1;
nodes = (
"172 0 LINE",
"419 250 LINE",
"171 500 LINE",
"40 500 LINE",
"288 250 LINE",
"40 0 LINE"
);
}
);
width = 459;
}
);
unicode = 003E;
},
{
glyphname = less;
layers = (
{
layerId = "53C92641-43F1-46DD-9425-0FDC2985AE5D";
paths = (
{
closed = 1;
nodes = (
"419 1 LINE",
"171 251 LINE",
"419 501 LINE",
"287 501 LINE",
"40 251 LINE",
"288 1 LINE"
);
}
);
width = 459;
}
);
unicode = 003C;
},
{
glyphname = greaterequal;
layers = (
{
layerId = "53C92641-43F1-46DD-9425-0FDC2985AE5D";
paths = (
{
closed = 1;
nodes = (
"417 308 LINE",
"417 403 LINE",
"40 548 LINE",
"40 454 LINE",
"297 355 LINE",
"40 255 LINE",
"40 161 LINE"
);
},
{
closed = 1;
nodes = (
"417 0 LINE",
"417 94 LINE",
"40 94 LINE",
"40 0 LINE"
);
}
);
width = 457;
}
);
unicode = 2265;
},
{
glyphname = lessequal;
layers = (
{
layerId = "53C92641-43F1-46DD-9425-0FDC2985AE5D";
paths = (
{
closed = 1;
nodes = (
"417 255 LINE",
"160 355 LINE",
"417 454 LINE",
"417 548 LINE",
"40 403 LINE",
"40 308 LINE",
"417 161 LINE"
);
},
{
closed = 1;
nodes = (
"417 0 LINE",
"417 94 LINE",
"40 94 LINE",
"40 0 LINE"
);
}
);
width = 457;
}
);
unicode = 2264;
},
{
glyphname = plusminus;
layers = (
{
layerId = "53C92641-43F1-46DD-9425-0FDC2985AE5D";
paths = (
{
closed = 1;
nodes = (
"276 233 LINE",
"276 306 LINE",
"417 306 LINE",
"417 400 LINE",
"276 400 LINE",
"276 475 LINE",
"182 475 LINE",
"182 400 LINE",
"40 400 LINE",
"40 306 LINE",
"182 306 LINE",
"182 233 LINE"
);
},
{
closed = 1;
nodes = (
"417 0 LINE",
"417 94 LINE",
"40 94 LINE",
"40 0 LINE"
);
}
);
width = 457;
}
);
unicode = 00B1;
},
{
glyphname = approxequal;
layers = (
{
layerId = "53C92641-43F1-46DD-9425-0FDC2985AE5D";
paths = (
{
closed = 1;
nodes = (
"137 266 LINE",
"169 298 LINE",
"200 266 LINE",
"298 266 LINE",
"378 349 LINE",
"281 349 LINE",
"249 315 LINE",
"217 349 LINE",
"120 349 LINE",
"40 266 LINE"
);
},
{
closed = 1;
nodes = (
"137 150 LINE",
"169 182 LINE",
"200 150 LINE",
"298 150 LINE",
"378 233 LINE",
"281 233 LINE",
"249 199 LINE",
"217 233 LINE",
"120 233 LINE",
"40 150 LINE"
);
}
);
width = 418;
}
);
unicode = 2248;
},
{
glyphname = asciitilde;
layers = (
{
layerId = "53C92641-43F1-46DD-9425-0FDC2985AE5D";
paths = (
{
closed = 1;
nodes = (
"137 204 LINE",
"169 236 LINE",
"200 204 LINE",
"298 204 LINE",
"378 287 LINE",
"281 287 LINE",
"249 253 LINE",
"217 287 LINE",
"120 287 LINE",
"40 204 LINE"
);
}
);
width = 418;
}
);
unicode = 007E;
},
{
glyphname = logicalnot;
layers = (
{
layerId = "53C92641-43F1-46DD-9425-0FDC2985AE5D";
paths = (
{
closed = 1;
nodes = (
"417 206 LINE",
"417 400 LINE",
"40 400 LINE",
"40 306 LINE",
"323 306 LINE",
"323 206 LINE"
);
}
);
width = 457;
}
);
unicode = 00AC;
},
{
glyphname = asciicircum;
layers = (
{
layerId = "53C92641-43F1-46DD-9425-0FDC2985AE5D";
paths = (
{
closed = 1;
nodes = (
"130 500 LINE",
"164 586 LINE",
"199 500 LINE",
"289 500 LINE",
"209 700 LINE",
"120 700 LINE",
"40 500 LINE"
);
}
);
width = 329;
}
);
unicode = 005E;
},
{
glyphname = infinity;
layers = (
{
layerId = "53C92641-43F1-46DD-9425-0FDC2985AE5D";
paths = (
{
closed = 1;
nodes = (
"390 304 LINE",
"654 199 LINE SMOOTH",
"695 182 OFFCURVE",
"740 213 OFFCURVE",
"740 257 CURVE SMOOTH",
"740 443 LINE SMOOTH",
"740 487 OFFCURVE",
"695 518 OFFCURVE",
"654 501 CURVE SMOOTH",
"390 396 LINE",
"127 501 LINE SMOOTH",
"85 518 OFFCURVE",
"40 487 OFFCURVE",
"40 443 CURVE SMOOTH",
"40 257 LINE SMOOTH",
"40 213 OFFCURVE",
"85 182 OFFCURVE",
"127 199 CURVE SMOOTH"
);
},
{
closed = 1;
nodes = (
"159 304 OFFCURVE",
"133 322 OFFCURVE",
"133 347 CURVE SMOOTH",
"133 353 LINE SMOOTH",
"133 378 OFFCURVE",
"159 396 OFFCURVE",
"182 386 CURVE SMOOTH",
"274 350 LINE",
"182 314 LINE SMOOTH"
);
},
{
closed = 1;
nodes = (
"507 350 LINE",
"598 386 LINE SMOOTH",
"622 396 OFFCURVE",
"648 378 OFFCURVE",
"648 353 CURVE SMOOTH",
"648 347 LINE SMOOTH",
"648 322 OFFCURVE",
"622 304 OFFCURVE",
"598 314 CURVE SMOOTH"
);
}
);
width = 780;
}
);
unicode = 221E;
},
{
glyphname = integral;
layers = (
{
layerId = "53C92641-43F1-46DD-9425-0FDC2985AE5D";
paths = (
{
closed = 1;
nodes = (
"229 0 LINE",
"473 606 LINE",
"606 606 LINE",
"606 700 LINE",
"417 700 LINE",
"173 94 LINE",
"40 94 LINE",
"40 0 LINE"
);
}
);
width = 646;
}
);
unicode = 222B;
},
{
glyphname = product;
layers = (
{
layerId = "53C92641-43F1-46DD-9425-0FDC2985AE5D";
paths = (
{
closed = 1;
nodes = (
"242 0 LINE",
"242 607 LINE",
"427 607 LINE",
"427 0 LINE",
"520 0 LINE",
"520 607 LINE",
"629 607 LINE",
"629 700 LINE",
"40 700 LINE",
"40 607 LINE",
"149 607 LINE",
"149 0 LINE"
);
}
);
width = 669;
}
);
unicode = 220F;
},
{
glyphname = summation;
layers = (
{
layerId = "53C92641-43F1-46DD-9425-0FDC2985AE5D";
paths = (
{
closed = 1;
nodes = (
"412 0 LINE",
"391 93 LINE",
"171 93 LINE",
"273 349 LINE",
"171 607 LINE",
"391 607 LINE",
"412 700 LINE",
"40 700 LINE",
"180 349 LINE",
"42 0 LINE"
);
}
);
width = 452;
}
);
unicode = 2211;
},
{
glyphname = radical;
layers = (
{
layerId = "53C92641-43F1-46DD-9425-0FDC2985AE5D";
paths = (
{
closed = 1;
nodes = (
"276 0 LINE",
"520 606 LINE",
"691 606 LINE",
"691 700 LINE",
"462 700 LINE",
"229 116 LINE",
"135 349 LINE",
"40 349 LINE",
"182 0 LINE"
);
}
);
width = 731;
}
);
unicode = 221A;
},
{
glyphname = partialdiff;
layers = (
{
layerId = "53C92641-43F1-46DD-9425-0FDC2985AE5D";
paths = (
{
closed = 1;
nodes = (
"322 0 LINE",
"322 750 LINE",
"228 728 LINE",
"228 500 LINE",
"113 500 LINE SMOOTH",
"72 500 OFFCURVE",
"40 468 OFFCURVE",
"40 427 CURVE SMOOTH",
"40 73 LINE SMOOTH",
"40 32 OFFCURVE",
"72 0 OFFCURVE",
"113 0 CURVE SMOOTH"
);
},
{
closed = 1;
nodes = (
"151 94 OFFCURVE",
"134 111 OFFCURVE",
"134 130 CURVE SMOOTH",
"134 370 LINE SMOOTH",
"134 391 OFFCURVE",
"151 406 OFFCURVE",
"170 406 CURVE SMOOTH",
"228 406 LINE",
"228 94 LINE",
"170 94 LINE SMOOTH"
);
}
);
width = 362;
}
);
unicode = 2202;
},
{
glyphname = micro;
layers = (
{
background = {
paths = (
{
closed = 1;
nodes = (
"134 0 LINE",
"249 0 LINE",
"290 0 OFFCURVE",
"322 32 OFFCURVE",
"322 73 CURVE",
"322 427 LINE",
"322 468 OFFCURVE",
"290 500 OFFCURVE",
"249 500 CURVE",
"40 500 LINE",
"40 -250 LINE",
"134 -250 LINE"
);
},
{
closed = 1;
nodes = (
"228 130 LINE",
"228 111 OFFCURVE",
"211 94 OFFCURVE",
"192 94 CURVE",
"134 94 LINE",
"134 406 LINE",
"192 406 LINE",
"211 406 OFFCURVE",
"228 391 OFFCURVE",
"228 369 CURVE"
);
}
);
};
layerId = "53C92641-43F1-46DD-9425-0FDC2985AE5D";
paths = (
{
closed = 1;
nodes = (
"322 0 LINE",
"322 500 LINE",
"228 500 LINE",
"228 94 LINE",
"170 94 LINE SMOOTH",
"151 94 OFFCURVE",
"134 111 OFFCURVE",
"134 130 CURVE SMOOTH",
"134 500 LINE",
"40 500 LINE",
"40 73 LINE SMOOTH",
"40 32 OFFCURVE",
"72 0 OFFCURVE",
"113 0 CURVE SMOOTH"
);
},
{
closed = 1;
nodes = (
"134 -250 LINE",
"134 46 LINE",
"40 106 LINE",
"40 -250 LINE"
);
}
);
width = 362;
}
);
rightMetricsKey = u;
unicode = 00B5;
},
{
glyphname = percent;
layers = (
{
layerId = "53C92641-43F1-46DD-9425-0FDC2985AE5D";
paths = (
{
closed = 1;
nodes = (
"133 1 LINE",
"737 698 LINE",
"645 698 LINE",
"40 1 LINE"
);
},
{
closed = 1;
nodes = (
"669 0 OFFCURVE",
"737 68 OFFCURVE",
"737 152 CURVE SMOOTH",
"737 236 OFFCURVE",
"669 304 OFFCURVE",
"585 304 CURVE SMOOTH",
"501 304 OFFCURVE",
"433 236 OFFCURVE",
"433 152 CURVE SMOOTH",
"433 68 OFFCURVE",
"501 0 OFFCURVE",
"585 0 CURVE SMOOTH"
);
},
{
closed = 1;
nodes = (
"536 63 OFFCURVE",
"496 103 OFFCURVE",
"496 152 CURVE SMOOTH",
"496 201 OFFCURVE",
"536 241 OFFCURVE",
"585 241 CURVE SMOOTH",
"634 241 OFFCURVE",
"674 201 OFFCURVE",
"674 152 CURVE SMOOTH",
"674 103 OFFCURVE",
"634 63 OFFCURVE",
"585 63 CURVE SMOOTH"
);
},
{
closed = 1;
nodes = (
"276 396 OFFCURVE",
"344 464 OFFCURVE",
"344 548 CURVE SMOOTH",
"344 632 OFFCURVE",
"276 700 OFFCURVE",
"192 700 CURVE SMOOTH",
"108 700 OFFCURVE",
"40 632 OFFCURVE",
"40 548 CURVE SMOOTH",
"40 464 OFFCURVE",
"108 396 OFFCURVE",
"192 396 CURVE SMOOTH"
);
},
{
closed = 1;
nodes = (
"143 459 OFFCURVE",
"103 499 OFFCURVE",
"103 548 CURVE SMOOTH",
"103 597 OFFCURVE",
"143 637 OFFCURVE",
"192 637 CURVE SMOOTH",
"241 637 OFFCURVE",
"281 597 OFFCURVE",
"281 548 CURVE SMOOTH",
"281 499 OFFCURVE",
"241 459 OFFCURVE",
"192 459 CURVE SMOOTH"
);
}
);
width = 777;
}
);
unicode = 0025;
},
{
glyphname = perthousand;
layers = (
{
layerId = "53C92641-43F1-46DD-9425-0FDC2985AE5D";
paths = (
{
closed = 1;
nodes = (
"133 1 LINE",
"739 700 LINE",
"646 700 LINE",
"40 1 LINE"
);
},
{
closed = 1;
nodes = (
"671 0 OFFCURVE",
"739 68 OFFCURVE",
"739 153 CURVE SMOOTH",
"739 237 OFFCURVE",
"671 305 OFFCURVE",
"587 305 CURVE SMOOTH",
"503 305 OFFCURVE",
"434 237 OFFCURVE",
"434 153 CURVE SMOOTH",
"434 68 OFFCURVE",
"503 0 OFFCURVE",
"587 0 CURVE SMOOTH"
);
},
{
closed = 1;
nodes = (
"538 63 OFFCURVE",
"498 103 OFFCURVE",
"498 153 CURVE SMOOTH",
"498 202 OFFCURVE",
"538 242 OFFCURVE",
"587 242 CURVE SMOOTH",
"636 242 OFFCURVE",
"676 202 OFFCURVE",
"676 153 CURVE SMOOTH",
"676 103 OFFCURVE",
"636 63 OFFCURVE",
"587 63 CURVE SMOOTH"
);
},
{
closed = 1;
nodes = (
"277 397 OFFCURVE",
"345 465 OFFCURVE",
"345 550 CURVE SMOOTH",
"345 634 OFFCURVE",
"277 702 OFFCURVE",
"192 702 CURVE SMOOTH",
"108 702 OFFCURVE",
"40 634 OFFCURVE",
"40 550 CURVE SMOOTH",
"40 465 OFFCURVE",
"108 397 OFFCURVE",
"192 397 CURVE SMOOTH"
);
},
{
closed = 1;
nodes = (
"143 461 OFFCURVE",
"103 501 OFFCURVE",
"103 550 CURVE SMOOTH",
"103 599 OFFCURVE",
"143 639 OFFCURVE",
"192 639 CURVE SMOOTH",
"242 639 OFFCURVE",
"282 599 OFFCURVE",
"282 550 CURVE SMOOTH",
"282 501 OFFCURVE",
"242 461 OFFCURVE",
"192 461 CURVE SMOOTH"
);
},
{
closed = 1;
nodes = (
"1018 0 OFFCURVE",
"1087 68 OFFCURVE",
"1087 153 CURVE SMOOTH",
"1087 237 OFFCURVE",
"1018 305 OFFCURVE",
"934 305 CURVE SMOOTH",
"850 305 OFFCURVE",
"782 237 OFFCURVE",
"782 153 CURVE SMOOTH",
"782 68 OFFCURVE",
"850 0 OFFCURVE",
"934 0 CURVE SMOOTH"
);
},
{
closed = 1;
nodes = (
"885 63 OFFCURVE",
"845 103 OFFCURVE",
"845 153 CURVE SMOOTH",
"845 202 OFFCURVE",
"885 242 OFFCURVE",
"934 242 CURVE SMOOTH",
"983 242 OFFCURVE",
"1023 202 OFFCURVE",
"1023 153 CURVE SMOOTH",
"1023 103 OFFCURVE",
"983 63 OFFCURVE",
"934 63 CURVE SMOOTH"
);
}
);
width = 1127;
}
);
unicode = 2030;
},
{
glyphname = lozenge;
layers = (
{
layerId = "53C92641-43F1-46DD-9425-0FDC2985AE5D";
paths = (
{
closed = 1;
nodes = (
"275 0 LINE",
"417 351 LINE",
"275 700 LINE",
"181 700 LINE",
"40 351 LINE",
"181 0 LINE"
);
},
{
closed = 1;
nodes = (
"134 351 LINE",
"228 585 LINE",
"322 351 LINE",
"228 118 LINE"
);
}
);
width = 457;
}
);
unicode = 25CA;
},
{
glyphname = at;
layers = (
{
layerId = "53C92641-43F1-46DD-9425-0FDC2985AE5D";
paths = (
{
closed = 1;
nodes = (
"578 -249 LINE",
"600 -155 LINE",
"169 -155 LINE SMOOTH",
"150 -155 OFFCURVE",
"133 -138 OFFCURVE",
"133 -119 CURVE SMOOTH",
"133 618 LINE SMOOTH",
"133 639 OFFCURVE",
"150 654 OFFCURVE",
"169 654 CURVE SMOOTH",
"566 654 LINE SMOOTH",
"587 654 OFFCURVE",
"602 639 OFFCURVE",
"602 618 CURVE SMOOTH",
"602 130 LINE SMOOTH",
"602 111 OFFCURVE",
"587 94 OFFCURVE",
"566 94 CURVE SMOOTH",
"508 94 LINE",
"508 498 LINE",
"299 498 LINE SMOOTH",
"261 498 OFFCURVE",
"227 466 OFFCURVE",
"227 426 CURVE SMOOTH",
"227 73 LINE SMOOTH",
"227 32 OFFCURVE",
"261 0 OFFCURVE",
"299 0 CURVE SMOOTH",
"623 0 LINE SMOOTH",
"663 0 OFFCURVE",
"695 32 OFFCURVE",
"695 73 CURVE SMOOTH",
"695 675 LINE SMOOTH",
"695 716 OFFCURVE",
"663 748 OFFCURVE",
"623 748 CURVE SMOOTH",
"112 748 LINE SMOOTH",
"74 748 OFFCURVE",
"40 716 OFFCURVE",
"40 675 CURVE SMOOTH",
"40 -177 LINE SMOOTH",
"40 -217 OFFCURVE",
"74 -249 OFFCURVE",
"112 -249 CURVE SMOOTH"
);
},
{
closed = 1;
nodes = (
"338 94 OFFCURVE",
"321 111 OFFCURVE",
"321 130 CURVE SMOOTH",
"321 368 LINE SMOOTH",
"321 390 OFFCURVE",
"338 405 OFFCURVE",
"357 405 CURVE SMOOTH",
"414 405 LINE",
"414 94 LINE",
"357 94 LINE SMOOTH"
);
}
);
width = 735;
}
);
unicode = 0040;
},
{
glyphname = ampersand;
layers = (
{
layerId = "53C92641-43F1-46DD-9425-0FDC2985AE5D";
paths = (
{
closed = 1;
nodes = (
"310 0 LINE",
"225 93 LINE",
"169 93 LINE SMOOTH",
"149 93 OFFCURVE",
"133 109 OFFCURVE",
"133 129 CURVE SMOOTH",
"133 178 LINE",
"187 240 LINE",
"411 0 LINE",
"411 142 LINE",
"250 312 LINE",
"411 498 LINE",
"411 628 LINE",
"411 636 LINE",
"407 672 OFFCURVE",
"377 700 OFFCURVE",
"340 700 CURVE SMOOTH",
"112 700 LINE SMOOTH",
"75 700 OFFCURVE",
"44 672 OFFCURVE",
"41 636 CURVE",
"40 633 OFFCURVE",
"40 631 OFFCURVE",
"40 628 CURVE SMOOTH",
"40 396 LINE",
"128 302 LINE",
"40 202 LINE",
"40 72 LINE SMOOTH",
"40 32 OFFCURVE",
"72 0 OFFCURVE",
"112 0 CURVE SMOOTH"
);
},
{
closed = 1;
nodes = (
"133 434 LINE",
"133 572 LINE SMOOTH",
"133 591 OFFCURVE",
"149 607 OFFCURVE",
"169 607 CURVE SMOOTH",
"283 607 LINE SMOOTH",
"303 607 OFFCURVE",
"319 591 OFFCURVE",
"319 572 CURVE SMOOTH",
"319 519 LINE",
"191 374 LINE"
);
}
);
width = 451;
}
);
unicode = 0026;
},
{
glyphname = paragraph;
layers = (
{
layerId = "53C92641-43F1-46DD-9425-0FDC2985AE5D";
paths = (
{
closed = 1;
nodes = (
"302 0 LINE",
"302 700 LINE",
"112 700 LINE SMOOTH",
"73 700 OFFCURVE",
"40 668 OFFCURVE",
"40 628 CURVE SMOOTH",
"40 413 LINE SMOOTH",
"40 373 OFFCURVE",
"73 341 OFFCURVE",
"112 341 CURVE SMOOTH",
"209 341 LINE",
"209 0 LINE"
);
},
{
closed = 1;
nodes = (
"453 0 LINE",
"453 700 LINE",
"360 700 LINE",
"360 0 LINE"
);
}
);
width = 493;
}
);
unicode = 00B6;
},
{
glyphname = section;
layers = (
{
layerId = "53C92641-43F1-46DD-9425-0FDC2985AE5D";
paths = (
{
closed = 1;
nodes = (
"250 -102 LINE SMOOTH",
"291 -102 OFFCURVE",
"322 -69 OFFCURVE",
"322 -28 CURVE SMOOTH",
"322 122 LINE SMOOTH",
"322 132 OFFCURVE",
"319 140 OFFCURVE",
"317 149 CURVE",
"319 157 OFFCURVE",
"322 166 OFFCURVE",
"322 176 CURVE SMOOTH",
"322 326 LINE SMOOTH",
"322 369 OFFCURVE",
"291 400 OFFCURVE",
"250 400 CURVE SMOOTH",
"170 400 LINE SMOOTH",
"150 400 OFFCURVE",
"134 417 OFFCURVE",
"134 436 CURVE SMOOTH",
"134 472 LINE SMOOTH",
"134 494 OFFCURVE",
"150 508 OFFCURVE",
"170 508 CURVE SMOOTH",
"322 508 LINE",
"322 602 LINE",
"112 602 LINE SMOOTH",
"71 602 OFFCURVE",
"40 571 OFFCURVE",
"40 530 CURVE SMOOTH",
"40 378 LINE SMOOTH",
"40 370 OFFCURVE",
"41 361 OFFCURVE",
"43 353 CURVE",
"41 344 OFFCURVE",
"40 336 OFFCURVE",
"40 326 CURVE SMOOTH",
"40 176 LINE SMOOTH",
"40 133 OFFCURVE",
"71 102 OFFCURVE",
"112 102 CURVE SMOOTH",
"190 102 LINE SMOOTH",
"211 102 OFFCURVE",
"228 85 OFFCURVE",
"228 66 CURVE SMOOTH",
"228 28 LINE SMOOTH",
"228 9 OFFCURVE",
"211 -8 OFFCURVE",
"190 -8 CURVE SMOOTH",
"40 -8 LINE",
"40 -102 LINE"
);
},
{
closed = 1;
nodes = (
"150 197 OFFCURVE",
"134 212 OFFCURVE",
"134 231 CURVE SMOOTH",
"134 267 LINE SMOOTH",
"134 288 OFFCURVE",
"150 305 OFFCURVE",
"170 305 CURVE SMOOTH",
"190 305 LINE SMOOTH",
"211 305 OFFCURVE",
"228 288 OFFCURVE",
"228 267 CURVE SMOOTH",
"228 231 LINE SMOOTH",
"228 212 OFFCURVE",
"211 195 OFFCURVE",
"190 195 CURVE SMOOTH",
"165 195 LINE"
);
}
);
width = 362;
}
);
unicode = 00A7;
},
{
glyphname = copyright;
layers = (
{
layerId = "53C92641-43F1-46DD-9425-0FDC2985AE5D";
paths = (
{
closed = 1;
nodes = (
"455 0 LINE SMOOTH",
"495 0 OFFCURVE",
"526 32 OFFCURVE",
"526 72 CURVE SMOOTH",
"526 629 LINE SMOOTH",
"526 667 OFFCURVE",
"495 700 OFFCURVE",
"455 700 CURVE SMOOTH",
"134 700 LINE SMOOTH",
"94 700 OFFCURVE",
"62 667 OFFCURVE",
"62 629 CURVE SMOOTH",
"62 72 LINE SMOOTH",
"62 32 OFFCURVE",
"94 0 OFFCURVE",
"134 0 CURVE SMOOTH"
);
},
{
closed = 1;
nodes = (
"172 93 OFFCURVE",
"155 110 OFFCURVE",
"155 129 CURVE SMOOTH",
"155 572 LINE SMOOTH",
"155 591 OFFCURVE",
"172 607 OFFCURVE",
"191 607 CURVE SMOOTH",
"398 607 LINE SMOOTH",
"417 607 OFFCURVE",
"434 591 OFFCURVE",
"434 572 CURVE SMOOTH",
"434 129 LINE SMOOTH",
"434 110 OFFCURVE",
"417 93 OFFCURVE",
"398 93 CURVE SMOOTH",
"191 93 LINE SMOOTH"
);
},
{
closed = 1;
nodes = (
"349 184 LINE SMOOTH",
"368 184 OFFCURVE",
"383 200 OFFCURVE",
"383 219 CURVE SMOOTH",
"383 291 LINE",
"339 281 LINE",
"339 245 LINE SMOOTH",
"339 236 OFFCURVE",
"330 228 OFFCURVE",
"322 228 CURVE SMOOTH",
"267 228 LINE SMOOTH",
"256 228 OFFCURVE",
"250 236 OFFCURVE",
"250 245 CURVE SMOOTH",
"250 460 LINE SMOOTH",
"250 468 OFFCURVE",
"256 477 OFFCURVE",
"267 477 CURVE SMOOTH",
"322 477 LINE SMOOTH",
"330 477 OFFCURVE",
"339 468 OFFCURVE",
"339 460 CURVE SMOOTH",
"339 413 LINE",
"383 424 LINE",
"383 485 LINE SMOOTH",
"383 506 OFFCURVE",
"368 521 OFFCURVE",
"349 521 CURVE SMOOTH",
"239 521 LINE SMOOTH",
"220 521 OFFCURVE",
"204 506 OFFCURVE",
"204 485 CURVE SMOOTH",
"204 219 LINE SMOOTH",
"204 200 OFFCURVE",
"220 184 OFFCURVE",
"239 184 CURVE SMOOTH"
);
}
);
width = 588;
}
);
unicode = 00A9;
},
{
glyphname = registered;
layers = (
{
layerId = "53C92641-43F1-46DD-9425-0FDC2985AE5D";
paths = (
{
closed = 1;
nodes = (
"320 200 LINE SMOOTH",
"349 200 OFFCURVE",
"372 223 OFFCURVE",
"372 251 CURVE SMOOTH",
"372 649 LINE SMOOTH",
"372 676 OFFCURVE",
"349 700 OFFCURVE",
"320 700 CURVE SMOOTH",
"91 700 LINE SMOOTH",
"63 700 OFFCURVE",
"40 676 OFFCURVE",
"40 649 CURVE SMOOTH",
"40 251 LINE SMOOTH",
"40 223 OFFCURVE",
"63 200 OFFCURVE",
"91 200 CURVE SMOOTH"
);
},
{
closed = 1;
nodes = (
"119 266 OFFCURVE",
"106 278 OFFCURVE",
"106 292 CURVE SMOOTH",
"106 608 LINE SMOOTH",
"106 622 OFFCURVE",
"119 634 OFFCURVE",
"132 634 CURVE SMOOTH",
"280 634 LINE SMOOTH",
"293 634 OFFCURVE",
"305 622 OFFCURVE",
"305 608 CURVE SMOOTH",
"305 292 LINE SMOOTH",
"305 278 OFFCURVE",
"293 266 OFFCURVE",
"280 266 CURVE SMOOTH",
"132 266 LINE SMOOTH"
);
},
{
closed = 1;
nodes = (
"174 331 LINE",
"174 448 LINE",
"191 448 LINE",
"237 331 LINE",
"271 331 LINE",
"224 448 LINE",
"245 448 LINE SMOOTH",
"259 448 OFFCURVE",
"271 459 OFFCURVE",
"271 473 CURVE SMOOTH",
"271 548 LINE SMOOTH",
"271 561 OFFCURVE",
"259 572 OFFCURVE",
"245 572 CURVE SMOOTH",
"141 572 LINE",
"141 331 LINE"
);
},
{
closed = 1;
nodes = (
"174 540 LINE",
"225 540 LINE SMOOTH",
"233 540 OFFCURVE",
"237 534 OFFCURVE",
"237 528 CURVE SMOOTH",
"237 492 LINE SMOOTH",
"237 486 OFFCURVE",
"233 480 OFFCURVE",
"225 480 CURVE SMOOTH",
"174 480 LINE"
);
}
);
width = 412;
}
);
unicode = 00AE;
},
{
glyphname = degree;
layers = (
{
layerId = "53C92641-43F1-46DD-9425-0FDC2985AE5D";
paths = (
{
closed = 1;
nodes = (
"277 397 OFFCURVE",
"345 465 OFFCURVE",
"345 550 CURVE SMOOTH",
"345 634 OFFCURVE",
"277 702 OFFCURVE",
"192 702 CURVE SMOOTH",
"108 702 OFFCURVE",
"40 634 OFFCURVE",
"40 550 CURVE SMOOTH",
"40 465 OFFCURVE",
"108 397 OFFCURVE",
"192 397 CURVE SMOOTH"
);
},
{
closed = 1;
nodes = (
"143 460 OFFCURVE",
"103 500 OFFCURVE",
"103 550 CURVE SMOOTH",
"103 599 OFFCURVE",
"143 639 OFFCURVE",
"192 639 CURVE SMOOTH",
"242 639 OFFCURVE",
"282 599 OFFCURVE",
"282 550 CURVE SMOOTH",
"282 500 OFFCURVE",
"242 460 OFFCURVE",
"192 460 CURVE SMOOTH"
);
}
);
width = 385;
}
);
unicode = 00B0;
},
{
glyphname = bar;
layers = (
{
layerId = "53C92641-43F1-46DD-9425-0FDC2985AE5D";
paths = (
{
closed = 1;
nodes = (
"134 -228 LINE",
"134 748 LINE",
"40 727 LINE",
"40 -249 LINE"
);
}
);
width = 174;
}
);
unicode = 007C;
},
{
glyphname = brokenbar;
layers = (
{
layerId = "53C92641-43F1-46DD-9425-0FDC2985AE5D";
paths = (
{
closed = 1;
nodes = (
"134 -228 LINE",
"134 218 LINE",
"40 196 LINE",
"40 -249 LINE"
);
},
{
closed = 1;
nodes = (
"134 333 LINE",
"134 748 LINE",
"40 727 LINE",
"40 311 LINE"
);
}
);
width = 174;
}
);
unicode = 00A6;
},
{
glyphname = dagger;
layers = (
{
layerId = "53C92641-43F1-46DD-9425-0FDC2985AE5D";
paths = (
{
closed = 1;
nodes = (
"231 304 LINE",
"231 497 LINE",
"314 497 LINE",
"334 586 LINE",
"231 586 LINE",
"231 700 LINE",
"141 679 LINE",
"141 586 LINE",
"60 586 LINE",
"40 497 LINE",
"141 497 LINE",
"141 284 LINE"
);
}
);
width = 374;
}
);
unicode = 2020;
},
{
glyphname = daggerdbl;
layers = (
{
layerId = "53C92641-43F1-46DD-9425-0FDC2985AE5D";
paths = (
{
closed = 1;
nodes = (
"232 304 LINE",
"232 379 LINE",
"314 379 LINE",
"334 469 LINE",
"232 469 LINE",
"232 517 LINE",
"314 517 LINE",
"334 606 LINE",
"232 606 LINE",
"232 700 LINE",
"143 679 LINE",
"143 606 LINE",
"60 606 LINE",
"40 517 LINE",
"143 517 LINE",
"143 469 LINE",
"60 469 LINE",
"40 379 LINE",
"143 379 LINE",
"143 284 LINE"
);
}
);
width = 374;
}
);
unicode = 2021;
},
{
glyphname = dieresis;
layers = (
{
layerId = "53C92641-43F1-46DD-9425-0FDC2985AE5D";
paths = (
{
closed = 1;
nodes = (
"322 606 LINE",
"322 700 LINE",
"228 700 LINE",
"228 606 LINE"
);
},
{
closed = 1;
nodes = (
"134 606 LINE",
"134 700 LINE",
"40 700 LINE",
"40 606 LINE"
);
}
);
width = 362;
}
);
unicode = 00A8;
},
{
glyphname = dotaccent;
layers = (
{
layerId = "53C92641-43F1-46DD-9425-0FDC2985AE5D";
paths = (
{
closed = 1;
nodes = (
"134 606 LINE",
"134 700 LINE",
"40 700 LINE",
"40 606 LINE"
);
}
);
width = 174;
}
);
unicode = 02D9;
},
{
glyphname = grave;
layers = (
{
layerId = "53C92641-43F1-46DD-9425-0FDC2985AE5D";
paths = (
{
closed = 1;
nodes = (
"207 741 LINE",
"127 824 LINE",
"30 824 LINE",
"110 741 LINE"
);
}
);
width = 247;
}
);
unicode = 0060;
},
{
glyphname = acute;
layers = (
{
layerId = "53C92641-43F1-46DD-9425-0FDC2985AE5D";
paths = (
{
closed = 1;
nodes = (
"135 740 LINE",
"215 824 LINE",
"120 824 LINE",
"40 740 LINE"
);
}
);
width = 245;
}
);
unicode = 00B4;
},
{
glyphname = hungarumlaut;
layers = (
{
layerId = "53C92641-43F1-46DD-9425-0FDC2985AE5D";
paths = (
{
closed = 1;
nodes = (
"322 700 LINE",
"228 700 LINE",
"228 606 LINE",
"322 521 LINE"
);
},
{
closed = 1;
nodes = (
"134 700 LINE",
"40 700 LINE",
"40 606 LINE",
"134 521 LINE"
);
}
);
width = 362;
}
);
unicode = 02DD;
},
{
glyphname = circumflex;
layers = (
{
layerId = "53C92641-43F1-46DD-9425-0FDC2985AE5D";
paths = (
{
closed = 1;
nodes = (
"137 741 LINE",
"168 774 LINE",
"200 741 LINE",
"297 741 LINE",
"217 825 LINE",
"120 825 LINE",
"40 741 LINE"
);
}
);
width = 337;
}
);
unicode = 02C6;
},
{
glyphname = caron;
layers = (
{
layerId = "53C92641-43F1-46DD-9425-0FDC2985AE5D";
paths = (
{
closed = 1;
nodes = (
"217 742 LINE",
"297 826 LINE",
"200 826 LINE",
"169 793 LINE",
"137 826 LINE",
"40 826 LINE",
"120 742 LINE"
);
}
);
width = 337;
}
);
unicode = 02C7;
},
{
glyphname = breve;
layers = (
{
layerId = "53C92641-43F1-46DD-9425-0FDC2985AE5D";
paths = (
{
closed = 1;
nodes = (
"241 694 OFFCURVE",
"298 751 OFFCURVE",
"298 823 CURVE",
"244 823 LINE",
"244 782 OFFCURVE",
"210 748 OFFCURVE",
"169 748 CURVE SMOOTH",
"128 748 OFFCURVE",
"94 782 OFFCURVE",
"94 823 CURVE",
"40 823 LINE",
"40 751 OFFCURVE",
"97 694 OFFCURVE",
"169 694 CURVE SMOOTH"
);
}
);
width = 338;
}
);
unicode = 02D8;
},
{
glyphname = ring;
layers = (
{
layerId = "53C92641-43F1-46DD-9425-0FDC2985AE5D";
paths = (
{
closed = 1;
nodes = (
"108 726 OFFCURVE",
"133 751 OFFCURVE",
"133 782 CURVE SMOOTH",
"133 813 OFFCURVE",
"108 839 OFFCURVE",
"77 839 CURVE SMOOTH",
"46 839 OFFCURVE",
"20 813 OFFCURVE",
"20 782 CURVE SMOOTH",
"20 751 OFFCURVE",
"46 726 OFFCURVE",
"77 726 CURVE SMOOTH"
);
},
{
closed = 1;
nodes = (
"63 757 OFFCURVE",
"51 768 OFFCURVE",
"51 782 CURVE SMOOTH",
"51 796 OFFCURVE",
"63 808 OFFCURVE",
"77 808 CURVE SMOOTH",
"91 808 OFFCURVE",
"102 796 OFFCURVE",
"102 782 CURVE SMOOTH",
"102 768 OFFCURVE",
"91 757 OFFCURVE",
"77 757 CURVE SMOOTH"
);
}
);
width = 153;
}
);
unicode = 02DA;
},
{
glyphname = tilde;
layers = (
{
layerId = "53C92641-43F1-46DD-9425-0FDC2985AE5D";
paths = (
{
closed = 1;
nodes = (
"137 742 LINE",
"169 774 LINE",
"200 742 LINE",
"298 742 LINE",
"378 825 LINE",
"281 825 LINE",
"249 791 LINE",
"217 825 LINE",
"120 825 LINE",
"40 742 LINE"
);
}
);
width = 418;
}
);
unicode = 02DC;
},
{
glyphname = macron;
layers = (
{
layerId = "53C92641-43F1-46DD-9425-0FDC2985AE5D";
paths = (
{
closed = 1;
nodes = (
"415 653 LINE",
"415 700 LINE",
"40 700 LINE",
"40 653 LINE"
);
}
);
width = 455;
}
);
unicode = 00AF;
},
{
glyphname = cedilla;
layers = (
{
layerId = "53C92641-43F1-46DD-9425-0FDC2985AE5D";
paths = (
{
closed = 1;
nodes = (
"194 -224 OFFCURVE",
"241 -175 OFFCURVE",
"241 -118 CURVE SMOOTH",
"241 -73 OFFCURVE",
"215 -36 OFFCURVE",
"177 -19 CURVE",
"177 0 LINE",
"93 0 LINE",
"93 -94 LINE",
"134 -94 LINE SMOOTH",
"147 -94 OFFCURVE",
"157 -105 OFFCURVE",
"157 -118 CURVE SMOOTH",
"157 -130 OFFCURVE",
"147 -141 OFFCURVE",
"134 -141 CURVE SMOOTH",
"123 -141 OFFCURVE",
"117 -135 OFFCURVE",
"115 -128 CURVE",
"40 -165 LINE",
"57 -201 OFFCURVE",
"93 -224 OFFCURVE",
"134 -224 CURVE SMOOTH"
);
}
);
width = 281;
}
);
unicode = 00B8;
},
{
glyphname = ogonek;
layers = (
{
layerId = "53C92641-43F1-46DD-9425-0FDC2985AE5D";
paths = (
{
closed = 1;
nodes = (
"188 -224 OFFCURVE",
"224 -201 OFFCURVE",
"241 -165 CURVE",
"166 -128 LINE",
"164 -135 OFFCURVE",
"158 -141 OFFCURVE",
"147 -141 CURVE SMOOTH",
"134 -141 OFFCURVE",
"124 -130 OFFCURVE",
"124 -118 CURVE SMOOTH",
"124 -105 OFFCURVE",
"134 -94 OFFCURVE",
"147 -94 CURVE SMOOTH",
"188 -94 LINE",
"188 0 LINE",
"104 0 LINE",
"104 -19 LINE",
"66 -36 OFFCURVE",
"40 -73 OFFCURVE",
"40 -118 CURVE SMOOTH",
"40 -175 OFFCURVE",
"87 -224 OFFCURVE",
"147 -224 CURVE SMOOTH"
);
}
);
width = 281;
}
);
unicode = 02DB;
},
